<?xml version="1.0" encoding="utf-8"?>
<!-- Generator: Adobe Illustrator 28.2.0, SVG Export Plug-In . SVG Version: 6.00 Build 0)  -->
<svg version="1.1" id="Layer_1" xmlns="http://www.w3.org/2000/svg" xmlns:xlink="http://www.w3.org/1999/xlink" x="0px" y="0px"
	 viewBox="0 0 351.4 46" style="enable-background:new 0 0 351.4 46;" xml:space="preserve">
<style type="text/css">
	.st0{fill:#FFFFFF;}
	.st1{fill:#2592FF;}
</style>
<g>
	<path class="st0" d="M29.8,9.5c-0.1,2.5,0.1,5.4,0.1,8.4c-0.1,4.7-0.1,9.4-0.1,14c0,1.9-1,3.4-2.7,4.1s-3.5,0.5-4.9-0.8
		c-0.3-0.3-0.5-0.3-0.9-0.2c-2.5,1.2-5.2,1.6-7.9,1.3C7.7,35.8,2.7,32,0.8,26.5C0.2,24.7,0,22.9,0,21.1c0-1.9,0-3.9,0-5.8
		C0,8.8,4.4,3,10.5,1.2c3.7-1.1,7.2-0.8,10.7,0.7C21.5,2,21.7,2,22,1.8c1.4-1.3,3-1.8,4.9-1s2.9,2.3,2.9,4.3
		C29.8,6.4,29.8,7.7,29.8,9.5z M20.5,18.5c-0.1-1.6,0.1-3.1-0.1-4.6C20,11.3,17.6,9,14.3,9.3c-2.7,0.3-4.8,2.7-4.8,5.4
		c0,2.5,0,5.1,0,7.6c0,3,2.2,5.2,5.2,5.4c2.7,0.2,5.2-1.8,5.7-4.6C20.6,21.6,20.4,20.1,20.5,18.5z"/>
	<path class="st0" d="M46.7,18.9c0,4.2,0,8.3,0,12.5c0,2.6-1.7,4.7-4,5.3c-3.5,0.9-6.8-1.6-6.8-5.2c0-8.1,0-16.2,0-24.3
		c0-1.4,0.1-2.7,0.9-3.9c1.3-1.9,3.8-2.8,5.9-2.2c2.5,0.7,4,2.7,4,5.2C46.7,10.5,46.7,14.7,46.7,18.9z"/>
	<path class="st1" d="M52.7,10c0-1.3,0-2.5,0-3.8c0-2.8,2.1-5.3,5.3-5.3s5.5,2.3,5.5,5.5c0,2.5,0,5.1,0,7.6c0,3-2.4,5.4-5.3,5.4
		c-3.1,0-5.4-2.3-5.5-5.3C52.6,12.7,52.7,11.4,52.7,10L52.7,10z"/>
</g>
<g>
	<path class="st0" d="M92.9,36.9c-4.5,0-8-1.1-10.6-3.3s-3.8-5.2-3.8-9h10.2c0,1.5,0.4,2.6,1.2,3.5c0.8,0.9,1.8,1.3,3.2,1.3
		c2.3,0,3.4-1,3.4-2.9c0-0.8-0.2-1.4-0.7-1.9s-1.3-0.9-2.5-1.4l-6.8-2.5c-5-1.8-7.5-5.1-7.5-9.7c0-3.2,1.2-5.8,3.6-7.7
		s5.7-2.9,9.8-2.9c4.2,0,7.5,1,10,2.9s3.8,4.7,3.8,8.1H96c0-1.3-0.3-2.3-1-3c-0.6-0.7-1.6-1.1-2.7-1.1c-0.9,0-1.7,0.2-2.3,0.7
		c-0.6,0.5-0.8,1.1-0.8,1.9c0,0.7,0.3,1.3,0.8,1.8c0.6,0.5,1.5,1,2.9,1.6l6.3,2.4c4.9,1.9,7.3,5.2,7.3,9.9c0,3.5-1.2,6.2-3.7,8.2
		C100.4,35.9,97.1,36.9,92.9,36.9z"/>
	<path class="st0" d="M117.9,36.4c-2.8,0-5-0.8-6.5-2.5s-2.3-4.1-2.3-7.1V12.1h7.6V25c0,3.3,1.3,5,3.9,5c3,0,4.6-1.8,4.6-5.2V12.1
		h7.5v23.7h-7.5v-3.4C123.9,35.1,121.4,36.4,117.9,36.4z"/>
	<path class="st0" d="M153,11.5c3.2,0,5.9,1.1,7.9,3.4s3,5.3,3,9s-1,6.7-3.1,9c-2.1,2.3-4.7,3.5-8,3.5c-1.7,0-3.2-0.4-4.6-1.1
		s-2.3-1.7-2.9-2.8v13.2h-7.5V12.1h7.5v3.4c0.6-1.2,1.6-2.1,3-2.9C149.7,11.9,151.3,11.5,153,11.5z M150.6,30.2c1.6,0,3-0.6,4-1.7
		c1.1-1.2,1.6-2.7,1.6-4.5s-0.5-3.3-1.6-4.5c-1.1-1.1-2.4-1.7-4-1.7c-1.7,0-3.1,0.6-4.1,1.7c-1.1,1.1-1.6,2.6-1.6,4.5
		s0.5,3.4,1.6,4.5S148.9,30.2,150.6,30.2z"/>
	<path class="st0" d="M182.4,11.5c3.2,0,5.9,1.1,7.9,3.4s3,5.3,3,9s-1,6.7-3.1,9c-2.1,2.3-4.7,3.5-8,3.5c-1.7,0-3.2-0.4-4.6-1.1
		s-2.3-1.7-2.9-2.8v13.2h-7.5V12.1h7.5v3.4c0.6-1.2,1.6-2.1,3-2.9C179.1,11.9,180.6,11.5,182.4,11.5z M180,30.2c1.6,0,3-0.6,4-1.7
		c1.1-1.2,1.6-2.7,1.6-4.5s-0.5-3.3-1.6-4.5c-1.1-1.1-2.4-1.7-4-1.7c-1.7,0-3.1,0.6-4.1,1.7c-1.1,1.1-1.6,2.6-1.6,4.5
		s0.5,3.4,1.6,4.5S178.3,30.2,180,30.2z"/>
	<path class="st0" d="M217.5,33c-2.4,2.4-5.6,3.5-9.5,3.5c-4,0-7.2-1.2-9.6-3.5c-2.4-2.4-3.6-5.4-3.6-9c0-3.7,1.2-6.7,3.6-9
		c2.4-2.3,5.6-3.5,9.6-3.5s7.2,1.2,9.5,3.5s3.6,5.3,3.6,9C221.1,27.6,219.9,30.6,217.5,33z M208,30.1c1.7,0,3.1-0.6,4.1-1.7
		s1.5-2.6,1.5-4.5c0-1.8-0.5-3.3-1.5-4.5c-1-1.1-2.4-1.7-4.1-1.7c-1.8,0-3.1,0.6-4.1,1.7s-1.5,2.6-1.5,4.5c0,1.8,0.5,3.3,1.5,4.5
		S206.2,30.1,208,30.1z"/>
	<path class="st0" d="M224.2,35.8V12.1h7.5v5c0.4-1.7,1.2-3,2.4-3.9s2.6-1.4,4.1-1.4c0.8,0,1.4,0.1,2,0.2v7
		c-0.9-0.1-1.6-0.1-2.3-0.1c-4.1,0-6.2,2.6-6.2,7.9v9.1L224.2,35.8L224.2,35.8z"/>
	<path class="st0" d="M256.4,30c1,0,1.9,0,2.6-0.1v6c-1.4,0.3-3.1,0.4-5,0.4c-0.9,0-1.6,0-2.3-0.2c-0.6-0.1-1.4-0.3-2.2-0.7
		s-1.5-0.8-2-1.4c-0.5-0.6-1-1.4-1.4-2.5s-0.6-2.4-0.6-3.9v-9.4h-3.7v-5.9h3.7v-7h7.5v7h5.3v5.9h-5.4v7.9c0,1.6,0.3,2.7,0.8,3.2
		C254.4,29.7,255.3,30,256.4,30z"/>
	<path class="st0" d="M262,35.8V1.4h10.2v13h9.6v-13H292v34.3h-10.2V23h-9.6v12.8H262z"/>
	<path class="st0" d="M305.4,36.4c-2.8,0-5-0.8-6.5-2.5s-2.3-4.1-2.3-7.1V12.1h7.6V25c0,3.3,1.3,5,3.9,5c3,0,4.6-1.8,4.6-5.2V12.1
		h7.5v23.7h-7.5v-3.4C311.3,35.1,308.9,36.4,305.4,36.4z"/>
	<path class="st0" d="M340.4,11.5c3.2,0,5.9,1.1,7.9,3.4s3,5.3,3,9s-1,6.7-3.1,9c-2.1,2.3-4.7,3.5-8,3.5c-1.7,0-3.2-0.4-4.6-1.1
		s-2.3-1.7-2.9-2.8v3.3h-7.5V1.4h7.5v14.1c0.6-1.2,1.6-2.1,3-2.9C337.1,11.9,338.7,11.5,340.4,11.5z M338,30.2c1.6,0,3-0.6,4-1.7
		c1-1.2,1.6-2.7,1.6-4.5s-0.5-3.3-1.6-4.5c-1-1.1-2.4-1.7-4-1.7c-1.7,0-3.1,0.6-4.1,1.7s-1.6,2.6-1.6,4.5s0.5,3.4,1.6,4.5
		S336.4,30.2,338,30.2z"/>
</g>
</svg>
