<?xml version="1.0" encoding="utf-8"?>
<!-- Generator: Adobe Illustrator 28.2.0, SVG Export Plug-In . SVG Version: 6.00 Build 0)  -->
<svg version="1.1" id="Layer_1" xmlns="http://www.w3.org/2000/svg" xmlns:xlink="http://www.w3.org/1999/xlink" x="0px" y="0px"
	 viewBox="0 0 63.9 46" style="enable-background:new 0 0 63.9 46;" xml:space="preserve">
<style type="text/css">
	.st0{fill:#FFFFFF;}
	.st1{fill:#2592FF;}
</style>
<path class="st0" d="M29.8,9.5c-0.1,2.5,0.1,5.4,0.1,8.4c-0.1,4.7-0.1,9.4-0.1,14c0,1.9-1,3.4-2.7,4.1s-3.5,0.5-4.9-0.8
	c-0.3-0.3-0.5-0.3-0.9-0.2c-2.5,1.2-5.2,1.6-7.9,1.3C7.7,35.8,2.7,32,0.8,26.5C0.2,24.7,0,22.9,0,21.1c0-1.9,0-3.9,0-5.8
	C0,8.8,4.4,3,10.5,1.2c3.7-1.1,7.2-0.8,10.7,0.7C21.5,2,21.7,2,22,1.8c1.4-1.3,3-1.8,4.9-1s2.9,2.3,2.9,4.3
	C29.8,6.4,29.8,7.7,29.8,9.5z M20.5,18.5c-0.1-1.6,0.1-3.1-0.1-4.6C20,11.3,17.6,9,14.3,9.3c-2.7,0.3-4.8,2.7-4.8,5.4
	c0,2.5,0,5.1,0,7.6c0,3,2.2,5.2,5.2,5.4c2.7,0.2,5.2-1.8,5.7-4.6C20.6,21.6,20.4,20.1,20.5,18.5z"/>
<path class="st0" d="M46.7,18.9c0,4.2,0,8.3,0,12.5c0,2.6-1.7,4.7-4,5.3c-3.5,0.9-6.8-1.6-6.8-5.2c0-8.1,0-16.2,0-24.3
	c0-1.4,0.1-2.7,0.9-3.9c1.3-1.9,3.8-2.8,5.9-2.2c2.5,0.7,4,2.7,4,5.2C46.7,10.5,46.7,14.7,46.7,18.9z"/>
<path class="st1" d="M52.7,10c0-1.3,0-2.5,0-3.8c0-2.8,2.1-5.3,5.3-5.3s5.5,2.3,5.5,5.5c0,2.5,0,5.1,0,7.6c0,3-2.4,5.4-5.3,5.4
	c-3.1,0-5.4-2.3-5.5-5.3C52.6,12.7,52.7,11.4,52.7,10L52.7,10z"/>
</svg>
