<svg width="1652" height="369" viewBox="0 0 1652 369" fill="none" xmlns="http://www.w3.org/2000/svg">
<g opacity="0.05">
<path d="M1360.2 67.11C1357.65 59.16 1350.28 53.37 1341.49 53.37C1332.7 53.37 1325.33 59.16 1322.78 67.11H1360.2Z" fill="#F5F5F6"/>
<g style="mix-blend-mode:multiply" opacity="0.5">
<path d="M1360.2 67.11C1357.65 59.16 1350.28 53.37 1341.49 53.37C1332.7 53.37 1325.33 59.16 1322.78 67.11H1360.2Z" fill="#D7E5FF"/>
</g>
<path d="M1241.46 67.1101C1242.84 63.9501 1243.64 60.4801 1243.64 56.8101C1243.64 42.5901 1232.11 31.0601 1217.89 31.0601C1203.67 31.0601 1192.14 42.5901 1192.14 56.8101C1192.14 60.4801 1192.93 63.9501 1194.31 67.1101H1241.47H1241.46Z" fill="#F5F5F6"/>
<path d="M1316.06 67.11C1317.52 62.36 1318.31 57.32 1318.31 52.09C1318.31 23.88 1295.44 1.02002 1267.23 1.02002C1239.02 1.02002 1216.16 23.89 1216.16 52.09C1216.16 57.32 1216.95 62.36 1218.41 67.11H1316.05H1316.06Z" fill="#F5F5F6"/>
<g style="mix-blend-mode:multiply" opacity="0.5">
<path d="M1267.24 1.01001C1263.78 1.01001 1260.4 1.36001 1257.13 2.01001C1280.5 6.70001 1298.1 27.33 1298.1 52.08C1298.1 57.31 1297.31 62.35 1295.85 67.1H1316.06C1317.52 62.35 1318.31 57.31 1318.31 52.08C1318.31 23.87 1295.44 1.01001 1267.23 1.01001H1267.24Z" fill="#D7E5FF"/>
</g>
<path d="M1341.03 67.1101C1342.41 63.9501 1343.2 60.4801 1343.2 56.8101C1343.2 42.5901 1331.67 31.0601 1317.45 31.0601C1303.23 31.0601 1291.7 42.5901 1291.7 56.8101C1291.7 60.4801 1292.49 63.9501 1293.88 67.1101H1341.04H1341.03Z" fill="#F5F5F6"/>
<g style="mix-blend-mode:multiply" opacity="0.5">
<path d="M1317.45 31.05C1314.51 31.05 1311.7 31.55 1309.07 32.45C1319.18 35.93 1326.44 45.51 1326.44 56.8C1326.44 60.47 1325.65 63.9401 1324.27 67.1001H1341.03C1342.41 63.9401 1343.2 60.47 1343.2 56.8C1343.2 42.58 1331.67 31.05 1317.45 31.05Z" fill="#D7E5FF"/>
</g>
<path d="M1203.11 67.11C1200.56 59.16 1193.19 53.37 1184.4 53.37C1175.61 53.37 1168.24 59.16 1165.69 67.11H1203.11Z" fill="#F5F5F6"/>
<g style="mix-blend-mode:multiply" opacity="0.5">
<path d="M1342.98 53.43C1341.33 40.8 1330.53 31.05 1317.46 31.05C1316.79 31.05 1316.13 31.08 1315.48 31.13C1315.37 31.13 1315.26 31.14 1315.16 31.15C1314.74 31.19 1314.32 31.24 1313.91 31.29C1310.52 23.7 1305.34 17.08 1298.89 11.99C1296.18 9.85001 1293.25 7.98 1290.14 6.41C1289.56 6.12 1288.97 5.84001 1288.37 5.57001C1281.93 2.64001 1274.78 1 1267.25 1C1267.15 1 1267.05 1 1266.95 1C1266.18 1 1265.42 1.02 1264.66 1.06C1263.88 1.1 1263.1 1.16 1262.32 1.24C1262.25 1.24 1262.18 1.24 1262.11 1.26C1260.43 1.43 1258.77 1.68 1257.15 2.01C1257.15 2.01 1257.15 2.01 1257.14 2.01C1245.54 4.34 1235.38 10.61 1228.07 19.36C1228.27 19.35 1228.46 19.33 1228.66 19.32C1229.42 19.28 1230.18 19.27 1230.95 19.26C1231.05 19.26 1231.15 19.26 1231.25 19.26C1238.79 19.26 1245.93 20.9 1252.37 23.83C1252.97 24.1 1253.56 24.38 1254.14 24.67C1257.25 26.23 1260.18 28.11 1262.89 30.25C1269.33 35.34 1274.52 41.96 1277.91 49.55C1278.32 49.49 1278.74 49.44 1279.16 49.41C1279.27 49.41 1279.37 49.39 1279.48 49.39C1280.13 49.34 1280.79 49.31 1281.46 49.31C1292.91 49.31 1302.61 56.78 1305.96 67.12H1360.2C1357.79 59.63 1351.11 54.06 1342.98 53.44V53.43Z" fill="#D7E5FF"/>
</g>
</g>
<g opacity="0.05">
<path d="M1465.89 368.67C1470.13 360.15 1472.52 350.55 1472.52 340.39C1472.52 305.25 1444.03 276.76 1408.89 276.76C1373.75 276.76 1345.26 305.25 1345.26 340.39C1345.26 350.55 1347.65 360.15 1351.89 368.67H1465.88H1465.89Z" fill="#F5F5F6"/>
<path d="M1389.8 368.67C1386.71 354.13 1373.8 343.22 1358.34 343.22C1342.88 343.22 1329.97 354.13 1326.88 368.67H1389.8Z" fill="#F5F5F6"/>
<path d="M1651.3 368.67C1648.02 359.99 1639.63 353.82 1629.81 353.82C1619.99 353.82 1611.6 359.99 1608.32 368.67H1651.3Z" fill="#F5F5F6"/>
<g style="mix-blend-mode:multiply" opacity="0.5">
<path d="M1651.3 368.67C1648.02 359.99 1639.63 353.82 1629.81 353.82C1619.99 353.82 1611.6 359.99 1608.32 368.67H1651.3Z" fill="#D7E5FF"/>
</g>
<path d="M1621.89 368.67C1622.21 366.48 1622.39 364.24 1622.39 361.95C1622.39 336.77 1601.98 316.35 1576.79 316.35C1551.6 316.35 1531.19 336.76 1531.19 361.95C1531.19 364.23 1531.36 366.47 1531.69 368.67H1621.89Z" fill="#F5F5F6"/>
<g style="mix-blend-mode:multiply" opacity="0.5">
<path d="M1621.89 368.67C1622.21 366.48 1622.39 364.24 1622.39 361.95C1622.39 336.77 1601.98 316.35 1576.79 316.35C1551.6 316.35 1531.19 336.76 1531.19 361.95C1531.19 364.23 1531.36 366.47 1531.69 368.67H1621.89Z" fill="#D7E5FF"/>
</g>
<path d="M1554.05 368.67C1551.35 352.23 1537.08 339.69 1519.88 339.69C1502.68 339.69 1488.41 352.23 1485.71 368.67H1554.06H1554.05Z" fill="#F5F5F6"/>
<g style="mix-blend-mode:multiply" opacity="0.5">
<path d="M1554.05 368.67C1551.35 352.23 1537.08 339.69 1519.88 339.69C1502.68 339.69 1488.41 352.23 1485.71 368.67H1554.06H1554.05Z" fill="#D7E5FF"/>
</g>
<path d="M1512.76 368.67C1513.25 365.91 1513.52 363.08 1513.52 360.19C1513.52 333.64 1492 312.12 1465.45 312.12C1438.9 312.12 1417.38 333.64 1417.38 360.19C1417.38 363.09 1417.65 365.92 1418.14 368.67H1512.76Z" fill="#F5F5F6"/>
<g style="mix-blend-mode:multiply" opacity="0.5">
<path d="M1465.45 312.12C1461.14 312.12 1456.97 312.7 1452.99 313.76C1473.5 319.25 1488.6 337.95 1488.6 360.19C1488.6 363.09 1488.33 365.92 1487.84 368.67H1512.76C1513.25 365.91 1513.52 363.08 1513.52 360.19C1513.52 333.64 1492 312.12 1465.45 312.12Z" fill="#D7E5FF"/>
</g>
<g style="mix-blend-mode:multiply" opacity="0.5">
<path d="M1629.81 353.83C1627.02 353.83 1624.36 354.34 1621.89 355.25C1618.64 333.25 1599.69 316.36 1576.79 316.36C1558.27 316.36 1542.34 327.41 1535.2 343.26C1530.58 340.98 1525.38 339.69 1519.88 339.69C1516.31 339.69 1512.87 340.24 1509.63 341.24C1505.05 330.57 1496.71 321.89 1486.29 316.86C1480.11 313.88 1473.2 312.2 1465.89 312.13C1455.48 291.18 1433.87 276.77 1408.89 276.77C1383.91 276.77 1361.43 291.76 1351.27 313.4C1358 310.97 1365.26 309.65 1372.83 309.65C1397.81 309.65 1419.42 324.06 1429.83 345.01C1437.13 345.08 1444.05 346.76 1450.23 349.74C1458.82 353.88 1465.99 360.51 1470.81 368.68H1503.4C1511.65 356.93 1525.28 349.24 1540.73 349.24C1556.18 349.24 1569.82 356.93 1578.07 368.68H1651.3C1648.02 360 1639.63 353.83 1629.81 353.83Z" fill="#D7E5FF"/>
</g>
</g>
<g opacity="0.05">
<path d="M233.76 274.32C233.91 273.06 234.02 271.79 234.02 270.49C234.02 253.1 219.93 239.01 202.54 239.01C185.15 239.01 171.06 253.1 171.06 270.49C171.06 271.79 171.16 273.06 171.32 274.32H233.77H233.76Z" fill="#F5F5F6"/>
<g style="mix-blend-mode:multiply" opacity="0.5">
<path d="M233.76 274.32C233.91 273.06 234.02 271.79 234.02 270.49C234.02 253.1 219.93 239.01 202.54 239.01C185.15 239.01 171.06 253.1 171.06 270.49C171.06 271.79 171.16 273.06 171.32 274.32H233.77H233.76Z" fill="#9DEFFF"/>
</g>
<path d="M195.97 274.32C196.97 270.86 197.54 267.22 197.54 263.43C197.54 241.82 180.02 224.3 158.41 224.3C136.8 224.3 119.28 241.82 119.28 263.43C119.28 267.21 119.85 270.86 120.85 274.32H195.98H195.97Z" fill="#F5F5F6"/>
<g style="mix-blend-mode:multiply" opacity="0.5">
<path d="M195.97 274.32C196.97 270.86 197.54 267.22 197.54 263.43C197.54 241.82 180.02 224.3 158.41 224.3C136.8 224.3 119.28 241.82 119.28 263.43C119.28 267.21 119.85 270.86 120.85 274.32H195.98H195.97Z" fill="#D7E5FF"/>
</g>
<g style="mix-blend-mode:multiply" opacity="0.5">
<path d="M14.24 252.46C14.41 252.53 14.59 252.58 14.77 252.65C14.87 252.44 14.99 252.23 15.09 252.02C14.8 252.16 14.52 252.31 14.24 252.46Z" fill="#D7E5FF"/>
<path d="M202.54 239.02C198.35 239.02 194.35 239.85 190.69 241.33C185.23 233.38 176.92 227.55 167.22 225.31C168.18 221.7 168.7 217.91 168.7 214C168.7 189.79 149.07 170.16 124.86 170.16C124.84 170.16 124.83 170.16 124.81 170.16C124.05 170.16 123.29 170.18 122.54 170.22C122.35 170.23 122.17 170.25 121.98 170.26C121.4 170.3 120.82 170.34 120.24 170.4C120.07 170.42 119.9 170.44 119.73 170.46C119.14 170.53 118.54 170.6 117.96 170.7C117.83 170.72 117.7 170.75 117.57 170.77C116.94 170.87 116.32 170.99 115.7 171.12C115.62 171.14 115.53 171.16 115.45 171.18C114.79 171.32 114.13 171.48 113.48 171.66C113.44 171.67 113.39 171.69 113.35 171.7C112.66 171.89 111.98 172.09 111.3 172.31C111.29 172.31 111.27 172.31 111.26 172.32C109.85 172.78 108.46 173.31 107.12 173.91C102.16 176.11 97.6899 179.2 93.8999 182.98C94.0199 182.98 94.1299 182.98 94.2499 182.98C94.2699 182.98 94.2799 182.98 94.2999 182.98C118.51 182.98 138.14 202.61 138.14 226.82C138.14 230.73 137.62 234.52 136.66 238.13C146.35 240.36 154.67 246.19 160.13 254.15C163.79 252.66 167.79 251.84 171.98 251.84C186.24 251.84 198.28 261.32 202.15 274.33H233.77C233.92 273.07 234.03 271.8 234.03 270.5C234.03 253.11 219.94 239.02 202.55 239.02H202.54Z" fill="#D7E5FF"/>
</g>
<path d="M38.3599 274.32C48.2734 274.32 56.3099 266.284 56.3099 256.37C56.3099 246.457 48.2734 238.42 38.3599 238.42C28.4464 238.42 20.4099 246.457 20.4099 256.37C20.4099 266.284 28.4464 274.32 38.3599 274.32Z" fill="#F5F5F6"/>
<path d="M124.86 257.85C149.072 257.85 168.7 238.222 168.7 214.01C168.7 189.798 149.072 170.17 124.86 170.17C100.648 170.17 81.02 189.798 81.02 214.01C81.02 238.222 100.648 257.85 124.86 257.85Z" fill="#F5F5F6"/>
<g style="mix-blend-mode:multiply" opacity="0.5">
<path d="M124.86 170.17C118.54 170.17 112.54 171.52 107.11 173.93C122.47 180.74 133.2 196.12 133.2 214.01C133.2 231.9 122.48 247.28 107.11 254.09C112.54 256.5 118.54 257.84 124.86 257.84C149.07 257.84 168.7 238.21 168.7 214C168.7 189.79 149.07 170.16 124.86 170.16V170.17Z" fill="#D7E5FF"/>
</g>
<path d="M127.71 274.32C129.45 269.54 130.45 264.4 130.45 259.02C130.45 234.32 110.43 214.3 85.73 214.3C61.03 214.3 41.01 234.32 41.01 259.02C41.01 264.4 42.01 269.54 43.75 274.32H127.7H127.71Z" fill="#F5F5F6"/>
<g style="mix-blend-mode:multiply" opacity="0.5">
<path d="M85.7301 214.3C82.3401 214.3 79.0401 214.69 75.8701 215.4C95.8201 219.89 110.73 237.71 110.73 259.02C110.73 264.4 109.73 269.54 107.99 274.32H127.71C129.45 269.54 130.45 264.4 130.45 259.02C130.45 234.32 110.43 214.3 85.7301 214.3Z" fill="#D7E5FF"/>
</g>
<path d="M25.71 249.61C12.06 249.61 1 260.67 1 274.32H50.43C50.43 260.67 39.37 249.61 25.72 249.61H25.71Z" fill="#F5F5F6"/>
</g>
</svg>
