<?xml version="1.0" encoding="utf-8"?>
<!-- Generator: Adobe Illustrator 28.2.0, SVG Export Plug-In . SVG Version: 6.00 Build 0)  -->
<svg version="1.1" id="Layer_1" xmlns="http://www.w3.org/2000/svg" xmlns:xlink="http://www.w3.org/1999/xlink" x="0px" y="0px"
	 viewBox="0 0 96 96" style="enable-background:new 0 0 96 96;" xml:space="preserve">
<style type="text/css">
	.st0{fill:#FFFFFF;}
</style>
<path class="st0" d="M24,20c2.2,0,4,1.8,4,4s-1.8,4-4,4s-4-1.8-4-4S21.8,20,24,20z M24,68c2.2,0,4,1.8,4,4s-1.8,4-4,4s-4-1.8-4-4
	S21.8,68,24,68z M72,68c2.2,0,4,1.8,4,4s-1.8,4-4,4s-4-1.8-4-4S69.8,68,72,68z M72,20c2.2,0,4,1.8,4,4s-1.8,4-4,4s-4-1.8-4-4
	S69.8,20,72,20z"/>
</svg>
