<?xml version="1.0" encoding="utf-8"?>
<!-- Generator: Adobe Illustrator 28.2.0, SVG Export Plug-In . SVG Version: 6.00 Build 0)  -->
<svg version="1.1" id="Layer_1" xmlns="http://www.w3.org/2000/svg" xmlns:xlink="http://www.w3.org/1999/xlink" x="0px" y="0px"
	 viewBox="0 0 520 520" style="enable-background:new 0 0 520 520;" xml:space="preserve">
<style type="text/css">
	.st0{fill:#FFFFFF;}
	.st1{opacity:0.8;fill:#FFFFFF;enable-background:new    ;}
	.st2{fill:#51A2FF;}
</style>
<path class="st0" d="M327.5,63.5l-1.5,1.6c-0.5,0.5-1.1,1-1.6,1.5c-0.5,0.5-1,1-1.6,1.5l-1.7,1.4c-0.8,0.7-1.6,1.4-2.5,2
	c-3,2.2-6.3,4-9.7,5.5l-1.1,0.5c-0.4,0.2-0.8,0.3-1.1,0.4c-0.8,0.3-1.5,0.6-2.3,0.9c-1,0.3-2,0.6-3,0.9c-1,0.3-2.1,0.3-3.1,0.3
	c-0.7-0.2-0.6-0.2-0.1-0.6c0.2-0.2,0.6-0.5,1-0.8c0.2-0.2,0.4-0.3,0.6-0.4c0.2-0.1,0.5-0.2,0.8-0.3l2.9-1c1-0.3,1.9-0.8,2.8-1.2
	c1.9-0.8,3.8-1.6,5.6-2.6c2.2-1.1,4.3-2.7,6.3-4.2c1.1-0.8,2.1-1.8,3.2-2.7c1-1,2-1.9,3-2.9l1.8-1.9c0.6-0.6,1.1-1.3,1.6-2
	c1.6-2,3.1-4.2,4.3-6.5c0.5-0.9,0.8-1.8,1.2-2.7c0.4-0.9,0.6-1.9,1-2.8c0.1-0.4,0.3-0.8,0.4-1.2c0.5-1.5,0.8-2,1.6-2.1
	c0.2,0,0.4-0.1,0.5-0.1c0.6,0,0.8,0.8,0.6,2c-0.6,3.7-2.3,7.4-4.4,10.8c-0.8,1.2-1.6,2.5-2.5,3.6C329.4,61.3,328.6,62.5,327.5,63.5
	L327.5,63.5L327.5,63.5L327.5,63.5z"/>
<path class="st1" d="M267.8,36.5c0,0,3.3,3.1,6.1,8c2.8,4.9,6.4,13.1,6.4,13.1s-18.2,3.3-19.9-2.9c-1.6-6.2,5.6-9.8,6.1-12.9
	C267.1,38.8,267.8,36.5,267.8,36.5L267.8,36.5z"/>
<path class="st0" d="M274.7,46c-3-3.1-4.5-3.9-8.9,0.8c-4,4.3,4.4-10.3,4.4-10.3L274.7,46L274.7,46L274.7,46z"/>
<path class="st2" d="M283.7,86.6c-0.5,0.8,10.9,6.5,26.3-2c15.2-8.4,28.2-24.4,28.8-32.8c0.3-4.4,14.5,24.5,14.5,24.5
	s-17.8,21.7-32.1,27.7c-14.3,6-26,9.3-28.1,5.2C291.1,105,283.7,86.6,283.7,86.6L283.7,86.6L283.7,86.6z M260.6,50.3
	c-0.7-0.6-5.9-4-27.1,5.2c-19.2,8.4-34.5,31-34.5,31s-5-5.1-8.4-7.9c-3.4-2.8-10.9-6.8-9.6-10.6S200.7,51,203.6,49
	s20.4-13.9,26.2-15.5c5.7-1.6,20.6-6.3,26.3-4.5s10.8,5.8,11.7,8.6C268.7,40.4,260.6,50.3,260.6,50.3L260.6,50.3L260.6,50.3z"/>
<path class="st0" d="M346.2,66.7c-0.6-1.6-1.3-3.2-2.1-4.7c-0.3-0.6-0.6-1.1-0.9-1.7c-0.9-2-1.9-4.1-2.9-6.1
	c-0.5-0.9-0.9-1.8-1.4-2.7l-0.9-1.7c-0.3-0.6-0.5-1.2-0.7-1.8c-0.1-0.4,0-0.4,0.2-0.1c0.2,0.3,0.8,0.7,1.1,1.3
	c1.3,2.2,2.7,4.4,3.9,6.7c0.7,1.4,1.7,2.7,2.5,4.1c0.9,1.5,1.7,3.1,2.5,4.7c0.5,1,1,2,1.4,3c0.7,1.5,1.2,3.1,1.8,4.7
	c0.2,0.6,0.4,1.2,0.7,1.8c0.2,0.6,0.4,1.2,0.6,1.8c0.1,0.3,0.2,0.5,0.2,0.8c0.2,1.1,0,1.4-0.6,1.7c-0.1,0.1-0.3,0.2-0.5,0.2
	c-0.5,0.2-1-0.2-1.3-0.9c-0.8-2-1.4-4.2-2.2-6.3C347.5,69.9,346.9,68.3,346.2,66.7L346.2,66.7L346.2,66.7L346.2,66.7z M212.5,116.6
	c0.1,0.3,0,0.3,0,0.6c0.1-0.1,0.1-0.1,0.2-0.1l0.1-0.1l0,0c0,0,0,0,0.1-0.1l0.7-0.6c0.6-0.5,1.1-1,1.7-1.4c2-1.6,4.1-3.1,6.4-4.4
	c1-0.6,2-1.2,3-1.8c0.6-0.3,1.3-0.7,2-1c0.3-0.1,0.7-0.2,1.1-0.4c0.4-0.1,0.7-0.2,1.1-0.2c0.4-0.1,0.4,0.1,0.1,0.4s-0.8,0.8-1.5,1.3
	c-2.5,1.3-4.9,3-7.3,4.7c-1.5,1-2.8,2.2-4.2,3.4l-0.9,0.8l-0.4,0.4l-0.2,0.2c-0.1,0.1-0.1,0.1-0.3,0.3c-1,0.9-1.9,1.9-2.8,2.8
	c-0.1-0.6-0.1-1.2-0.2-1.9l-0.1-0.8l-0.1-0.7c-0.1-0.4-0.2-0.9-0.3-1.1c-0.2-0.6-0.3-1.2-0.5-1.7c-0.6-1.8-1.2-3.5-1.9-5.2
	c-0.6-1.3-1.3-2.6-1.9-3.8c-0.1-0.3-0.3-0.6-0.4-0.8c-0.5-1.1-0.4-1.5,0-2c0.1-0.1,0.2-0.2,0.3-0.3c0.4-0.2,0.9,0.1,1.3,0.8
	c1.4,2.2,2.4,4.7,3.4,7.2c0.4,0.9,0.7,1.9,1,2.9c0.2,0.5,0.3,1,0.5,1.5L212.5,116.6L212.5,116.6L212.5,116.6L212.5,116.6z
	 M416.5,463.5c-0.5,0.6-0.9,1.1-1.4,1.7c-0.2,0.2-0.3,0.4-0.5,0.6c-0.6,0.7-1.3,1.4-2,2l-0.9,0.9c-0.4,0.4-0.8,0.7-1.2,1
	c-0.1,0.1-0.2,0-0.1-0.1c0-0.2,0.1-0.4,0.4-0.6c0.7-0.8,1.4-1.6,2.2-2.4c0.5-0.5,0.9-1,1.2-1.5c0.4-0.6,0.9-1.1,1.3-1.7
	c0.3-0.4,0.5-0.7,0.8-1.1c0.4-0.6,0.7-1.1,1-1.7c0.2-0.5,0.4-1,0.5-1.5l0.1-0.3c0.1-0.4,0.3-0.5,0.7-0.4c0.1,0,0.2,0,0.2,0
	c0.2,0.1,0.4,0.3,0.4,0.7c-0.2,1-0.7,1.9-1.2,2.7C417.4,462.3,417,462.9,416.5,463.5L416.5,463.5L416.5,463.5z M100.7,458.4
	c-0.2,0.6-0.5,1.3-0.7,2c-0.1,0.2-0.1,0.5-0.2,0.7c-0.3,0.9-0.6,1.7-0.8,2.5c-0.1,0.4-0.2,0.8-0.2,1.2c-0.1,0.5-0.2,1-0.4,1.5
	c-0.1,0.1-0.2,0.1-0.5,0c-0.2-0.2-0.5-0.4-0.5-0.8c-0.1-0.5,0-1.1,0-1.6s0.2-1,0.4-1.5c0.2-0.6,0.3-1.3,0.4-1.9
	c0.2-0.7,0.4-1.4,0.6-2c0.1-0.4,0.3-0.8,0.4-1.2c0.2-0.6,0.4-1.2,0.6-1.9c0.1-0.5,0.2-1,0.3-1.5c0-0.1,0-0.2,0.1-0.3
	c0.1-0.4,0.3-0.5,0.8-0.4c0.1,0,0.2,0,0.3,0.1c0.3,0.1,0.6,0.4,0.6,0.7c0,0.9-0.2,1.8-0.5,2.7L100.7,458.4L100.7,458.4
	C100.7,458.4,100.7,458.4,100.7,458.4z M219,327.1c0,0,19.7,11,41.5,11.3s31.7-6.3,31.7-6.3s-9.9,18.2-6.3,27.7s35,19.8,35,19.8
	s50.5,17.8,74.2,38.5c23.6,20.7,27.8,24.4,26.8,28.1s-13.9,29.8-23.9,36.2s-16.2,6.2-16.2,6.2s-21.8-27.8-43.4-37.8
	s-71.7-27.4-74-28.1c-2.3-0.7-51.7-15.1-60.9-32.2c-9.2-17.1,1.6-40.9,1.6-40.9L219,327.1L219,327.1z"/>
<path class="st0" d="M198.2,390.4c-0.9-2.2,4,19.5,44.3,30.7c1.4,0.4-10.5,23.3-20.9,33.1c-2.4,2.3-27.1,24.7-32.8,28.2
	c-5.8,3.4-24,10.8-34.4,13c-10.4,2.2-50.4,7.4-55.1,4s1.9-43.6,8.2-48.7s13.3-2.1,25.3-4.2c12-2,28.1-8.7,28.1-8.7l26.1-30.1
	L198.2,390.4L198.2,390.4L198.2,390.4z M295.4,325.9c-0.6,0.8-1.2,1.6-1.8,2.4c-0.2,0.3-0.4,0.6-0.7,0.9c-0.9,0.9-1.8,1.8-2.8,2.5
	c-0.4,0.4-0.9,0.7-1.3,1c-0.3,0.2-0.6,0.4-0.9,0.5c-0.3,0.1-0.7,0.2-1,0.4c-0.2,0.1-0.2,0-0.1-0.2s0.3-0.5,0.6-0.8
	c0.5-0.5,1-0.9,1.5-1.3s1-0.9,1.5-1.4c0.6-0.5,1-1.3,1.5-2c0.5-0.8,1-1.5,1.5-2.4c0.3-0.5,0.5-1,0.8-1.5c0.4-0.8,0.8-1.6,1-2.4
	c0.2-0.6,0.2-1.3,0.4-2c0-0.1,0-0.3,0.1-0.4c0.1-0.5,0.3-0.6,0.9-0.6c0.1,0,0.3,0,0.4,0c0.5,0.1,0.8,0.4,0.8,0.8
	c0.1,1.3-0.3,2.6-0.8,3.8C296.4,324.2,295.9,325.1,295.4,325.9L295.4,325.9L295.4,325.9L295.4,325.9z M224.7,318.4
	c0.7-1,1.3-2.1,2.1-3.1c0.3-0.4,0.5-0.8,0.8-1.1c1-1.3,2-2.5,3.1-3.8c0.5-0.5,0.9-1.1,1.4-1.6c0.6-0.7,1.2-1.4,1.9-1.9
	c0.2-0.2,0.3,0,0.3,0.2c0,0.3-0.1,0.8-0.4,1.2c-1,1.6-1.7,3.2-2.9,4.5c-0.7,0.9-1.2,1.9-1.7,2.8c-0.6,1.1-1.2,2.1-1.9,3.2l-1.1,2
	c-0.6,1-1.2,2-1.7,3c-0.4,0.8-0.7,1.7-1,2.5c-0.1,0.2-0.1,0.4-0.2,0.6c-0.4,0.7-0.6,0.8-1.3,0.5c-0.2-0.1-0.3-0.1-0.5-0.2
	c-0.5-0.2-0.8-0.8-0.6-1.3c0.4-1.5,1.2-3,1.9-4.4C223.4,320.5,224,319.4,224.7,318.4L224.7,318.4L224.7,318.4L224.7,318.4z
	 M131.6,321.7c-0.7,0.6-1.4,1.1-2.1,1.8c-0.2,0.2-0.5,0.5-0.7,0.7c-0.9,0.8-1.8,1.5-2.7,2.3c-0.4,0.3-0.8,0.7-1.2,1
	c-0.2,0.2-0.5,0.5-0.8,0.7c-0.1,0.1-0.3,0.2-0.4,0.3c-0.2,0.1-0.4,0.1-0.5,0.1c-0.2,0-0.2-0.1-0.2-0.4c0-0.2,0.1-0.4,0.1-0.5
	c0-0.2,0.1-0.3,0.3-0.5c0.9-0.9,1.9-1.8,3-2.6c0.7-0.5,1.2-1.1,1.8-1.7c0.7-0.6,1.4-1.2,2.1-1.9l1.3-1.1c0.7-0.6,1.4-1.1,2-1.6
	l0.8-0.7c0.3-0.2,0.5-0.5,0.8-0.6c0.1-0.1,0.2-0.2,0.4-0.3c0.6-0.3,0.8-0.2,1,0.2c0.1,0.1,0.1,0.2,0.1,0.3c0.1,0.3,0,0.7-0.3,0.9
	c-0.9,0.7-1.8,1.4-2.6,2C133.1,320.6,132.3,321.1,131.6,321.7L131.6,321.7L131.6,321.7L131.6,321.7z M163.9,315.9
	c-0.5-0.7-1.1-1.4-1.6-2.1c-0.2-0.2-0.5-0.5-0.7-0.7c-0.8-0.9-1.6-1.7-2.4-2.5c-0.4-0.4-0.8-0.7-1.2-1c-0.5-0.4-1.1-0.7-1.5-1.3
	c-0.1-0.2,0-0.3,0.2-0.4c0.2-0.1,0.7-0.2,1.1,0c1.2,0.6,2.4,1.4,3.4,2.4c0.6,0.6,1.3,1.1,1.9,1.7c0.7,0.6,1.3,1.3,2,2
	c0.4,0.4,0.8,0.9,1.1,1.3c0.6,0.7,1.1,1.4,1.6,2.1c0.4,0.5,0.9,1,1.4,1.5c0.1,0.1,0.2,0.2,0.3,0.3c0.3,0.5,0.3,0.7-0.2,1.1
	c-0.1,0.1-0.2,0.2-0.3,0.3c-0.4,0.3-0.8,0.3-1.1,0c-0.9-0.8-1.6-1.7-2.3-2.6C164.8,317.4,164.4,316.7,163.9,315.9L163.9,315.9
	L163.9,315.9L163.9,315.9z"/>
<path class="st0" d="M162,324.2c0,0,9.1,10.2,12.4,8.2c3-1.9-4.7-12.3-5.7-13.2C167.7,318.4,162,324.3,162,324.2L162,324.2
	L162,324.2z M153.4,311.9c-0.1,0.1-3.8-4.6-2.7-7s7.4,3.1,7.4,3.1L153.4,311.9L153.4,311.9z M233,288.5c1.7-0.6,3.4-1.1,5.1-1.6
	c0.6-0.2,1.2-0.4,1.9-0.5c2.2-0.5,4.5-1,6.8-1.3l3-0.4c0.6-0.1,1.3-0.1,1.9-0.1c0.6,0,1.3,0.2,2,0.3c0.4,0.1,0.3,0.2,0,0.4
	c-0.2,0.2-0.5,0.3-0.7,0.5c-0.1,0.1-0.3,0.2-0.4,0.3c-0.1,0-0.2,0.1-0.2,0.1l-0.3,0.1c-1.2,0.4-2.5,0.5-3.8,0.6
	c-0.6,0.1-1.3,0.2-1.9,0.2s-1.3,0.1-1.9,0.2c-0.8,0.1-1.6,0.2-2.3,0.5c-0.8,0.2-1.6,0.4-2.3,0.6c-1.7,0.4-3.4,0.9-5.1,1.5
	c-1,0.3-2.1,0.7-3.1,1c-1.6,0.5-3.1,1.1-4.6,1.8c-1.2,0.5-2.3,1.1-3.4,1.6c-0.2,0.1-0.5,0.3-0.7,0.4c-0.9,0.4-1.3,0.5-1.6,0.2
	c-0.1-0.1-0.2-0.1-0.2-0.2c-0.2-0.2,0.1-0.6,0.7-1c1.9-1.2,4.1-2.2,6.3-3.2C229.7,289.8,231.4,289.1,233,288.5L233,288.5L233,288.5
	L233,288.5z M338.2,273.7c-2,1.4-4.1,2.8-6.3,4c-0.8,0.5-1.5,1-2.3,1.4c-2.8,1.5-5.7,2.9-8.6,4.1c-1.3,0.6-2.6,1.1-3.9,1.6
	c-0.8,0.3-1.7,0.6-2.5,0.9c-0.4,0.1-0.9,0.2-1.3,0.3c-0.4,0.1-0.9,0.2-1.4,0.2c-0.6,0-0.5,0-0.1-0.4c0.4-0.4,1.1-1,2-1.5
	c0.8-0.5,1.6-0.8,2.4-1.1l2.4-1.1c1.6-0.7,3.3-1.5,4.9-2.2c2-0.9,3.9-2.1,5.8-3.2c2.1-1.3,4.1-2.6,6.1-4c1.2-0.8,2.5-1.7,3.6-2.6
	c0.9-0.7,1.8-1.4,2.7-2.1c0.9-0.7,1.7-1.5,2.5-2.2c0.6-0.6,1.2-1.2,1.8-1.9c0.6-0.6,1.1-1.3,1.7-2c0.2-0.3,0.5-0.6,0.7-0.9
	c1-1.1,1.4-1.3,2.1-1.1c0.2,0,0.3,0.1,0.5,0.1c0.5,0.2,0.4,0.9-0.2,1.8c-1.8,2.7-4.2,5.1-6.7,7.3c-0.9,0.8-1.9,1.6-2.9,2.4
	C340.2,272.2,339.2,273,338.2,273.7L338.2,273.7L338.2,273.7L338.2,273.7z M378.4,182.2c-0.9-0.5-1.8-1.1-2.7-1.6
	c-0.3-0.2-0.7-0.4-1-0.6c-1.1-0.8-2.1-1.6-3.2-2.5c-0.5-0.4-0.9-0.8-1.4-1.1c-0.6-0.5-1.1-1-1.6-1.6c-0.1-0.2,0-0.3,0.2-0.3
	c0.2,0,0.7,0.1,1,0.3c0.6,0.4,1.3,0.8,1.9,1.2c0.6,0.4,1.2,0.8,1.8,1.3c0.7,0.6,1.6,0.9,2.4,1.3c0.9,0.5,1.8,1,2.7,1.4
	c0.6,0.3,1.1,0.6,1.7,0.8c0.9,0.4,1.7,0.8,2.6,1c0.7,0.2,1.4,0.2,2.1,0.4c0.2,0,0.3,0,0.5,0.1c0.6,0.1,0.7,0.3,0.7,0.9
	c0,0.1,0,0.3,0,0.4c-0.1,0.5-0.4,0.8-0.9,0.8c-0.7,0-1.4,0-2.1-0.1c-0.7-0.2-1.4-0.4-2-0.7C380.3,183.2,379.3,182.7,378.4,182.2
	L378.4,182.2L378.4,182.2L378.4,182.2z"/>
<path class="st0" d="M386.9,175.2c0,0,8.8,6.6,8.7,10.9c-0.1,4.3-12.7-1.7-12.7-1.7L386.9,175.2z M372.2,168.9
	c-1-0.4-7.8-3.8-12.2-1.9l10,9.1L372.2,168.9L372.2,168.9z M295.5,157.9c10.5-5.4,16.4-19.7,11.4-28.8c-3.9-7.2-13.2-8.9-23.1-5.1
	c0,0-9.2,4.8-12.9,9.6s-4.9,7.8-4.9,7.8s-10-9.1-20.8-3.9s-13.4,14.1-13.4,17.5s1.1,11,2.6,13.3s2.9,4.4,2.9,4.4s-8.5,0.1-12.5,5
	c-4,5-4.5,10.9-3.1,14.8c1.4,4,5.5,15.6,16.3,17.8s7.4,4.3,7.3,4.9c-0.1,0.6,1.9,10.7,8.4,12.4s11.9,0.5,14.2-1.3s4.8-3,5.3-6.5
	c0.5-3.4-0.5-8.7-0.5-8.7l-3.4-2.9c0,0-6.1,0.4-8.3-5.3s0.5-9.1,2.2-10.3s3.4-1.8,5.8,0s6.5,6.8,8,6.3s3.3-2.4,2.6-4
	s-5.8-9.8-6.5-11.6s-2.9-6.6-0.9-10.2c1.9-3.5,7.2-8.4,7.2-8.4l10.3-5.4L295.5,157.9L295.5,157.9L295.5,157.9z M86.3,453.7
	c-2.2-0.4-4.4-0.9-6.5-1.3c-0.8-0.2-1.6-0.2-2.4-0.4l-4.2-0.9l-4.2-1c-1.2-0.3-2.5-0.6-3.7-0.8c-1.6-0.3-3.2-0.7-4.7-1.2
	c-0.5-0.2-0.3-0.4,0.1-0.6c0.5-0.2,1.3-0.4,2.2-0.4c3.3,0.3,6.5,0.8,9.8,1.4c1.9,0.4,4,0.6,6,0.9l6.6,1l4.1,0.7
	c2.1,0.3,4.1,0.7,6.2,0.9c1.6,0.2,3.2,0.2,4.8,0.3c0.3,0,0.7,0,1.1,0c1.3,0.1,1.7,0.5,1.8,1.4c0,0.2,0.1,0.4,0.1,0.6
	c0,0.7-0.6,1.2-1.6,1.2c-2.9,0.1-5.8-0.2-8.8-0.7C90.7,454.5,88.5,454.1,86.3,453.7L86.3,453.7L86.3,453.7L86.3,453.7z"/>
<path class="st0" d="M59.2,485.3c0,1,0,1.9,0.2,2.6c0,0.2,0.1,0.3,0.3,0.3c0.1,0,0.1,0,0.2,0l0.2-0.1c0.1-0.1,0.2-0.2,0.3-0.2
	c0.5-0.4,0.9-0.9,1.3-1.4c0.9-1.1,1.7-2.3,2.4-3.5c0.9-1.6,1.8-3.2,2.6-4.9c1.6-2.9,3.1-5.9,4.7-8.8c0.8-1.5,1.7-2.9,2.7-4.3
	c0.5-0.7,1.1-1.4,1.8-2.1c0.2-0.2,0.4-0.3,0.6-0.5c0.2-0.2,0.5-0.3,0.7-0.4c0.2-0.1,0.6-0.2,0.9-0.3c0.3,0,0.4,0,0.7-0.1
	c3-0.2,6.1-0.1,9.1,0.3c1.9,0.3,3.8,0.7,5.6,1.4c0.5,0.1,0.9,0.4,1.4,0.5c0.4,0.2,0.9,0.4,1.3,0.7c0.4,0.2,0.9,0.5,1.3,0.8
	c0.4,0.3,0.7,0.7,1.1,1c0.8,1,0.6,0.8-0.3,0.5c-1.1-0.2-2.9-0.3-4.9-0.8c-1.8-0.5-3.6-0.8-5.4-1c-1.8-0.2-3.6-0.4-5.4-0.4
	c-0.9,0-1.8,0-2.7,0.1l-0.7,0l-0.3,0h-0.2l0,0h0c0,0.1-0.1-0.7,0-0.4v0.2c0.1,0.2,0.1,0.2,0.1,0.2c0,0-0.1,0-0.1,0.1
	c-0.1,0-0.2,0.1-0.3,0.2c-0.5,0.4-1.1,1-1.6,1.7c-0.5,0.7-1.1,1.5-1.6,2.2c-2.4,3.8-4.3,8.3-6.6,12.5c-1,1.9-2.1,3.7-3.3,5.5
	c-0.6,0.9-1.3,1.8-2.1,2.6c-0.4,0.4-0.8,0.8-1.4,1.2c-0.3,0.2-0.7,0.4-1,0.6c-0.2,0.1-0.4,0.1-0.6,0.2l-0.6,0.1
	c-0.4,0-0.8,0-1.2-0.1c-0.4-0.1-0.7-0.3-1-0.6c-0.6-0.5-1-1.2-1.2-2c-0.5-1.9-0.5-3.5-0.4-5.2c0.1-1.7,0.3-3.3,0.6-4.9
	c0.9-4.9,2.3-9.6,3.9-14.2c1.3-3.6,2.5-7.1,4.3-10.5c0.4-0.7,0.8-1.5,1.2-2.2c1.8-2.6,2.8-3.2,3.9-3.1c0.2,0,0.5,0,0.7,0.1
	c0.3,0.1,0.3,0.5,0.1,1c-0.2,0.5-0.6,1.3-1.1,2.2c-3.2,5.4-5.6,11.8-7.5,18.3c-0.7,2.4-1.3,4.9-1.8,7.4
	C59.7,480.5,59.3,483,59.2,485.3L59.2,485.3C59.2,485.3,59.3,485.3,59.2,485.3z M424,472.9l4.9,2.4c0.6,0.3,1.2,0.5,1.8,0.8
	c2.1,1,4.2,2,6.3,3c0.9,0.4,1.9,0.8,2.9,1.2c1.2,0.5,2.4,1,3.6,1.8c0.4,0.2,0.2,0.4-0.2,0.5c-0.4,0.1-1.2,0.4-2,0.3l-1-0.1l-0.5-0.1
	l-0.5-0.1c-0.6-0.2-1.3-0.4-1.9-0.6c-1.3-0.4-2.6-0.9-3.8-1.5c-1.5-0.7-3.1-1.2-4.7-1.8c-1.7-0.7-3.4-1.4-5.1-2.2l-3.1-1.4
	c-1.6-0.7-3.1-1.5-4.7-2.1c-1.2-0.5-2.5-0.8-3.8-1.2c-0.3-0.1-0.6-0.1-0.8-0.3c-1-0.4-1.2-0.8-1-1.8c0-0.2,0.1-0.4,0.2-0.6
	c0.2-0.7,0.9-1.1,1.7-0.9c2.4,0.4,4.5,1.4,6.7,2.4C420.7,471.2,422.3,472,424,472.9L424,472.9L424,472.9z"/>
<path class="st0" d="M448.2,450.2c2-1.4,4-2.8,6.3-4c1.1-0.6,2.3-1.1,3.8-1.5c0.7-0.2,1.5-0.3,2.5-0.2c0.9,0.1,2,0.5,2.6,1.4
	c0.5,0.6,0.8,1.3,0.8,2.1c0,0.8-0.1,1.4-0.2,1.9c-0.3,1.1-0.7,2-1.2,2.8c-1.7,2.9-3.8,5.3-5.9,7.6c-2.1,2.3-4.4,4.5-6.7,6.6
	c-2.1,1.9-4.1,3.7-6.2,5.5c-1.4,1.1-2.8,2.2-4.2,3.2c-0.7,0.5-1.5,1-2.3,1.4c-0.8,0.4-1.6,0.8-2.5,1.1c-1.1,0.3-1,0.2-0.3-0.6
	c0.4-0.4,0.8-0.9,1.3-1.5c0.3-0.3,0.5-0.7,0.9-1c0.3-0.3,0.7-0.6,1.1-0.9c1.4-1.1,2.7-2.3,4-3.4c1.3-1.1,2.7-2.3,4-3.5
	c2.6-2.4,5.2-4.9,7.7-7.4c1.5-1.5,2.9-3.1,4.2-4.9c1.3-1.7,2.5-3.6,3.1-5.4c0.2-0.5,0.3-1,0.3-1.2c0-0.2-0.1-0.4-0.2-0.6
	c-0.1-0.1-0.4-0.2-0.8-0.2c-0.4,0-0.9,0.1-1.4,0.2c-2,0.6-4.1,1.9-6.1,3.2c-2.5,1.6-4.9,3.4-7.3,5.2c-1.8,1.3-3.7,2.7-5.6,4
	c-1.9,1.3-3.9,2.5-6.1,3.5c-0.9,0.4-1.8,0.7-2.8,0.8c-1,0.1-1.9,0.1-2.9,0c-1.9-0.2-3.7-0.7-5.4-1.5c-0.7-0.3-1.5-0.7-2.2-1.1
	c-2.6-1.5-3.1-2.4-3.1-3.4c0-0.2,0-0.5,0-0.7c0.2-0.7,1.5-0.4,3.2,0.5c2.6,1.4,5.3,2.7,8,2.9c0.3,0,0.7,0,1,0c0.3,0,0.7,0,0.9-0.1
	c0.5-0.1,1.1-0.3,1.8-0.5c1.3-0.5,2.6-1.3,3.9-2.1C440.3,456,444.1,453,448.2,450.2L448.2,450.2L448.2,450.2L448.2,450.2z"/>
<path class="st0" d="M358.8,393.9c10.7,5.6,21.2,11.7,31.3,18.4c3.7,2.4,7.4,4.9,10.9,7.6c4.2,3.2,8.3,6.6,12.1,10.3
	c1,0.9,1.9,1.9,2.8,2.9c0.9,1,1.8,2,2.6,3c0.4,0.5,0.8,1.1,1.2,1.6c0.4,0.5,0.8,1.1,1.2,1.7c0.4,0.6,0.8,1.1,1.1,1.7l1.1,1.9
	c0.1,0.2,0.1,0.5,0.2,0.7c0.1,0.2,0,0.5,0.1,0.7c0,0.3,0,0.5,0,0.6c0,0.2,0,0.4-0.1,0.5c-0.1,0.7-0.3,1.3-0.5,2
	c-0.4,1.3-0.8,2.5-1.3,3.7c-0.9,2.4-2,4.7-3.2,7c-3.2,6.2-7.1,12-11.6,17.3c-2.9,3.3-6.1,6.5-9.8,9.1c-1.8,1.3-3.7,2.5-5.7,3.5
	c-1,0.5-2,1-3,1.4c-1,0.4-2.1,0.8-3.2,1.1c-2.7,0.8-2.4,0.3-0.5-1c2-1.4,5.3-3.8,9.2-6.7c6.5-4.8,12-10.9,16.6-17.7
	c2.3-3.4,4.4-6.9,6.1-10.6c0.9-1.8,1.7-3.7,2.4-5.6c0.3-0.9,0.7-1.9,0.9-2.8c0.1-0.5,0.2-0.9,0.3-1.3l0-0.4c0,0,0-0.1,0-0.2
	c-0.2-0.4-0.5-0.9-0.7-1.3c-0.2-0.5-0.6-0.9-0.9-1.4c-1.4-2.1-3.1-4.1-5-6.1c-1.9-1.9-3.8-3.8-5.9-5.6c-4.1-3.6-8.5-6.9-13-10
	c-9.8-7-20.2-13.2-30.8-19c-6.5-3.6-13.1-7-19.9-10.2c-5.1-2.4-10.2-4.8-15.4-6.9s-10.5-4.1-15.7-6.1c-4.1-1.5-8.2-3-12.2-4.6
	c-4-1.7-8-3.5-11.6-6.4c-0.4-0.3-0.8-0.7-1.1-1c-0.4-0.3-0.8-0.7-1.1-1.1s-0.7-0.8-1-1.2c-0.3-0.5-0.6-0.9-0.9-1.4
	c-1-1.8-1.3-3.4-1.5-4.8c-0.2-1.3-0.2-2.4-0.1-3.3c0.2-1.8,0.7-2.7,1.3-3.4c0.3-0.3,0.6-0.7,0.8-0.9c0.4-0.2,0.5,0.4,0.6,1.6
	c0.2,1.2,0.2,3.1,0.8,5.4c0.4,1.7,1.1,3.3,2,4.5c1,1.3,2.4,2.5,3.8,3.5c3,2.1,6.5,3.7,10.1,5.2c7.3,3,15,5.6,22.6,8.6
	C336.9,383,347.9,388.2,358.8,393.9L358.8,393.9L358.8,393.9L358.8,393.9z M263.8,339.8c-4-0.1-7.9-0.5-11.8-1
	c-1.4-0.2-2.9-0.3-4.3-0.6c-5-0.9-9.9-2.2-14.7-3.9l-3.2-1.1c-1-0.4-2.1-0.8-3.1-1.2c-1.3-0.5-2.6-1.1-3.9-1.8
	c-0.6-0.3-1.3-0.7-1.9-1.1c-0.3-0.2-0.6-0.4-0.9-0.6c-0.3-0.2-0.5-0.5-0.8-0.8c-0.6-0.8-0.5-0.6,0.4-0.6c0.9-0.1,2.4-0.1,3.9,0.5
	c2.6,1.1,5.2,2.1,7.9,3c2.6,1,5.3,1.9,8.1,2.7c3.3,1,6.8,1.5,10.3,2c3.8,0.5,7.7,0.9,11.5,1.1c2.4,0.1,4.8,0.1,7.1,0
	c3.6-0.2,7.2-0.5,10.7-1.3c2.7-0.6,5.2-1.6,7.6-2.8c0.5-0.2,1-0.6,1.5-0.8c0.5-0.2,0.9-0.5,1.2-0.6c0.3-0.2,0.6-0.2,0.9-0.3
	c0.5-0.1,0.9-0.1,1.3,0.1c0.2,0.1,0.4,0.1,0.6,0.2c0.3,0.2,0.3,0.5,0.1,1s-0.6,1.1-1.4,1.6c-2.1,1.6-4.6,2.8-7.2,3.7
	c-2.6,0.9-5.3,1.5-8,1.9C271.9,339.8,267.8,340,263.8,339.8L263.8,339.8L263.8,339.8z M120,327.3c-0.7,0.5-1.4,1.1-2.1,1.6l-0.3,0.2
	l-0.1,0.1h0l-0.1,0.1c-0.1,0.1-0.2,0.1-0.3,0.2c-0.2,0.1-0.2,0.2-0.3,0.4c-0.1,0.1-0.3,0.4-0.3,0.5c0.1,0.2,0.4,0.2,0.6,0.1
	c0.3-0.1,0.6-0.2,1-0.4l0.2-0.1l0.3-0.2l0.7-0.4c0.5-0.3,0.9-0.5,1.4-0.8c0.6-0.4,1.2-0.7,1.9-1c0.3-0.1,0.7-0.3,1.1-0.3
	c0.2,0,0.4,0,0.7,0.1c0.2,0,0.5,0.2,0.7,0.4c0.3,0.1,0.3,0.4,0.3,0.4c-0.1,0.1-0.3,0.1-0.4,0.2c-0.2,0.1-0.3,0.6-0.4,0.9
	c-0.1,0.2-0.1,0.4-0.2,0.6c-0.1,0.1-0.2,0.2-0.3,0.3c-1.1,0.5-2.3,1.2-3.5,1.9l-0.9,0.5c-0.5,0.3-1.2,0.6-1.7,0.9
	c-1.2,0.6-2.3,1-3,1c-0.5,0-0.9,0-1.3-0.1c-0.4-0.1-0.8-0.2-1.2-0.6c-0.3-0.5-0.4-0.8-0.3-1.1c0-0.4,0.1-0.7,0.3-1.2
	c0.4-1,1.5-2.2,2.6-3.2c0.3-0.3,0.6-0.5,0.8-0.8l0.6-0.5c0.4-0.3,0.8-0.6,1.1-0.9c0.9-0.7,1.9-1.4,2.9-2c1.5-1,3.2-1.8,4.9-2.4
	c0.7-0.2,1.3-0.5,2.1-0.7c0.8-0.1,1.6-0.1,2.3,0.1c0.3,0.1,0.7,0.2,1,0.3c0.6,0.3,0.9,0.6,1.1,0.9c0.2,0.3,0.1,0.6,0,0.9
	c-0.1,0.1-0.1,0.3-0.2,0.4c-0.3,0.3-0.8,0.2-1.4,0.1c-0.9-0.3-1.9-0.4-2.7-0.3c-0.3,0.1-0.9,0.3-1.4,0.5c-0.5,0.2-1.1,0.4-1.6,0.7
	C123,325.4,121.5,326.3,120,327.3L120,327.3L120,327.3L120,327.3z"/>
<path class="st0" d="M122.1,320.8c-1,0.6-2,1.2-3,1.9c-0.5,0.3-1,0.6-1.4,1l-0.2,0.1c-0.1,0-0.1,0.1-0.1,0.1l-0.1,0l-0.2,0.1
	c-0.2,0.1-0.3,0.3-0.5,0.5c-0.1,0.1-0.1,0.2-0.1,0.3c0.1,0.1,0.1,0.1,0.2,0.1c0.2,0,0.4,0,0.7,0c0.1,0,0.3-0.1,0.4-0.1l1-0.4
	l2.1-0.9c1.3-0.5,2.6-1.1,3.9-1.6c0.9-0.3,1.8-0.6,2.8-0.6c0.5,0,1,0,1.5,0.2c0.2,0.1,0.5,0.2,0.7,0.3c0.2,0.1,0.4,0.3,0.6,0.5
	c0.4,0.6,0.2,0.5-0.4,0.7c-0.3,0.1-0.7,0.2-1,0.3c-0.3,0.1-0.7,0.2-1.1,0.3c-1.3,0.1-2.9,0.7-4.5,1.3c-0.8,0.4-1.6,0.7-2.4,1.1
	l-1.3,0.5l-1.5,0.6c-1.8,0.7-3.5,1-4.6,0.7c-0.6-0.1-1.2-0.4-1.4-1.1c-0.2-0.6,0-1.1,0.3-1.7c0.3-0.6,0.9-1.3,1.7-1.9
	c0.7-0.6,1.7-1.4,2.1-1.6c1-0.7,2.1-1.4,3.1-2c1.3-0.8,2.6-1.5,3.9-2.3c1-0.6,2.1-1.1,3.1-1.5c0.5-0.2,1.2-0.5,1.8-0.6
	c0.6-0.1,1.2-0.2,1.8-0.2c1.9,0,3.6,0.2,5.4,0.7c0.4,0.1,0.8,0.2,1.1,0.3c1.4,0.5,1.8,0.9,1.8,1.6c0,0.2,0,0.3,0,0.5
	c-0.1,0.5-0.8,0.6-1.8,0.4c-1.4-0.3-2.9-0.7-4.4-0.9c-1.4-0.2-2.9-0.2-4,0.1c-0.8,0.3-2,0.9-3,1.4
	C124.1,319.6,123.1,320.2,122.1,320.8L122.1,320.8L122.1,320.8L122.1,320.8z M255.5,225.9c2.5,0.7,5.2,0.9,7.9,0.4
	c0.5-0.1,0.9-0.2,1.4-0.4c0.2-0.1,0.5-0.1,0.7-0.2c0.2-0.1,0.4-0.2,0.6-0.3c1.5-0.6,3-1.5,4.2-2.7c1.2-1.2,2.1-2.7,2.5-4.4
	c0.4-1.5,0.3-3-0.1-4.5c-0.6-1.9-1.7-3.5-2.9-5.2c-0.4-0.6-0.3-0.5,0.2-0.3c0.5,0.2,1.8,0.4,2.8,1.4c0.2,0.2,0.4,0.4,0.6,0.7
	c0.2,0.2,0.4,0.5,0.6,0.7c0.4,0.5,0.6,1.1,0.9,1.7c0.2,0.6,0.4,1.2,0.6,1.8c0.1,0.6,0.2,1.3,0.2,1.9c0,2.6-0.9,5.1-2.4,7l-0.7,0.9
	l-0.8,0.8c-0.5,0.6-1.1,1-1.7,1.5c-0.6,0.4-1.3,0.8-1.9,1.2c-0.7,0.3-1.4,0.6-2,0.9c-3.1,1-6.3,1.1-9.4,0.6
	c-1.9-0.3-3.8-0.9-5.5-1.8c-2.6-1.3-4.9-3.5-6.1-6.3c-0.9-2.1-1.3-4.6-0.9-6.8c0.1-0.5,0.1-1,0.3-1.5c0.3-0.9,0.6-1.5,0.9-1.8
	c0.3-0.3,0.7-0.4,1.1-0.4c0.2,0,0.4,0,0.6,0c0.6,0.1,0.8,1,0.6,2.1c-0.7,3.4-0.4,6.6,1.6,9.1C250.7,223.8,253,225.2,255.5,225.9
	L255.5,225.9L255.5,225.9L255.5,225.9z"/>
<path class="st0" d="M227.1,205.2c-1.5-1.4-2.7-3-3.8-4.7c-1.1-1.7-1.9-3.5-2.5-5.4l-0.3-1l-0.3-1.1c-0.2-0.7-0.3-1.4-0.4-2.2
	c-0.6-5.1,1-10.6,4.7-14.2c1.6-1.6,3.4-3,5.4-4c1.3-0.6,2.7-1.2,4.2-1.4c0.8,0,1.6,0,2.3,0.3c0.8,0.3,1.5,0.7,1.9,1.3
	c0.6,0.8,0.4,0.7-0.4,0.6c-0.4-0.1-1,0.1-1.5,0.2c-0.6,0.2-1.1,0.4-1.7,0.6c-0.3,0.1-0.5,0.1-0.8,0.2c-0.3,0.1-0.5,0.1-0.8,0.2
	l-0.8,0.3l-0.8,0.4c-1.1,0.5-2.1,1.2-3.1,1.9s-1.9,1.6-2.7,2.5c-0.2,0.2-0.4,0.5-0.6,0.7c-0.2,0.2-0.4,0.5-0.5,0.8
	c-0.3,0.5-0.7,1.1-0.9,1.6c-1.4,2.7-1.4,6.1-0.7,9.1c0.7,3.4,2.3,6.7,4.6,9.4c1.4,1.7,3,3.1,4.9,4.3c2.8,1.8,6,3.1,9.3,3.8
	c2.6,0.5,5.2,0.6,7.7,0.5c0.6,0,1.1-0.1,1.7-0.1c2.1-0.1,2.8,0.1,3.3,0.9c0.1,0.2,0.3,0.3,0.4,0.5c0.3,0.5-0.6,1.2-2.2,1.5
	c-4.8,0.8-10.2,0.5-15.3-1.2C233.7,210,230.1,208.1,227.1,205.2L227.1,205.2L227.1,205.2L227.1,205.2z"/>
<path class="st0" d="M241.6,141.8c-0.8,0.4-1.4,1-2,1.6c-0.6,0.6-1.2,1.2-1.7,1.9l-0.8,1c-0.2,0.4-0.5,0.8-0.7,1.1
	c-0.2,0.4-0.5,0.7-0.7,1.1l-0.5,1.2c-0.1,0.3-0.3,0.6-0.4,0.9l-0.3,0.9c-0.2,0.6-0.4,1.2-0.5,1.9l-0.4,1.7c-0.1,0.6-0.1,1.1-0.2,1.7
	c0,0.3-0.1,0.6-0.1,0.9v0.9c0,0.6,0,1.1,0.1,1.7c0.1,2.3,0.7,4.6,1.6,6.7c0.5,0.9,0.9,1.9,1.5,2.7l0.9,1.2l1.1,1.1
	c0.2,0.2,0.4,0.5,0.7,0.7l0.8,0.6c0.5,0.4,1,0.8,1.6,1.2c0.6,0.4,1.1,0.7,1.6,1.1c0.6,0.4,1.1,0.7,1.7,1.1c0.7,0.7,0.6,0.6-0.2,0.7
	c-0.4,0.1-1,0.1-1.7,0.1c-0.4,0-0.8,0-1.1-0.1c-0.4-0.1-0.8-0.3-1.2-0.4c-0.4-0.2-0.7-0.3-1.1-0.5c-0.3-0.2-0.6-0.4-0.9-0.7
	l-0.9-0.7c-0.3-0.2-0.6-0.5-0.9-0.7c-0.6-0.5-1.1-1.1-1.7-1.6l-1.4-1.9c-1.7-2.6-2.7-5.6-3.1-8.7c-0.4-3.6-0.4-7.5,0.7-11
	c1.2-3.9,3.3-7.5,6.3-10.3c1.9-1.7,4-3,6.3-3.9c3.4-1.5,7.2-2.1,11-1.9c2.9,0.2,5.8,0.8,8.4,2.3l0.9,0.5c0.3,0.2,0.5,0.4,0.8,0.6
	c0.5,0.4,0.9,0.7,1.2,1c0.3,0.3,0.5,0.6,0.6,0.9c0.3,0.5,0.2,0.9,0.1,1.4c-0.1,0.2-0.1,0.4-0.2,0.6c-0.3,0.5-1.4,0.3-2.6-0.6
	c-1.8-1.3-3.8-2.2-6-2.8c-2.1-0.6-4.4-0.7-6.8-0.5C247.9,138.7,244.5,139.9,241.6,141.8L241.6,141.8L241.6,141.8z M316.5,209.5
	c-1.5,3.1-3.7,5.8-6.2,8.1c-0.9,0.8-1.8,1.7-2.7,2.4c-1.7,1.3-3.5,2.4-5.3,3.4c-0.4,0.2-1,0.5-1.3,0.7c-0.2,0.1-0.5,0.4-0.8,0.8
	c-0.5,0.7-1,1.5-1.4,2.4c-0.7,1.6-1.2,3.3-1.5,5c-0.2,1.1-0.4,2.2-0.5,3.3c-0.1,0.6-0.1,1.1-0.2,1.7c-0.1,0.6-0.3,1.1-0.4,1.7
	c-0.2,0.7-0.4,0.6-0.9,0.1c-0.2-0.3-0.6-0.7-0.9-1.3c-0.1-0.3-0.3-0.6-0.4-0.9c-0.1-0.3-0.1-0.7-0.1-1c0.1-2.5,0.6-4.9,1.4-7.3
	c0.4-1.2,0.9-2.4,1.5-3.5c0.3-0.6,0.7-1.1,1.1-1.7c0.2-0.3,0.5-0.6,0.8-0.8c0.1-0.1,0.4-0.3,0.5-0.4c0.2-0.1,0.4-0.3,0.5-0.3
	c2.5-1.2,4.9-2.9,7-4.8c2.4-2,4.5-4.3,6-6.9c0.5-0.8,0.9-1.6,1.3-2.5c0.2-0.4,0.3-0.9,0.5-1.3l0.2-0.7l0.1-0.7
	c0.4-1.4,0.5-2.8,0.6-4.2c0-1.4-0.1-2.9-0.3-4.3c-0.4-2.2-1.2-4.3-2-6.4c-0.2-0.5-0.4-0.9-0.5-1.4c-0.5-1.8-0.5-2.4,0.2-3.1
	c0.2-0.1,0.3-0.3,0.5-0.4c0.5-0.4,1.4,0.2,2,1.4c1,1.8,1.7,3.9,2.3,6s0.9,4.4,1,6.7c0.1,1.7-0.1,3.5-0.4,5.3
	c-0.2,0.9-0.4,1.8-0.7,2.6C317.3,207.9,317,208.8,316.5,209.5L316.5,209.5L316.5,209.5L316.5,209.5z"/>
<path class="st0" d="M303.4,172.4c1.6,1.2,3.7,2.2,5.8,3c0.8,0.3,1.6,0.5,2.4,0.8l3.1,1c0.2,0.1,0.7,0.2,1.1,0.4
	c0.4,0.2,0.8,0.3,1.1,0.5c0.2,0.1,0.3,0.2,0.4,0.3c0.1,0.1,0.1,0.1,0.2,0.2c0,0.1,0,0.2,0,0.2c0,0.3,0.1,0.6,0,1.1
	c-0.3,0.7-0.5,1.4-0.9,2c-0.2,0.4-0.5,0.8-0.7,1.2c-0.7,1.2-1.5,2.4-2.4,3.5c-0.5,0.7-1.1,1.4-1.8,2c-0.4,0.3-0.7,0.6-1.1,0.8
	c-0.2,0.1-0.4,0.2-0.6,0.3c-0.2,0.1-0.5,0.1-0.7,0.2c-0.6,0.1-0.5-0.1-0.2-0.5c0.1-0.2,0.3-0.6,0.5-1c0.2-0.4,0.4-0.7,0.7-1.1
	c0.9-1.1,1.8-2.3,2.6-3.6c0.4-0.6,0.8-1.3,1.1-2c0.1-0.2,0.2-0.3,0.2-0.5l0.1-0.2c0-0.1,0-0.1,0.1-0.1c0,0,0.1-0.1,0.2-0.2
	c0.1-0.1,0.1-0.2,0.2-0.3c0-0.1-0.2-0.2-0.3-0.3c0,0-0.1,0-0.1-0.1l-0.4-0.1l-0.8-0.2c-1.1-0.3-2.1-0.5-3.2-0.9
	c-2.3-0.7-4.7-1.6-6.9-2.8c-0.7-0.4-1.4-0.8-2-1.4c-0.6-0.5-1.3-1.2-1.7-1.9c-1.4-2.2-1.6-4.9-1-7.3c0.5-1.8,1.2-3.6,2.3-5.1
	c0.3-0.3,0.5-0.6,0.8-0.9c1.1-1.1,1.8-1,2.4-0.6c0.1,0.1,0.3,0.2,0.4,0.3c0.2,0.2,0.2,0.4,0.2,0.8c0,0.3-0.2,0.8-0.4,1.2
	c-1.6,2.3-2.9,4.7-2.8,7c0,0.9,0.2,1.7,0.6,2.4c0.1,0.2,0.2,0.4,0.3,0.6c0.1,0.2,0.2,0.3,0.3,0.4C302.7,171.7,303.1,172,303.4,172.4
	L303.4,172.4L303.4,172.4L303.4,172.4z M295.3,246.6c-3.6,1-7.5,1-11,0.4c-3.6-0.6-7-1.7-10.2-2.7s-6.5-2-9.7-2.6
	c-1.6-0.3-3.2-0.4-4.8-0.4c-1.6,0-3.3,0.1-5,0.3c-4.8,0.5-9.6,1.8-14.3,3.4c-8.2,2.7-16.1,6.6-23.8,10.9c-7.6,4.3-15,9.2-22.2,14.2
	c-6.4,4.5-12.7,9.2-18.9,14c-4,3-7.9,6.1-12,9.1c-1,0.7-2.1,1.5-3.1,2.2c-1.1,0.7-2.1,1.4-3.2,2c-2.2,1.3-4.5,2.5-7.1,3.1
	c-1.7,0.3-2.5-0.1-2.4-0.2c0.1-0.1,0.9-0.2,2-0.9c2.3-1.3,5.8-4.4,10.4-7.8c8.2-5.9,16.2-12.3,24.5-18.3c8.3-6.1,16.7-12,25.7-17.2
	c5.4-3.1,10.9-6.2,16.6-9s11.8-5.2,18-6.8c3.4-0.9,6.9-1.6,10.4-1.9c3.5-0.4,7.2-0.2,10.7,0.5c7,1.3,13.4,4.5,20,5.2
	c4,0.4,8.1,0,11.9-1.7c3.8-1.7,7.4-3.8,10.8-6.3c5.1-3.8,9.7-8.3,14.1-13c2.2-2.4,4.3-4.8,6.4-7.2c2.1-2.4,4.1-4.9,5.9-7.5
	c5.8-8,10.4-16.6,14.3-25.5c0.4-1,0.8-2,1.2-2.9c0.4-1,0.8-2,1.2-3c2.8-7.5,3.8-9.8,5.2-11.2c0.3-0.3,0.6-0.8,0.9-0.9
	c0.4-0.3,0.5,0.4,0.4,1.9c-0.1,1.5-0.6,3.8-1.5,6.7c-2.7,8.5-6.5,16.9-11.1,25c-2.3,4.1-4.8,8-7.6,11.8c-2.7,3.8-5.8,7.5-9,11
	c-4.6,5.2-9.5,10.3-15,14.8c-2.8,2.3-5.7,4.4-8.8,6.2c-3.1,1.8-6.3,3.4-10,4.4L295.3,246.6L295.3,246.6L295.3,246.6z M370.8,236.8
	c-3.9,5.7-7.9,11.2-12.2,16.6c-1.6,1.9-3.1,3.9-4.8,5.8c-5.9,6.6-12.3,12.8-19.4,18.1c-3.2,2.3-6.5,4.5-10,6.3
	c-4.4,2.4-9.2,4.4-14.3,4.7c-1.6,0-1.4,0-0.2-0.7c0.3-0.2,0.6-0.4,1-0.6c0.1-0.1,0.2-0.1,0.3-0.2l0.3-0.2c0.2-0.1,0.5-0.2,0.7-0.4
	c0.5-0.3,1-0.5,1.6-0.8c0.6-0.3,1.2-0.6,1.8-0.9c9.1-3.7,17.2-9.4,24.9-16c4.6-3.9,8.7-8.7,12.7-13.5c4.4-5.2,8.5-10.7,12.4-16.3
	c2.4-3.4,4.8-6.9,7-10.5c3.5-5.4,6.8-10.8,10.1-16.3c2.5-4.2,4.8-8.5,7.4-12.7c0.6-0.9,1.1-1.8,1.8-2.7c1.2-1.7,2.2-2.7,3-3.3
	c0.8-0.6,1.5-0.8,2.1-0.7c0.3,0,0.6,0.1,0.8,0.2c0.3,0.2,0.1,0.5-0.2,1.1s-1,1.4-1.8,2.6c-2.4,3.4-4.6,7.3-6.9,11.2
	c-2.3,3.9-4.6,7.9-7,11.8C378.4,225.3,374.7,231.1,370.8,236.8L370.8,236.8L370.8,236.8L370.8,236.8z M386.1,173
	c0.9-1.3,2-2.6,3.1-3.7c0.4-0.4,0.7-0.8,1.1-1.2c1.4-1.3,2.8-2.6,4-4.1c0.5-0.6,1-1.4,1.4-2.1c0.3-0.4,0.5-0.9,0.7-1.4
	c0.2-0.5,0.5-0.9,0.8-1.4c0.2-0.3,0.4-0.2,0.7,0.2c0.1,0.2,0.3,0.5,0.4,0.8c0.1,0.3,0.1,0.6,0,1c-0.4,1.1-0.8,2.3-1.5,3.3
	c-0.7,1-1.5,1.9-2.3,2.7c-1,0.9-1.9,2.1-2.8,3.1c-1,1.1-2,2.1-2.8,3.3c-0.5,0.7-1,1.5-1.4,2.3c-0.7,1.2-1.3,2.5-1.8,3.8
	c-0.4,1-0.6,2.1-0.9,3.1c-0.1,0.2-0.1,0.5-0.2,0.7c-0.1,0.4-0.3,0.7-0.6,0.8c-0.2,0.1-0.5,0.1-0.8,0.1c-0.1,0-0.3,0-0.4-0.1
	c-0.5-0.1-0.7-0.6-0.8-1.3c0.2-2,0.9-3.9,1.8-5.8C384.4,175.7,385.2,174.4,386.1,173L386.1,173L386.1,173L386.1,173z M222.1,296.6
	l-1.5,0.8l-1.5,0.9c-1,0.6-2,1.3-2.9,2c-1.9,1.4-3.8,2.9-5.7,4.4c-1.4,1.1-2.6,2.3-4,3.5c-4.7,4.1-9.3,8.3-13.6,12.8
	c-1.9,2-3.7,4.1-5.4,6.3c-2.2,2.8-4.3,5.6-6.4,8.4c-0.8,0.8-0.7,0.7-0.5-0.3c0.1-0.5,0.3-1.2,0.5-2c0.2-0.8,0.6-1.7,1.2-2.6
	c0.9-1.6,2-3.1,3-4.6c1.1-1.4,2.2-2.9,3.5-4.3c2.4-2.8,4.9-5.5,7.6-8c3.2-3,6.4-6.3,9.7-9.3c3.7-3.3,7.5-6.4,11.7-9.2
	c0.6-0.4,1.3-0.9,2-1.2l1.1-0.6l1.1-0.5c1.4-0.6,2.9-1.1,4.4-1.6c4.4-1.5,8.9-2.6,13.4-3.6c3.5-0.8,6.9-1.7,10.4-2.2
	c0.8-0.1,1.5-0.2,2.3-0.3c1.5-0.1,2.5-0.1,3.2,0.1c0.7,0.2,1.1,0.5,1.4,0.9c0.1,0.2,0.3,0.4,0.4,0.6c0.1,0.3-0.1,0.6-0.7,0.9
	c-0.5,0.2-1.3,0.4-2.3,0.5c-6,0.8-12.3,2.2-18.6,3.9c-2.3,0.6-4.7,1.3-7,2C226.4,294.9,224.1,295.6,222.1,296.6L222.1,296.6
	L222.1,296.6L222.1,296.6z M151.1,334.8l-0.3,0.1c0,0-0.2,0.1-0.3,0.2c-0.3,0.1-0.6,0.4-0.9,0.6l-1.9,1.3c-1.3,0.9-2.6,1.8-3.9,2.6
	c-1,0.6-1.9,1.3-3,1.9c-0.9,0.5-1.9,0.9-2.9,1.3c-1.1,0.3-2.2,0.6-3.5,0.4c-0.7-0.1-1.4-0.4-1.9-0.9c-0.3-0.2-0.6-0.5-0.8-1
	c-0.2-0.5-0.2-1.1-0.1-1.5c0.3-0.9,0.8-1.2,1.2-1.6c0.4-0.4,0.8-0.7,1.2-1c1.4-1.1,2.8-2.1,3.9-3.4c1.4-1.6,2.3-3.4,3.2-5.5
	c0.4-0.6,0.4-0.6,0.6,0.1c0.3,0.6,0.6,2,0.2,3.4c-0.4,1.3-1.1,2.4-1.9,3.4c-0.8,1-1.6,1.9-2.6,2.7c-0.9,0.8-1.9,1.5-2.7,2.1
	c-0.2,0.1-0.4,0.3-0.5,0.4c-0.1,0.1-0.1,0.1-0.1,0.1c0,0,0,0,0,0c0,0-0.3-0.1-0.3-0.1c-0.4-0.1-0.3,0.1,0.1-0.2c0.1-0.1,0.1,0,0.1,0
	c0,0,0,0,0,0.1c0,0,0.1,0.1,0.1,0.1c0.2,0.2,0.6,0.4,1.1,0.4c0.5,0,1.1-0.2,1.7-0.4c1.2-0.5,2.4-1.2,3.5-1.9c2.6-1.6,5-3.5,7.6-5.4
	c0.4-0.3,0.8-0.6,1.4-0.9c0.7-0.3,1.1-0.3,1.6-0.5c0.9-0.2,1.7-0.5,2.5-0.9c2.4-1.2,4.2-3.4,5.5-5.9c0.2-0.5,0.5-1,0.7-1.5
	c0.3-0.6,0.7-1.1,1.1-1.6c0.8-1,1.8-1.7,2.9-2.3c0.5-0.3,0.9-0.5,1.4-0.8c1.9-0.7,2.6-0.6,3.1,0.1c0.1,0.2,0.3,0.3,0.4,0.5
	c0.3,0.6-0.3,1.2-1.4,1.8c-1.6,0.8-3.2,1.8-4.2,3c-0.2,0.3-0.4,0.6-0.5,0.8l-0.7,1.4c-0.5,1-1.1,2-1.8,2.9c-1.1,1.4-2.4,2.7-4,3.7
	c-0.8,0.5-1.6,0.9-2.5,1.2C152.7,334.5,151.7,334.7,151.1,334.8L151.1,334.8L151.1,334.8L151.1,334.8z"/>
<path class="st0" d="M278.6,429.4c-7.7-2.5-15.5-5.1-23.2-7.7c-7.7-2.6-15.4-5.4-23-8.7c-5.5-2.4-11-5-16.1-8.2
	c-2.2-1.5-4.4-3-6.5-4.8c-2.1-1.8-4-3.7-5.7-5.8c-1.7-2.1-3.2-4.5-4.3-7.1c-0.5-1.3-1-2.6-1.3-3.9c-0.2-0.7-0.3-1.3-0.4-2
	c-0.1-0.7-0.3-1.3-0.3-2c-0.7-5.4-0.2-10.9,1.1-16.1c1.2-5.2,3.2-10.2,5.5-15c4.1-8.5,9.2-16.4,14.5-24c6.9-9.7,14.1-19.1,21.9-28.1
	c2.6-2.7,2.2-2.3,0.9,0.6c-1.3,2.9-4.2,8-8.3,13.4c-7.4,9.6-14.6,19.2-20.7,29.4c-3,5.1-5.8,10.4-7.9,15.9c-1.1,2.8-2,5.6-2.7,8.4
	c-0.7,2.9-1.2,5.8-1.3,8.7c-0.2,3.5,0.1,7,1,10.4c0.9,3.4,2.7,6.5,4.9,9.2c2.2,2.8,5,5.2,7.9,7.4c2.9,2.1,6.1,4,9.3,5.8
	c7.1,3.8,14.7,6.9,22.4,9.7c7.7,2.8,15.4,5.4,23.2,7.9c9.6,3.1,19.2,6.3,28.7,9.6c14.4,5.1,28.8,10.9,42.2,18.2
	c10.4,5.7,20.2,12.1,28.8,20.2c1,0.9,1.9,1.8,2.8,2.7c0.9,0.9,1.8,1.9,2.7,2.9c3.2,3.7,5.1,6.3,6.2,8.3c0.6,1,1,1.8,1.2,2.5
	s0.4,1.3,0.5,1.9c0.1,0.5,0.2,1.1,0.2,1.5c0,0.6-0.7,0.1-1.9-1.2c-0.6-0.6-1.3-1.5-2.1-2.5c-0.4-0.5-0.8-1.1-1.3-1.7
	c-0.5-0.6-1-1.2-1.5-1.9c-6.4-8-14.3-15-23.1-21c-8.8-6-18.4-11.2-28.4-15.6c-14.8-6.7-30.3-12-45.9-17.1L278.6,429.4L278.6,429.4
	L278.6,429.4z"/>
<path class="st0" d="M290.5,330.8c1.9-4.5,3.9-9,5.6-13.6c0.6-1.7,1.2-3.4,1.8-5c2.1-5.9,4.1-11.9,5.4-18c0.6-2.7,0.9-5.5,1.2-8.2
	c0.4-3.5,0.4-7,1.1-10.6c0.2-1.1,0.2-1,0.5,0c0.2,0.5,0.3,1.1,0.8,2c0.4,0.8,0.5,1.8,0.6,2.8c0.3,3.7,0.1,7.5-0.6,11.2
	c-0.6,3.7-1.5,7.3-2.6,10.9c-1.3,4.3-2.6,8.7-4.1,13c-1.7,4.7-3.6,9.3-5.5,13.9c-1.2,2.8-2.4,5.6-3.6,8.5c-1.8,4.3-3.5,8.5-4.9,12.9
	c-1,3.4-1.8,6.8-2.1,10.2l-0.1,1.1c0,0.4,0,0.7,0,1.1c0,0.7-0.1,1.3-0.1,1.7c0,0.5-0.1,0.9-0.2,1.2c-0.1,0.6-0.3,1-0.6,1.4
	c-0.1,0.2-0.3,0.4-0.4,0.5c-0.2,0.2-0.5,0-0.8-0.5c-0.3-0.5-0.6-1.4-0.8-2.5c-0.4-3.4,0.1-6.8,0.8-10.1c0.7-3.3,1.8-6.5,2.9-9.7
	C286.6,339.9,288.6,335.3,290.5,330.8L290.5,330.8L290.5,330.8L290.5,330.8z M150.8,440.2c1.4-0.5,2.7-1,4.1-1.5
	c0.7-0.3,1.3-0.5,2-0.8c0.6-0.3,1.4-0.6,1.8-0.9l0.8-0.5l0.8-0.6c0.6-0.4,1.1-0.8,1.6-1.3c0.5-0.5,1.1-0.9,1.6-1.4l1.6-1.5
	c1.5-1.5,2.9-3.1,4.4-4.6c5.1-5.5,10-11.3,14.6-17.3c2.1-2.6,4-5.4,5.9-8.1c2.4-3.5,4.6-7.2,7.5-10.5c0.9-1,0.8-0.9,0.5,0.2
	c-0.3,1.1-0.6,3.4-1.7,5.6c-1.1,1.9-2.2,3.9-3.4,5.7c-1.2,1.9-2.4,3.7-3.7,5.5c-1.3,1.8-2.6,3.6-4,5.3c-1.4,1.7-2.8,3.5-4.3,5.1
	c-3.5,4-6.9,8.4-10.6,12.4c-2.1,2.2-4.2,4.3-6.5,6.3c-1.2,1-2.4,2-3.9,2.8c-1.4,0.7-2.8,1.3-4.2,1.9c-3.4,1.4-7,2.5-10.5,3.6
	c-5.4,1.5-10.9,2.7-16.4,3.5c-4.3,0.6-8.5,1.1-12.9,1c-1,0-1.9,0-2.9-0.1c-1.8-0.2-3-0.5-3.8-0.9c-0.8-0.4-1.2-0.8-1.4-1.4
	c-0.1-0.2-0.3-0.5-0.3-0.7c-0.1-0.6,1.4-1,3.8-0.7c3.6,0.4,7.3,0.3,11.1,0c3.8-0.3,7.7-0.8,11.5-1.5
	C139.6,443.6,145.3,442.1,150.8,440.2L150.8,440.2L150.8,440.2L150.8,440.2z"/>
<path class="st0" d="M133.2,497.2c5.8-0.8,11.5-1.8,17.2-3c5.7-1.2,11.3-2.6,16.9-4.3c4-1.2,8-2.7,11.8-4.4c3.4-1.5,6.7-3.1,9.5-5.2
	l4.6-3.4c1.5-1.1,3-2.2,4.4-3.4c5.8-4.7,11.3-9.8,16.5-15.2c1.2-1.2,2.3-2.4,3.4-3.7s2.2-2.5,3.3-3.8c1.1-1.3,2.1-2.6,3.2-3.8
	c1-1.3,2-2.6,3.1-3.9c1.3-1.7,2.6-3.4,3.8-5.1c1.2-1.7,2.5-3.4,3.7-5.2c1.2-1.8,2.4-3.5,3.6-5.2l1.8-2.6c0.6-0.9,1.3-1.7,2-2.5
	c1.7-2.1,1.6-1.7,0.9,0.5c-0.4,1.1-0.8,2.7-1.6,4.5c-0.4,0.9-0.8,1.9-1.3,2.9s-1.2,2-1.9,3c-4.8,7.3-10,14.4-15.8,21.1
	c-5.8,6.6-12.1,12.9-18.9,18.6l-3.1,2.5c-1.1,0.8-2.1,1.7-3.2,2.5c-2.1,1.6-4.4,3.3-6.4,4.8c-2.3,1.8-4.7,3.1-7.2,4.4
	c-2.5,1.2-5,2.3-7.6,3.3c-5.6,2.1-11.3,3.8-17.1,5.2c-5.8,1.4-11.6,2.6-17.4,3.6c-7.2,1.2-14.5,2.1-21.8,2.6
	c-3.5,0.2-7.1,0.3-10.6,0.2c-1.8-0.1-3.6-0.2-5.3-0.5c-0.9-0.1-1.8-0.4-2.7-0.6c-0.4-0.1-0.9-0.3-1.3-0.5s-0.8-0.4-1.4-0.7
	c-0.6-0.4-0.9-1.1-1.1-1.8c-0.2-0.6-0.3-1.1-0.4-1.6c-0.2-1-0.3-2.1-0.3-3.1c-0.1-2-0.2-4.1-0.2-6.1c0-4.3,0.2-8.5,0.6-12.8
	s1.1-8.4,2.2-12.6c0.5-1.8,1-3.6,1.6-5.4c1.2-3.3,2.4-5.4,3.4-6.8c1-1.3,1.8-2,2.6-2.3c0.3-0.2,0.8-0.4,1-0.5
	c0.8-0.2-0.5,2.3-2.3,6.8c-2.8,6.7-4.2,14.2-5.1,21.7c-0.4,3.8-0.7,7.7-0.7,11.5c0,1.9,0,3.9,0.2,5.7c0.1,1,0.2,1.9,0.4,2.8
	c0.1,0.4,0.2,0.9,0.3,1.2c0,0.1,0.1,0.2,0.1,0.2c0,0.1,0,0,0,0c0,0,0,0,0.1,0c0.1,0,0.2,0.1,0.3,0.2l0.8,0.3
	c0.6,0.2,1.2,0.3,1.8,0.5c0.7,0.1,1.3,0.2,2,0.3c0.7,0.1,1.4,0.1,2.1,0.2c2.8,0.2,5.6,0.2,8.5,0.1
	C121.7,498.6,127.4,497.9,133.2,497.2L133.2,497.2L133.2,497.2L133.2,497.2z M212.5,115.1l0.6,2l0,0.3c0,0.1,0,0.3,0.1,0.3l0.2-0.2
	c0.1,0,0.1-0.1,0.2-0.2l0.1,0c0,0,0,0,0.1-0.1l0.5-0.6c0.7-0.8,1.5-1.4,2.2-2.2l2.3-2l2.4-1.9c2.1-1.6,4.3-3.1,6.6-4.4
	c8.1-4.6,16.6-7.8,24.9-11.4c3.7-1.6,7.3-3.3,10.6-5.4c2.1-1.3,4.1-2.8,5.8-4.6l1.2-1.3c0.4-0.5,0.7-0.9,1.1-1.4
	c0.3-0.5,0.6-1,0.9-1.6c0.2-0.6,0.7-1.1,0.8-1.7c0.6-1.4,0.6-1.3,0.8,0.1c0,0.4,0.1,0.8,0.1,1.3c0,0.1,0,0.3,0,0.4
	c0,0.1,0,0.3,0,0.4c0,0.3-0.1,0.6-0.2,0.9c-0.2,0.6-0.3,1.3-0.7,2c-0.1,0.3-0.3,0.7-0.5,1.1c-0.2,0.3-0.4,0.7-0.7,1
	c-1.8,2.3-4,4.1-6.3,5.6c-2.2,1.5-4.6,2.8-7,4c-4.8,2.3-9.7,4.2-14.6,6.2c-5.8,2.4-11.6,5.4-16.9,8.9c-2.3,1.5-4.5,3.1-6.6,4.8
	l-1.5,1.3l-1.5,1.4c-0.5,0.5-0.9,0.9-1.4,1.5c-0.8,0.8-1.5,1.7-2.2,2.5l-2,1.3c0,0-0.1,0.1-0.1,0.1c-0.1,0-0.1-0.1-0.1-0.1l-0.2-0.2
	c-0.1-0.1-0.2-0.2-0.3-0.4c-0.2-0.3-0.5-0.6-0.7-1.1c-0.3-0.7-0.5-1.6-0.7-2.4l-0.5-2.1c-0.3-1.1-0.6-2.1-0.9-3.1
	c-0.6-2.1-1.3-4.1-2-6.2c-2.2-6.2-4.8-12.3-8.3-17.8c-2.7-4.2-5.9-8-9.7-11.1c-0.8-0.7-1.7-1.3-2.6-1.9c-1.6-1.1-2.7-1.8-3.5-2.3
	c-0.7-0.6-1.1-1.1-1.3-1.7c-0.1-0.3-0.3-0.6-0.3-0.8c-0.1-0.8,1.8-0.9,4.7,0.6c4.3,2.2,8,5.5,11.2,9.3c3.1,3.8,5.7,8,7.9,12.4
	C208.2,101.2,210.6,108.1,212.5,115.1L212.5,115.1L212.5,115.1L212.5,115.1z"/>
<path class="st0" d="M316.2,108.6c-3.1,1.3-6.3,2.4-9.7,3.2c-0.8,0.2-1.7,0.4-2.5,0.5c-0.9,0.2-1.7,0.2-2.6,0.3
	c-0.9,0.1-1.8,0-2.6,0c-0.9-0.1-1.8-0.1-2.7-0.3c-0.4-0.1-0.8-0.1-1.2-0.3l-1.3-0.4c-0.3-0.2-0.6-0.3-0.9-0.6
	c-0.3-0.3-0.5-0.5-0.6-0.7c-0.3-0.4-0.5-0.8-0.8-1.2c-0.4-0.8-0.8-1.6-1.1-2.3c-1.7-4-3.2-7.9-4.8-11.8c-1.6-3.9-3.4-7.7-5.4-11.4
	c-1.8-3.3-3.7-6.4-5.9-9.4c-1.4-1.9-2.9-3.7-4.4-5.5c-1.5-1.8-3.1-3.5-4.7-5.3c-0.9-1.2-0.9-1,0.4-0.5c1.2,0.5,3.5,1.5,5.6,3.5
	c0.5,0.4,0.9,0.8,1.4,1.3l1.3,1.4c0.8,1,1.6,1.9,2.4,2.9c1.5,2,3,4,4.2,6.2c2.5,4.3,4.7,8.8,6.6,13.4c1.1,2.7,2.3,5.5,3.5,8.3
	c0.6,1.4,1.2,2.8,1.8,4.2c0.6,1.4,1.2,2.8,1.9,4l0.2,0.4l0.2,0.4c0.1,0.1,0.1,0.2,0.1,0.2c0,0,0.1,0.1,0.1,0.1l0.9,0.3
	c0.3,0.1,0.6,0.2,1,0.2c0.6,0.2,1.3,0.2,2,0.3c0.7,0.1,1.4,0,2.1,0c0.7-0.1,1.4-0.1,2.1-0.2c2.8-0.4,5.6-1.2,8.3-2.2
	c3.8-1.4,7.4-3.1,10.9-5.1c5.3-3,10.5-6.4,15.1-10.3c3.6-3,6.8-6.4,9.7-10c0.6-0.8,1.2-1.6,1.8-2.4c2.1-3,2.7-4,4-4.3
	c0.3-0.1,0.6-0.2,0.8-0.2c0.4,0,0.6,0.4,0.5,1.2c0,0.4-0.1,0.9-0.3,1.4c-0.2,0.5-0.5,1.2-0.8,1.8c-1.1,2-2.4,3.8-3.8,5.5
	c-1.4,1.8-2.9,3.4-4.5,5c-3.2,3.2-6.8,6.1-10.5,8.7c-5.5,3.9-11.4,7.3-17.7,10L316.2,108.6L316.2,108.6L316.2,108.6z M273.5,40.6
	c0.7,1.4,1.4,2.9,2.1,4.3c0.2,0.5,0.6,1,0.8,1.5c0.9,1.9,1.6,3.8,2.3,5.7c0.3,0.8,0.7,1.7,1.1,2.5c0.4,1.1,0.9,2.1,1,3.3
	c0,0.4-0.1,0.4-0.5,0.2c-0.2-0.1-0.5-0.2-0.7-0.4c-0.3-0.2-0.6-0.4-0.7-0.7l-1-1.5c-0.3-0.5-0.5-1-0.8-1.6c-0.5-1-0.9-2.1-1.3-3.2
	c-0.5-1.3-1.2-2.6-1.9-3.8c-0.7-1.4-1.4-2.8-2.1-4.2c-0.5-0.8-0.9-1.7-1.4-2.5c-0.8-1.2-1.5-2.5-2.4-3.6c-0.7-0.9-1.5-1.6-2.3-2.2
	c-0.2-0.1-0.4-0.2-0.5-0.4c-0.3-0.2-0.5-0.3-0.5-0.5c0-0.1,0-0.2,0-0.3v-0.4c0-0.2-0.1-0.3-0.1-0.5c0-0.2,0-0.5,0.3-0.6
	c0.3-0.2,0.8-0.2,1.2,0c2.4,1.1,3.7,2.9,5,4.7C272,37.7,272.8,39.1,273.5,40.6L273.5,40.6L273.5,40.6L273.5,40.6z"/>
<path class="st0" d="M243.8,27.2c2.6-0.5,5.3-0.7,8-0.8c2.7,0,5.5,0.4,8.2,1.3c2.7,0.9,5.2,2.5,7.2,4.7c1,1.1,2,2.6,2.3,4.3
	c0.4,1.7,0,3.4-0.5,4.8c-0.8,2-1.9,3.7-2.9,5.2c-1,1.6-2.1,3-2.8,4.5c-0.7,1.3-1,2.4-0.7,3.3c0.3,1,0.9,1.8,2.1,2.3
	c1.1,0.5,2.6,0.8,4.1,0.9c1.5,0.1,3.1,0.1,4.6,0c2.9-0.2,6-1.3,8.9-2.4c3-1.1,5.9-2.6,8.7-4.1c5-2.7,9.8-5.9,14.3-9.4
	c5.7-4.6,11-9.5,15.5-15.2c1.4-1.8,1.4-1.5,0.8,0.4c-0.2,0.5-0.4,1.1-0.6,1.7c-0.1,0.4-0.3,0.7-0.4,1s-0.4,0.7-0.5,1.1
	c-0.4,0.8-0.8,1.7-1.4,2.5c-0.6,0.8-1.2,1.7-1.9,2.5c-2.6,2.9-5.3,5.7-8.3,8c-1.5,1.3-3,2.4-4.5,3.5c-1.6,1.1-3.1,2.2-4.8,3.2
	c-6.5,4-13.4,7.7-21.1,9.7c-0.6,0.1-1.1,0.3-1.8,0.4l-1.9,0.3c-1.2,0.1-2.4,0.2-3.6,0.2c-2.4,0-5-0.1-7.6-1.2
	c-1.3-0.6-2.6-1.5-3.4-2.9c-0.4-0.7-0.7-1.4-0.8-2.2c-0.2-0.8-0.1-1.6,0-2.4c0.3-1.5,0.9-2.7,1.5-3.8c0.6-1.1,1.3-2.1,2-3
	c1.5-2.1,3-4.1,3.5-6.1c0.6-2,0-3.7-1.8-5.3c-1.6-1.6-3.7-2.7-5.9-3.4c-2.3-0.7-4.7-0.8-7.1-0.8c-3,0.1-6,0.5-9,1.3
	c-3,0.7-6,1.6-8.8,2.8c-8.8,3.3-17.2,7.9-24.9,13.1c-3,2-5.9,4.2-8.7,6.4c-2.8,2.2-5.5,4.6-8.2,7c-1.2,1-2.3,2.2-3.4,3.2
	c-4.3,4.1-5.6,5.3-7.2,5.6c-0.4,0.1-0.8,0.2-1.1,0.2c-0.5,0-0.4-0.6,0.1-1.6c0.5-1,1.6-2.4,3.1-4c8.9-9.7,20.1-18.2,32.1-25.2
	c4.5-2.6,9.1-5,14-7c4.8-2,9.8-3.8,15.1-4.8L243.8,27.2L243.8,27.2L243.8,27.2z M374.2,120.2l-13.1-25.6c-1.6-3.1-3.3-6.2-4.9-9.2
	c-5.6-10.9-11.2-21.9-17-32.8c-1.3-2.4-2.6-4.8-3.9-7.2c-1.3-2.4-2.7-4.8-4-7.1c-3.5-6-7-12-10.4-18.1c-1.1-1.9-0.8-1.8,0.6-0.4
	c0.6,0.7,1.6,1.6,2.7,2.8c0.5,0.6,1.1,1.2,1.7,2c0.6,0.7,1.2,1.5,1.7,2.3c8,11.8,15,24.3,21.4,37.1c3.9,7.7,8.3,15.4,12.3,23.2
	c4.4,8.6,8.8,17.2,13.3,25.7c2.2,4.4,4.5,8.7,6.7,13.1c0.1,0.1,0.1,0.2,0.2,0.3c0.1,0.1,0.2,0.1,0.3,0.1l0.2,0.1
	c0.5,0.1,0.9,0.4,1.4,0.7c0.6,0.4,1.1,1,1.5,1.5l0.3,0.4c0.1,0.2,0.2,0.4,0.3,0.6c0.2,0.4,0.3,0.9,0.3,1.2c0.1,0.7,0.1,1.4,0,2
	c0,0.5-0.1,1-0.2,1.5c0.1,0.3,0.6,1.1,1,1.8l0.3,0.6l0.4,0.7c0.3,0.5,0.4,1.1,0.3,1.7c0,0.1,0,0.3-0.1,0.4l-0.1,0.3l-0.1,0.6
	c-0.1,0.4-0.2,0.8-0.2,1.1c0,0.2,0,0.3-0.1,0.4c0,0.1,0,0.2,0,0.4c0,0.2,0,0.5,0.1,0.7c0.1,0.3,0.4,0.3,0.6,0.3l0.9,0.1
	c0.6,0.1,1.2,0.2,1.6,0.6c0.2,0.2,0.3,0.5,0.5,0.7l0.4,0.7c0.8,1.5,1.5,2.9,2.3,4.4c3.2,6.1,6.5,12.1,9.8,18.1
	c0.7,1.3,1.5,2.6,2.2,4c2.6,5,3.2,6.7,2.9,8.2c-0.1,0.3-0.1,0.8-0.2,1c-0.3,0.8-2-1-4.1-4.5c-3.1-5.3-6.2-10.8-9.2-16.4
	c-1.5-2.8-3-5.6-4.5-8.5l-2.2-4.3l-0.2-0.4l-1.1-0.1c-0.8-0.1-1.6-0.3-2.1-0.8l-0.3-0.3c-0.2-0.1-0.2-0.2-0.3-0.3
	c-0.4-0.6-0.7-1.4-0.7-2.2c0-0.4,0-0.8,0-1.2l0-0.6c0-0.2,0-0.3,0-0.4c0.1-0.5,0.2-0.9,0.2-1.4l0.2-0.9l-0.4-0.8l-0.7-1.1l-0.4-0.8
	l-0.6-1.1l0.2-1.2l0.1-0.7c0-0.4,0.1-0.7,0.1-1c0-0.3,0-0.6,0-0.8c0,0,0,0,0-0.1c-0.4-0.5-0.8-0.9-1-1c0,0-0.1,0-0.1-0.1l-0.5-0.1
	c-0.2-0.1-0.4-0.1-0.6-0.2c-0.7-0.3-1.3-0.9-1.7-1.6c-1.4-2.6-2.7-5.3-4.1-7.9L374.2,120.2L374.2,120.2L374.2,120.2z M314,143.4
	c-0.3,0.7-0.5,1.4-0.9,2.1l-1.1,1.9c-0.9,1.2-1.7,2.4-2.8,3.4c-1,1.1-2.2,1.9-3.3,2.8c-0.6,0.4-1.2,0.8-1.8,1.2
	c-0.6,0.4-1.2,0.8-1.9,1.1l-1.9,0.9l-1,0.4l-1,0.4l-3.8,1.5c-2.5,1-5,2-7.3,3.1c-3.5,1.7-6.8,3.6-9.5,6.1c-2,1.9-3.7,4.1-4.2,6.6
	c-0.6,2.5,0,5.2,1.1,7.8c1.1,2.6,2.8,5.1,4.4,7.7c0.8,1.3,1.6,2.7,2.1,4.4l0.1,0.7c0,0.2,0,0.5,0,0.8c0,0.3,0,0.6-0.1,0.8
	c-0.1,0.3-0.2,0.6-0.3,0.8c-0.6,1-1.5,1.6-2.4,1.9c-0.4,0.1-0.7,0.2-1,0.2c-0.4,0-0.7,0-1-0.1c-0.7-0.2-1.2-0.5-1.6-0.8
	c-0.9-0.6-1.5-1.3-2.2-2c-1.1-1.1-2-2.3-3.1-3.1c-0.5-0.4-1.1-0.7-1.6-0.8c-0.6-0.1-1.3-0.1-1.9,0.1c-1.3,0.3-2.4,1-3.2,2
	c-0.8,1-1.2,2.3-1.2,3.6c0,1.8,0.4,3.5,1.4,4.9c0.9,1.4,2.4,2.3,4,2.9c1.6,0.5,3.4,0.6,5.2,0.3c0.9-0.2,1.7-0.4,2.5-0.8
	c0.8-0.4,1.5-0.9,2.2-1.4c0.9-0.7,1.2-1.1,1.3-1c0.1,0.1,0.1,0.7-0.4,1.8c-0.4,1.1-1.5,2.4-3.3,3.5c-1.8,1.1-4.2,1.7-6.9,1.3
	c-0.9-0.1-1.8-0.4-2.7-0.7c-0.9-0.4-1.7-0.9-2.5-1.4c-0.8-0.6-1.4-1.3-2-2.1c-0.5-0.8-1-1.7-1.4-2.6c-0.2-0.4-0.3-0.9-0.4-1.4
	c-0.1-0.5-0.2-0.9-0.2-1.4s-0.1-0.9-0.1-1.4c0-0.4,0-0.9,0-1.4c0.2-2,1.1-4,2.6-5.4c1.4-1.4,3.4-2.3,5.4-2.5c0.5,0,1,0,1.5,0
	c0.2,0,0.5,0.1,0.8,0.1c0.3,0.1,0.6,0.1,0.8,0.2c1.1,0.4,1.8,1,2.5,1.6c1.3,1.2,2.4,2.4,3.4,3.4c0.5,0.5,1,0.9,1.4,1.2
	c0.5,0.3,0.4,0.2,0.5,0.2c0.1-0.1,0.3-0.1,0.4-0.2c0.1-0.1,0.2-0.1,0.3-0.2c0.1-0.1,0.2-0.1,0.2-0.2c0.1-0.1,0-0.8-0.3-1.5
	c-0.5-1.4-1.5-3-2.5-4.6c-1.2-2.1-2.6-4.2-3.6-6.6c-1-2.4-1.8-5.1-1.6-7.9c0.2-2.9,1.5-5.5,3.2-7.6c1.7-2.1,3.8-3.8,5.9-5.1
	c4.7-3.1,9.9-5.1,14.9-7.1l3.8-1.5c1.2-0.6,2.4-1.1,3.5-1.7c1.1-0.7,2.3-1.3,3.2-2.2c0.5-0.4,1-0.8,1.5-1.2l1.3-1.4
	c2.1-2.4,3.6-5.2,4.1-8.3c0.2-1.5,0.3-3.1,0.1-4.6c-0.2-1.5-0.6-3-1.3-4.4l-0.4-0.8c-0.1-0.2-0.3-0.5-0.5-0.7
	c-0.3-0.5-0.7-0.8-1.1-1.2c-0.9-0.7-1.9-1.5-2.9-2.1c-1-0.7-2.1-1.1-3.2-1.6l-1.7-0.5c-0.6-0.2-1.2-0.2-1.8-0.4
	c-2.4-0.4-4.8-0.5-7.2-0.2c-2.4,0.3-4.8,0.9-7,1.8c-1.8,0.7-3.4,1.5-5,2.5c-1.6,1-3,2.2-4.3,3.5c-2.7,2.6-5,5.5-6.7,8.8
	c-0.7,1.4-1.4,2.9-1.9,4.5c-1,2.9-1.5,4.8-2,6.2c-0.5,1.4-0.9,2.1-1.5,2.7c-0.2,0.3-0.5,0.6-0.7,0.8c-0.4,0.2-0.5-0.3-0.6-1.5
	c-0.1-1.2,0.1-3.1,0.5-5.4c0.7-3.5,2-7,3.8-10.3c1.9-3.3,4.3-6.2,7-8.8c0.7-0.6,1.4-1.3,2.2-1.9c0.8-0.6,1.6-1.2,2.4-1.7
	c0.8-0.5,1.7-1,2.6-1.4c0.9-0.5,1.8-0.8,2.7-1.2c3.6-1.5,7.5-2.3,11.5-2.3c3,0,6,0.5,8.8,1.5c1.4,0.6,2.8,1.2,4.1,2
	c0.3,0.2,0.6,0.4,1,0.6l0.9,0.7l0.9,0.7c0.1,0.1,0.3,0.2,0.5,0.4l0.5,0.5c2.5,2.6,3.4,5.6,3.9,8.7
	C315.5,137.4,315.1,140.5,314,143.4L314,143.4L314,143.4L314,143.4z"/>
<path class="st0" d="M385.4,144.8c0.1,0.5,0.1,1,0.1,1.4c0,0.5,0,0.9,0,1.4c0,0.3,0,0.7,0,1c-0.2,1.2-0.5,2.3-0.9,3.4
	c-0.2,0.5-0.3,1-0.5,1.4c-0.3,0.6-0.4,1.2-1.1,1.6c-0.2,0.1-0.3,0-0.5-0.3c-0.1-0.2-0.2-0.4-0.3-0.5c-0.1-0.2-0.1-0.3-0.1-0.5
	c0.2-1.2,0.5-2.2,0.9-3.4c0.3-0.7,0.2-1.4,0.2-2.1c0-0.8,0-1.6-0.1-2.4c-0.1-0.5-0.1-0.9-0.3-1.4c-0.2-0.7-0.5-1.3-1-1.9
	c-0.2-0.2-0.4-0.3-0.7-0.4c-0.2-0.1-0.5-0.2-0.7-0.2c-0.1,0-0.2,0-0.3-0.1c-0.4-0.1-0.4-0.4-0.3-1c0-0.1,0-0.3,0.1-0.4
	c0.1-0.5,0.4-0.8,0.9-0.8c1.4,0,2.8,1.1,3.5,2.3C384.9,142.8,385.3,143.8,385.4,144.8L385.4,144.8L385.4,144.8L385.4,144.8z"/>
<path class="st0" d="M371.6,150.9c-0.3-1.8-0.5-3.7-0.6-5.6c0-1.9-0.3-3.8,0.4-6c0.2-0.9,0.6-1.5,1-2.2c0.4-0.6,0.7-1.2,1.1-1.8
	c1.1-1.6,2.3-3.1,3.6-4.6c0.6-0.7,1.3-1.4,2-2.1c0.4-0.4,0.6-0.6,1.3-1.2c0.6-0.4,1.2-0.8,1.9-0.8c0.7,0,1.3,0.2,1.9,0.6
	c0.5,0.4,0.9,1,1.1,1.6c0.1,0.4,0.2,0.8,0.3,1.1c0,0.3,0.1,0.6,0.1,0.9c0,0.6,0,1.2-0.1,1.8c-0.2,1.1-0.5,2.2-1,3.2
	c-0.6,1.3-1.3,2.5-2.3,3.6c-0.5,0.5-1,1-1.6,1.4c-0.3,0.2-0.6,0.4-0.9,0.6c-0.3,0.2-0.7,0.2-1,0.3c-0.9,0.2-0.8,0-0.4-0.7
	c0.2-0.4,0.4-0.9,0.7-1.4c0.3-0.5,0.6-1,1-1.6c1.2-1.5,1.9-3.4,2.3-5.2c0.1-0.4,0.1-0.9,0.2-1.3c0-0.4,0-0.9-0.1-1.1
	c0-0.1,0-0.3-0.1-0.4c-0.1,0-0.1,0-0.2,0l-0.1,0c0,0-0.1,0.1-0.2,0.2l-0.5,0.4c-1.1,1-2.2,2.2-3.2,3.5c-1,1.3-2,2.6-2.8,4
	c-0.2,0.4-0.5,0.7-0.6,1.1c-0.2,0.4-0.3,0.6-0.4,1c-0.1,0.3-0.2,0.8-0.2,1.1c-0.1,0.4-0.1,0.8-0.1,1.2c-0.1,1.7,0.1,3.5,0.3,5.3
	c0.3,2.2,0.7,4.4,1.1,6.6c0.3,1.7,0.7,3.3,1,5.1c0.1,0.5,0.1,1,0,1.5c0,0.5-0.1,0.9-0.2,1.3c-0.2,0.9-0.4,1.7-0.6,2.6
	c-0.6,2.6-1.4,5.1-2.3,7.6c-0.2,0.6-0.4,1.1-0.7,1.6c-0.2,0.5-0.5,0.9-0.7,1.2c-0.2,0.3-0.5,0.6-0.6,0.7c-0.4,0.4-0.8,0.5-1.2,0.5
	c-0.2,0-0.4,0-0.5,0c-0.5-0.1-0.5-1.1,0-2.5c0.8-2.1,1.5-4.3,2.2-6.5c0.3-1.1,0.6-2.2,1-3.4c0.3-1.1,0.6-2.3,0.7-3.3
	c0-0.4,0.1-0.6,0-0.9c0-0.3-0.1-0.8-0.2-1.2l-0.5-2.7C372.2,154.6,371.8,152.8,371.6,150.9L371.6,150.9L371.6,150.9L371.6,150.9z
	 M391.5,147.2L391.5,147.2c0.1-0.1,0.2-0.1,0.3-0.2c0.1-0.1,0.3-0.2,0.4-0.4c0.3-0.3,0.6-0.6,0.9-0.9c0.5-0.7,1.1-1.4,1.6-2.2
	c0.4-0.6,0.6-1.2,0.9-1.8c1.1-2.1,2.1-4.3,2.6-6.5c0.1-0.5,0.1-1,0.1-1.4c0-0.2-0.1-0.4-0.1-0.5v0l0,0c-0.5,0.3,0.7-0.4,0.6-0.4l0,0
	l-0.1,0.1c-0.1,0.1-0.3,0.2-0.4,0.3c-0.1,0.1,0,0,0,0.1l-0.1-0.1c-0.1-0.1-0.2-0.1-0.3-0.2c-0.5-0.4-1.1-0.6-1.6-0.9
	c-0.6-0.3-1-0.3-1.6-0.2c-0.4,0.1-0.5,0.1-0.3-0.4c0.1-0.2,0.2-0.6,0.6-0.9c0.4-0.3,1-0.5,1.5-0.5c1,0,1.8,0.3,2.6,0.7
	c0.3,0.2,0.7,0.4,1,0.6c0,0,0.1,0.1,0.1,0.1c0.1,0.1,0.1,0.1,0.2,0.2c0.1,0.1,0.1,0.2,0.1,0.2c0.4,0.7,0.4,1.2,0.5,1.7
	c0.1,1-0.1,1.8-0.2,2.6c-0.2,0.8-0.4,1.5-0.7,2.2c-0.8,1.7-1.3,3.4-2.2,5.1c-1,1.8-2,3.5-3.5,5.1c-0.2,0.2-0.5,0.5-0.7,0.7
	c-0.3,0.3-0.7,0.5-1.1,0.8c-0.8,0.4-1.6,0.6-2.4,0.2c-1.2-0.4-1.8-1.8-1.8-3.1c0-1.2,0.2-2.1,0.4-3c0.4-1.4,0.7-2.9,1.4-4.2
	c0.1-0.3,0.3-0.6,0.5-0.9c0.4-0.5,0.8-0.7,1.1-0.8c0.3-0.1,0.6-0.1,0.9,0.1c0.1,0.1,0.3,0.1,0.4,0.2c0.3,0.2,0.2,0.8,0.1,1.6
	c-0.1,0.6-0.3,1.1-0.5,1.6c-0.2,0.5-0.4,1.1-0.5,1.6c-0.3,1.1-0.6,2.2-0.6,3.2v0.4h0c0,0,0,0,0,0
	C391.4,147.2,391.4,147.2,391.5,147.2L391.5,147.2L391.5,147.2L391.5,147.2z"/>
<path class="st0" d="M386.5,187.5c-2.9-0.9-5.7-2.2-8.4-3.5c-1-0.5-2-0.9-2.9-1.5c-3.3-1.9-6.4-4.3-9.2-6.9
	c-1.2-1.2-2.5-2.4-3.6-3.7c-0.7-0.9-1.4-1.7-2-2.6c-0.5-1-0.9-2-1.2-3.1c-0.2-0.7,0-0.6,0.5-0.2c0.4,0.4,1.3,1.1,2.2,1.9
	c0.8,0.7,1.4,1.5,2.1,2.2c0.7,0.8,1.5,1.4,2.2,2.1c1.5,1.4,3.1,2.8,4.8,4.1c2,1.6,4.4,2.9,6.7,4.1c2.5,1.3,5.2,2.6,7.9,3.5
	c1.7,0.6,3.4,1.1,5.1,1.4c0.8,0.1,1.6,0.2,2.3,0.2c0.4,0,0.8,0,1.1-0.1l0.5-0.1c0.2,0,0.2-0.1,0.4-0.1c0.3-0.1,0.5-0.4,0.6-0.7
	c0-0.1,0.1-0.3,0-0.5c0-0.2,0-0.4-0.1-0.6c-0.4-1.8-1.7-3.5-2.8-5.2c-0.3-0.4-0.5-0.7-0.8-1.1c-0.9-1.4-0.9-2.1-0.3-2.9
	c0.1-0.2,0.3-0.4,0.4-0.5c0.5-0.4,1.4-0.2,2.3,0.7c1.3,1.4,2.3,3.1,3.3,5c0.5,1,0.9,2,1.1,3.3c0.1,0.3,0.1,0.7,0.1,1.1
	c0,0.4,0,0.9-0.2,1.4c-0.1,0.5-0.3,0.9-0.6,1.3c-0.3,0.4-0.6,0.8-1,1c-0.2,0.1-0.3,0.2-0.5,0.3l-1,0.4l-0.8,0.2
	c-0.5,0.1-0.9,0.1-1.4,0.2c-0.9,0-1.7,0-2.5-0.1c-1.6-0.2-3.1-0.6-4.5-1L386.5,187.5L386.5,187.5L386.5,187.5z M117.3,334.6
	c0.5-0.8,1.2-1.5,1.8-2.2l0.6-0.7l0.5-0.6c0.7-0.8,1.4-1.5,2.2-2.2c1.5-1.5,3-2.9,4.5-4.3c1.1-1,2.2-2.1,3.3-3
	c1-0.9,2.1-1.7,3.2-2.5c0.3-0.2,0.6-0.4,0.9-0.6c0.3-0.2,0.6-0.3,0.9-0.5c0.6-0.3,1.2-0.6,1.8-0.9c2.4-1.2,5-2.1,7.5-2.9l3.4-1.1
	l1.7-0.5c0.5-0.2,1-0.4,1.5-0.6c1.3-0.5,2.5-1.3,3.6-2.2l0.9-0.6c0.3-0.2,0.6-0.4,0.9-0.6c0.6-0.4,1.2-0.9,1.8-1.3
	c0.9-0.4,0.7-0.5,0.4,0.3c-0.1,0.4-0.4,0.9-0.7,1.6c-0.2,0.3-0.4,0.7-0.6,1c-0.1,0.2-0.2,0.4-0.3,0.5c-0.1,0.2-0.3,0.3-0.5,0.5
	c-1.2,1.1-2.4,2.1-3.9,3c-0.7,0.4-1.6,0.7-2.4,1l-2.1,0.7c-2.9,0.9-5.6,1.9-8.4,3c-0.8,0.3-1.6,0.7-2.4,1.1
	c-0.4,0.2-0.8,0.4-1.2,0.6l-0.6,0.3c-0.1,0.1-0.3,0.2-0.5,0.3c-1.4,1.1-2.8,2.3-4.2,3.6c-3,2.7-6,5.5-8.8,8.5l-0.9,1
	c-0.2,0.2-0.4,0.5-0.6,0.7s-0.4,0.5-0.6,0.8c-0.1,0.1-0.2,0.3-0.1,0.5c0.1,0.1,0.3,0.1,0.4,0.2h0.1c0.5,0,0.9-0.3,1.3-0.5
	c0.2-0.1,0.4-0.2,0.7-0.4l0.3-0.2l0.6-0.4c1.6-1,3.1-2.1,4.6-3.2c1.2-0.9,2.3-1.8,3.4-2.8l1.7-1.4c0.6-0.5,1.1-0.9,2-1.4
	c0.2-0.1,0.4-0.1,0.6-0.2c0.7-0.2,1.3-0.2,2-0.1c0.8,0.1,1.3,0.4,1.7,0.5c0.4,0.2,0.7,0.3,0.9,0.5c0.5,0.3,0.7,0.6,0.8,1
	c0.1,0.2,0.2,0.4,0.2,0.6c0.1,0.6-1.1,0.9-2.8,0.4c-0.5-0.1-0.9-0.2-1.2-0.2c-0.3,0-0.7,0-1,0.1c0,0-0.1,0-0.3,0.2
	c-0.2,0.1-0.4,0.3-0.6,0.4c-0.4,0.3-0.8,0.6-1.2,0.9c-0.9,0.7-1.7,1.3-2.6,2c-1.7,1.4-3.5,2.7-5.4,4c-0.5,0.4-1,0.7-1.6,1l-0.4,0.2
	L124,338l-0.4,0.2c-0.5,0.3-1,0.6-1.6,0.9l-0.8,0.4l-0.7,0.3c-0.5,0.2-0.9,0.3-1.4,0.4c-0.8,0.1-1.4,0-2-0.2c-0.3-0.2-0.8-0.5-1.1-1
	c-0.2-0.4-0.3-0.8-0.3-1.2c0-0.8,0.5-2,1.3-3.2H117.3L117.3,334.6z"/>
<path class="st0" d="M169,316c1.9,2.5,3.7,5.2,5.2,8c0.6,1,1.1,2,1.6,3.1c0.8,1.9,1.4,4,1.4,6.3c0,1.1-0.3,2.5-1.2,3.5
	c-0.4,0.6-1.2,1-1.9,1.1c-0.8,0.1-1.3,0-1.9-0.2c-1.9-0.5-3.5-1.5-5-2.5c-0.9-0.6-1.9-1.3-2.7-2.1c-0.4-0.4-0.8-0.8-1.2-1.3
	c-0.4-0.4-0.7-1-1-1.4c-0.4-0.6-0.3-0.6,0.3-0.3c0.3,0.1,0.7,0.3,1.2,0.5c0.5,0.2,1.1,0.4,1.6,0.8l0.7,0.4l0.7,0.5
	c0.5,0.3,0.9,0.6,1.4,0.9c0.9,0.5,1.9,1,2.8,1.4c0.9,0.4,1.9,0.7,2.5,0.7c0.1,0,0.1,0.1,0.3-0.1c0.1-0.1,0.1-0.1,0.1-0.2
	c0-0.1,0.1-0.1,0.1-0.2c0.1-0.1,0.1-0.3,0.2-0.5c0.3-0.9,0.1-2.2-0.3-3.5c-0.4-1.2-0.9-2.5-1.5-3.7c-1.3-2.7-2.9-5.3-4.7-7.7
	c-1.1-1.5-2.3-3-3.5-4.4c-1.9-2.1-3.9-4.2-6.1-5.9c-1.7-1.3-3.6-2.4-5.5-3.2c-0.4-0.2-0.9-0.3-1.3-0.5c-1.6-0.6-2-0.9-2.1-1.9
	c0-0.2-0.1-0.4-0.1-0.6c0-0.3,0.2-0.6,0.6-0.7c0.4-0.1,1-0.2,1.7,0c4.2,1,7.9,3.7,11.1,6.5C164.9,311,167.1,313.4,169,316L169,316
	L169,316L169,316z M297.6,255.3c0.7,0.7,1.1,1.4,1.4,2.2c0.1,0.2,0.1,0.4,0.1,0.5l0.1,0.4c0,0.3,0.1,0.6,0.1,0.9
	c0,0.4,0.2,0.8,0.2,1.3c0,1.5-0.4,3.1-1,4.5c-0.3,0.6-0.5,1.2-0.9,1.8c-0.5,0.7-0.9,1.4-1.7,1.8c-0.3,0.1-0.4-0.1-0.5-0.5
	c-0.1-0.4-0.2-0.9-0.1-1.3c0.5-1.4,0.9-2.4,1.3-3.7c0.2-0.8,0-1.6-0.1-2.5c-0.1-0.5-0.2-0.9-0.3-1.4c-0.1-0.5-0.2-0.7-0.4-1
	c-0.1-0.2-0.2-0.3-0.3-0.4c0,0,0,0,0,0c0,0,0-0.2,0-0.3c0-0.1,0-0.2,0-0.1c0,0,0.1,0.1,0.1,0.2l-0.6-0.5c0-0.1-0.1-0.1-0.1-0.1
	c0,0,0.1,0,0.1,0c0,0,0.2,0,0.2-0.1l0.3-0.2c0.1,0,0.1,0,0.1,0c0,0,0,0,0,0.1c0.1,0.1,0.2,0.3,0.4,0.5c0.3,0.3,0.6,0.7,1,1
	c0.6,0.6,1.3,1.1,1.8,2c0.1,0.2,0.2,0.4,0.3,0.6c0.3,0.8,0,1.2-0.8,1.3c-0.2,0-0.4,0.1-0.6,0.1c-0.7,0-1.2-0.2-1.4-0.4
	c-0.7-0.6-1.4-1.2-2.4-2.1c-0.2-0.2-0.4-0.4-0.7-0.7c-0.1-0.2-0.3-0.3-0.5-0.7c-0.1-0.2-0.3-0.5-0.4-1.2c0-0.4,0-0.9,0.3-1.3
	c0.2-0.4,0.5-0.7,0.8-0.9l-0.3,0.3c0.2-0.1,0.3-0.3,0.5-0.4c0.2-0.1,0.4-0.2,0.6-0.3c0.5-0.2,1-0.2,1.4-0.1
	C296.8,254.6,297.3,254.9,297.6,255.3L297.6,255.3L297.6,255.3L297.6,255.3z M395.2,149.3c1-0.8,1.9-1.7,2.7-2.7
	c0.3-0.4,0.5-0.8,0.8-1.2c0.9-1.4,1.6-3,1.6-4.5c0-0.3-0.1-0.7-0.2-1c-0.1-0.2-0.3-0.6-0.5-0.9l-0.8-1.3c-0.2-0.4-0.5-0.9-0.8-1.1
	c0,0,0,0,0-0.1c0,0,0,0,0-0.1c0,0,0-0.1,0-0.1c0-0.1,0-0.1,0-0.2s0.1-0.1,0.2-0.1c0.5-0.1,1.1,0.1,1.6,0.5c0.4,0.4,0.9,0.8,1.2,1.2
	c0.2,0.2,0.3,0.4,0.5,0.7c0.1,0.1,0.2,0.2,0.3,0.5l0.2,0.5c0.5,1.3,0.4,2.7,0,3.8c-0.4,1.4-0.9,2.7-1.5,3.9
	c-0.8,1.3-1.7,2.5-2.7,3.6c-0.7,0.7-1.4,1.3-2.2,1.8c-0.3,0.2-0.6,0.4-1,0.6c-0.4,0.2-0.9,0.3-1.4,0.4c-0.9,0.1-1.8-0.5-2.3-1.2
	c-0.4-0.6-0.6-1.3-0.5-2.1c0-0.2,0-0.4,0.1-0.6c0-0.2,0-0.3,0.1-0.5c0.1-0.3,0.2-0.6,0.3-0.9c0.1-0.2,0.2-0.5,0.3-0.7
	c0.6-0.8,1-0.9,1.6-0.6c0.1,0.1,0.3,0.1,0.4,0.2c0.4,0.3,0.5,0.8,0.4,1.4c-0.1,0.4-0.2,0.8-0.2,1.1c-0.1,0.3-0.1,0.8,0,0.7
	c0.1,0.1,0.1,0,0.1,0v0c0,0,0.1-0.1,0.2-0.1C394.2,150,394.7,149.7,395.2,149.3L395.2,149.3L395.2,149.3L395.2,149.3z"/>
<path class="st0" d="M397.6,153.9L397.6,153.9c0.1,0,0,0,0.2-0.1c0.2-0.2,0.4-0.4,0.6-0.6c0.4-0.4,0.8-0.9,1.2-1.4
	c0.3-0.4,0.5-0.8,0.7-1.1c0.9-1.3,1.9-2.6,2.4-4c0.2-0.4,0-1.1-0.2-1.7c-0.2-0.8-0.8-1.5-1-2.2c0-0.1-0.1-0.5,0.4-0.6
	c0.2-0.1,0.6-0.1,0.9,0c0.2,0,0.4,0.1,0.5,0.1c0.1,0.1,0.3,0.2,0.4,0.3c0.7,0.9,1.3,1.9,1.5,3.2c0,0.3,0.1,0.7,0,1.1
	c-0.1,0.4-0.2,0.7-0.3,0.9c-0.2,0.5-0.5,1-0.7,1.5c-0.6,1.1-1.1,2.2-1.8,3.3c-0.8,1.1-1.6,2.2-2.7,3.2c-0.9,0.9-1.9,1.5-2.9,1.7
	c-0.4,0.1-0.8,0.1-1.1,0c-0.4-0.1-0.7-0.2-1-0.5c-0.6-0.5-0.8-1.3-0.7-2c0-0.6,0.1-1.2,0.3-1.8c0.1-0.3,0.2-0.6,0.4-1
	c0.1-0.3,0.2-0.5,0.3-0.7c0.1-0.2,0.2-0.4,0.3-0.6c0.6-0.6,0.9-0.6,1.5-0.5c0.1,0,0.2,0.1,0.4,0.1c0.3,0.1,0.5,0.7,0.5,1.3
	c0,0.5-0.1,0.9-0.2,1.3c-0.2,0.5,0,0.4,0,0.5c0.1,0.1,0.1,0,0.1,0C397.5,153.7,397.5,153.8,397.6,153.9L397.6,153.9L397.6,153.9
	L397.6,153.9z M387.7,143.3C387.7,143.3,387.7,143.3,387.7,143.3c0.1-0.1,0.2-0.1,0.2-0.2c0.1-0.1,0.3-0.3,0.4-0.4
	c0.3-0.3,0.6-0.7,0.8-1.1c0.5-0.8,1-1.6,1.4-2.5c0.3-0.6,0.5-1.3,0.8-2c0.5-1.2,0.9-2.4,1.2-3.6c0.2-0.6,0.3-1.2,0.4-1.8
	c0.1-0.6,0.1-1.2,0.1-1.6c0-0.2-0.3-0.5-0.7-0.7c-0.4-0.2-1-0.4-1.5-0.5c-1.4-0.2-2.8-0.2-4.3-0.5c-0.5-0.1-0.5-0.2-0.1-0.7
	c0.4-0.4,1.1-1,2-1.1c0.8-0.1,1.6-0.1,2.5,0c0.9,0.1,1.7,0.2,2.7,0.8c0.5,0.2,1,0.7,1.4,1.3c0.4,0.8,0.4,1.3,0.5,1.8
	c0,1-0.1,1.8-0.3,2.6c-0.5,1.9-0.9,3.9-1.6,5.7c-0.8,2-1.7,4-3.2,5.8c-0.2,0.3-0.5,0.5-0.7,0.8c-0.2,0.2-0.4,0.3-0.5,0.5
	c-0.2,0.1-0.4,0.3-0.6,0.4c-0.8,0.5-1.7,0.7-2.5,0.6c-0.2,0-0.3-0.1-0.5-0.1c-0.2,0-0.3-0.1-0.4-0.2c-0.3-0.2-0.5-0.4-0.6-0.7
	c-0.3-0.6-0.4-1.2-0.4-1.9c0-0.3,0-0.7,0-1c0-0.3,0.1-0.5,0.1-0.8c0.1-0.5,0.2-1,0.3-1.5c0.3-1.5,0.6-3,1-4.5c0.1-0.3,0.2-0.7,0.3-1
	c0.5-1.2,0.9-1.5,1.8-1.3c0.2,0,0.4,0.1,0.6,0.1c0.6,0.3,0.8,0.9,0.7,1.7c-0.2,1.2-0.5,2.5-0.8,3.8c-0.3,1.2-0.6,2.5-0.7,3.7
	c0,0.1,0,0,0,0.1C387.6,143.3,387.6,143.3,387.7,143.3L387.7,143.3L387.7,143.3z M288,182.4c0.9,1,2.1,1.8,3.2,2.5
	c1.5,0.8,3.1,1.4,4.8,1.6s3.4-0.4,4.5-1.9c1.1-1.5,1-3.5,0.3-5.2c-0.7-1.9-1.8-3.5-2.7-5.3c-0.4-0.7-1.4-0.9-2-0.5
	c-0.7,0.4-0.9,1.3-0.5,2.1c0.7,1.3,1.5,2.5,2.1,3.9c0,0.1,0.2,0.6,0.1,0.3c0.2,0.5,0.4,1.1,0.5,1.7c0,0.1,0,0.3,0,0
	c0,0.1,0,0.2,0,0.2c0,0.2,0,0.3,0,0.5c0,0.3,0,0,0-0.1c0,0.1,0,0.1,0,0.2s0,0.1-0.1,0.2c-0.1,0.3,0.1-0.2,0,0.1
	c-0.1,0.1-0.1,0.2-0.2,0.4c0.2-0.3,0,0-0.1,0.1c0,0.1-0.1,0.1-0.1,0.1c0.2-0.2,0.2-0.1,0.1-0.1c-0.1,0.1-0.6,0.2-0.2,0.1
	c-0.3,0.1-0.5,0.2-0.8,0.2c0.3-0.1,0,0-0.1,0c-0.2,0-0.4,0-0.5,0c-0.1,0-0.1,0-0.2,0c0,0,0.3,0.1,0.1,0c-0.1,0-0.3-0.1-0.5-0.1
	c-0.3-0.1-0.7-0.2-1-0.3c-0.2-0.1-0.4-0.1-0.5-0.2c-0.1,0-0.1-0.1-0.2-0.1c0,0,0.3,0.1,0,0c-0.3-0.1-0.6-0.3-0.9-0.5
	c-0.6-0.3-1.2-0.7-1.8-1.1c0,0-0.2-0.2,0,0c0.2,0.1,0,0-0.1-0.1c-0.1-0.1-0.2-0.2-0.4-0.3c-0.2-0.2-0.4-0.4-0.5-0.6
	c-0.5-0.6-1.6-0.5-2.1,0C287.3,180.9,287.4,181.8,288,182.4L288,182.4z M306.2,169.3c0.3,0.4,0.5,0.8,0.7,1.3c0,0.1,0.2,0.5,0.1,0.2
	c0.2,0.7,0.4,1.3,0.6,2.1c0,0.2,0-0.3,0,0c0,0.1,0,0.2,0,0.2c0,0.2,0,0.4,0,0.5c0,0.2,0,0.3,0,0.5c0,0,0,0.2,0,0.2
	c0-0.2,0-0.2,0-0.1c0,0,0,0.1,0,0.1c-0.1,0.3-0.2,0.6-0.3,0.9c0-0.1,0.1-0.2,0,0c0,0.1-0.1,0.1-0.1,0.2c-0.1,0.2-0.2,0.3-0.3,0.5
	c-0.5,0.6-0.1,1.7,0.5,2.1c0.8,0.4,1.6,0.1,2-0.5c2-2.9,1.1-6.9-0.7-9.6c-0.4-0.6-1.3-1-2-0.5C306,167.7,305.7,168.6,306.2,169.3
	L306.2,169.3L306.2,169.3z M289.4,163.7c-4.8-0.4-8.3,3.5-10.5,7.3c-0.4,0.7-0.2,1.8,0.6,2.2s1.8,0.2,2.2-0.6s1-1.6,1.5-2.4
	c-0.2,0.3,0,0,0.1-0.1c0.1-0.1,0.1-0.2,0.2-0.2c0.1-0.2,0.3-0.4,0.5-0.5c0.3-0.4,0.7-0.7,1-1c0.1-0.1,0.2-0.1,0.2-0.2
	c0.1-0.1-0.2,0.2,0,0c0.2-0.1,0.4-0.3,0.6-0.4c0.2-0.1,0.4-0.2,0.5-0.3c0.1-0.1,0.2-0.1,0.3-0.2c0.3-0.1-0.3,0.1,0.1,0
	c0.4-0.1,0.8-0.2,1.3-0.3c0.2,0-0.3,0,0,0c0.1,0,0.3,0,0.4,0c0.3,0,0.5,0,0.8,0c0.9,0.1,1.7-0.8,1.6-1.6
	C290.9,164.4,290.3,163.8,289.4,163.7L289.4,163.7L289.4,163.7z M293.9,199.9c0.8,2.5,2.9,4.2,5.3,5c2,0.6,4.5,0.7,6.4-0.3
	c0.7-0.4,1-1.4,0.5-2.1c-0.5-0.7-1.3-0.9-2-0.5c0,0-0.1,0-0.1,0.1c-0.1,0.1-0.1,0,0.2-0.1c0,0-0.2,0.1-0.2,0.1
	c-0.2,0.1-0.4,0.1-0.5,0.1c-0.1,0-0.2,0-0.2,0.1c0.1,0-0.4,0.1,0,0c-0.2,0-0.4,0-0.6,0.1c-0.5,0-0.9,0-1.3-0.1c-0.1,0-0.1,0,0.1,0
	c-0.1,0-0.1,0-0.2,0l-0.3-0.1c-0.5-0.1-1-0.2-1.4-0.4c-0.1,0-0.4-0.2,0,0c-0.1,0-0.2-0.1-0.3-0.1c-0.2-0.1-0.4-0.2-0.6-0.4
	c-0.1-0.1-0.2-0.1-0.3-0.2c-0.1,0-0.1-0.1-0.2-0.1c0.2,0.1,0.2,0.1,0.1,0c-0.2-0.1-0.3-0.3-0.5-0.4c-0.1-0.1-0.2-0.2-0.3-0.3
	c0.2,0.3,0,0,0,0c-0.1-0.2-0.3-0.4-0.4-0.6c0-0.1-0.1-0.4,0-0.1c0-0.1-0.1-0.3-0.1-0.4c-0.2-0.8-1.1-1.3-1.9-1.1
	S293.6,199.1,293.9,199.9L293.9,199.9L293.9,199.9z M224.1,69.9l-1.4,0.9l-1.4,1c-0.9,0.7-1.8,1.4-2.6,2.1c-0.6,0.5-1.2,1.2-1.8,1.7
	c-2.1,2-4.2,4.1-6.1,6.3c-0.8,1-1.6,2.1-2.4,3.1l-1.5,2c-0.5,0.7-1,1.3-1.6,1.9c-0.4,0.4-0.5,0.2-0.4-0.3c0-0.3,0.1-0.6,0.1-1
	c0.1-0.4,0.2-0.8,0.5-1.3c0.9-1.5,1.8-2.9,2.8-4.3c0.5-0.7,1.1-1.4,1.6-2c0.6-0.7,1.1-1.3,1.8-1.9c0.7-0.8,1.4-1.6,2.1-2.3
	c0.7-0.8,1.4-1.6,2.2-2.3c1.7-1.7,3.5-3.2,5.4-4.6c1.2-0.8,2.4-1.7,3.6-2.4c1.9-1.2,3.9-2.1,5.9-3c0.8-0.3,1.6-0.7,2.3-1
	c0.8-0.3,1.6-0.6,2.4-0.9c0.4-0.1,0.7-0.3,1.1-0.3c1.4-0.3,1.9-0.2,2.3,0.4c0.1,0.2,0.2,0.3,0.3,0.5c0.2,0.5-0.3,1.1-1.2,1.4
	c-2.7,1-5.4,1.9-8.1,3.3c-1,0.5-2,1-2.9,1.6C226.1,68.8,225.1,69.3,224.1,69.9L224.1,69.9L224.1,69.9L224.1,69.9z M41.5,438.6
	c-0.2,0-0.2-0.3-0.1-0.8c0-0.2,0.3-0.6,0.3-0.6c0.2-0.1,0.3-0.1,0.5-0.2c0.1,0,1.2,0.2,1.6,0.3c0.4,0.1,0.7,0.2,1,0.4
	c0.6,0.4,1.3,0.7,1.9,1.2c0.1,0.1,0.2,0.2,0.3,0.4c0.3,0.5,0.7,0.9,1.2,1.2c0.1,0.1,0.1,0.1,0.3,0.1c0.3,0,1.3,1.1,1.3,1.3
	c0.1,0.5,0.3,1,0.4,1.5c0,0.1,0.1,0.1,0,0.2c-0.2,0.3-0.1,0.4,0,0.5c0.1,0.2,0.1,0.4,0.1,0.7c0,0.1-0.1,0.3-0.2,0.4
	c0,0.1-0.4,0.3-0.4,0.3c-0.2,0-0.3,0.1-0.4,0.2c0,0-0.1,0.1-0.1,0.1c0,0-1.4-0.4-1.5-0.4c0,0-0.4-0.2-0.7-0.5s-0.6-0.5-0.7-0.6
	c-0.1,0-0.1-0.2-0.1-0.3c0-0.1-1-0.8-1-0.8c-0.1-0.2-0.3-0.3-0.3-0.7c0-0.1,0-0.1-0.1-0.1c-0.3-0.3-0.5-0.7-0.8-1
	c-0.1-0.2-0.3-0.3-0.5-0.5c0,0,0-0.1,0-0.1c0,0,0-0.1-0.1-0.1c-0.4-0.3-0.7-0.8-1.2-1c-0.1-0.1-0.4-0.6-0.6-0.7
	C41.6,439.1,41.5,438.6,41.5,438.6L41.5,438.6L41.5,438.6z M36.6,457.1c0,0.2-0.3,0.3-0.8,0.2c-0.1,0-0.5-0.2-0.5-0.3
	c0-0.2-0.1-0.4-0.1-0.5c0-0.1,0.5-1.5,0.7-1.9c0.2-0.5,0.4-0.9,0.7-1.2c0.6-0.8,1.2-1.6,1.9-2.2c0.2-0.1,0.3-0.3,0.5-0.4
	c0.7-0.3,1.3-0.7,1.9-1.2c0.1-0.1,0.2-0.1,0.3-0.3c0-0.3,1.8-1.3,2.1-1.3c0.7,0,1.4-0.1,2-0.1c0.1,0,0.2-0.1,0.3,0
	c0.3,0.3,0.4,0.2,0.6,0.1c0.3,0,0.5,0,0.8,0c0.1,0,0.3,0.2,0.5,0.3c0.1,0.1,0.2,0.6,0.1,0.6c-0.1,0.2,0,0.4,0.1,0.6
	c0,0.1,0,0.1,0,0.2c0,0.1-0.3,0.4-0.6,0.7c-0.3,0.3-0.6,0.6-0.6,0.6c0,0-0.1,0-0.3,0.1c-0.2,0.1-0.4,0.2-0.6,0.3
	c-0.4,0.2-0.9,0.5-1,0.6c-0.1,0.1-0.2,0-0.3,0c-0.1,0-1.3,0.8-1.4,0.9c-0.3,0.1-0.5,0.4-0.9,0.3c-0.1,0-0.1,0-0.2,0.1
	c-0.4,0.3-0.9,0.5-1.4,0.8c-0.3,0.1-0.5,0.3-0.7,0.5c0,0-0.1,0-0.2,0c-0.1,0-0.1,0-0.2,0.1c-0.5,0.4-1.1,0.8-1.5,1.4
	c-0.1,0.1-0.8,0.5-0.9,0.7C37.1,456.9,36.6,457,36.6,457.1L36.6,457.1L36.6,457.1z M465.7,422.2c-0.2-0.1,0-0.4,0.3-0.7
	c0.1-0.1,0.5-0.3,0.5-0.2c0.2,0.1,0.3,0.1,0.5,0.2c0.1,0,0.9,1,1.1,1.3c0.3,0.3,0.5,0.7,0.7,1c0.4,0.7,0.6,1.5,0.9,2.3
	c0,0.2,0.1,0.4,0.1,0.5c0,0.6,0.1,1.2,0.2,1.8c0,0.1,0,0.2,0.2,0.3c0.2,0.1,0.5,1.8,0.4,2c-0.2,0.5-0.3,1.1-0.5,1.6
	c0,0.1,0,0.2-0.1,0.2c-0.4,0.1-0.3,0.3-0.4,0.5c0,0.2-0.1,0.4-0.3,0.6c-0.1,0.1-0.3,0.2-0.4,0.3c-0.1,0.1-0.6,0-0.7-0.1
	c-0.1-0.1-0.4-0.1-0.6-0.1c-0.1,0-0.2,0-0.2,0c-0.1,0-0.9-1.3-0.9-1.4c0,0-0.2-1.7-0.3-1.9c0-0.1,0-0.2,0.1-0.3c0,0-0.2-1.3-0.2-1.4
	c0-0.3-0.1-0.5,0.1-0.8c0-0.1,0-0.1,0-0.2c-0.1-0.5,0-0.9,0-1.4c0-0.2-0.1-0.5-0.1-0.7c0,0,0-0.1,0-0.1c0-0.1,0-0.1,0-0.2
	c-0.1-0.6-0.1-1.2-0.3-1.7c0-0.1,0-0.8-0.1-1C465.6,422.7,465.8,422.3,465.7,422.2L465.7,422.2L465.7,422.2z M470,443.4
	c-0.2,0.2-0.5,0.1-0.8,0c-0.1,0-0.2-0.3-0.2-0.4c0.1-0.1,0.2-0.3,0.3-0.4c0.1-0.1,1.2-1,1.6-1.3c0.4-0.3,0.8-0.6,1.2-0.9
	c0.8-0.5,1.8-1,2.7-1.4c0.2-0.1,0.4-0.1,0.7-0.2c0.8-0.1,1.6-0.2,2.4-0.4c0.1,0,0.3,0,0.4-0.1c0.1-0.1,0.7-0.2,1.4-0.2
	c0.6,0,1.3,0.1,1.5,0.2c0.7,0.3,1.4,0.6,2,1.1c0.1,0.1,0.2,0.1,0.2,0.2c0.1,0.4,0.3,0.5,0.4,0.6c0.2,0.2,0.5,0.4,0.6,0.7
	c0.1,0.1,0.1,0.3,0.1,0.5c0,0.2-0.2,0.4-0.3,0.4c-0.2,0-0.2,0.2-0.3,0.3c0,0-0.1,0.1-0.1,0.1c0,0-0.4,0-0.9,0
	c-0.4,0-0.9,0.1-0.9,0.1c0,0-1.8-0.3-2-0.3c-0.1,0-0.2-0.1-0.3-0.1c0-0.1-1.5,0.1-1.6,0.1c-0.3,0-0.6,0.1-1-0.1c-0.1,0-0.1,0-0.2,0
	c-0.6,0.1-1.1,0.1-1.8,0.2c-0.3,0-0.6,0.1-0.9,0.2c0,0-0.1,0-0.2,0c-0.1,0-0.1,0-0.2,0c-0.7,0.2-1.5,0.4-2.2,0.7
	c-0.2,0.1-1,0.2-1.2,0.3C470.5,443.4,470.1,443.3,470,443.4L470,443.4z M165.3,52.9c-0.2-0.1-0.1-0.4,0.1-0.8
	c0.1-0.1,0.4-0.3,0.5-0.3c0.2,0,0.4,0,0.5,0.1c0.1,0,1.2,0.7,1.5,1c0.4,0.2,0.6,0.5,0.9,0.8l1.6,1.8c0.1,0.1,0.2,0.3,0.3,0.5
	c0.2,0.6,0.6,1.1,1,1.5c0.1,0.1,0.1,0.2,0.3,0.2c0.3,0,1.3,1.3,1.3,1.6c0.1,0.6,0.3,1.1,0.5,1.6c0,0.1,0.1,0.1,0,0.2
	c-0.1,0.3,0,0.4,0,0.6c0.1,0.2,0.2,0.4,0.2,0.7c0,0.1,0,0.3-0.1,0.5c0,0.2-0.4,0.3-0.4,0.3c-0.2,0-0.3,0.2-0.4,0.3
	c0,0-0.1,0.1-0.1,0.1c-0.1,0-1.5-0.5-1.6-0.6c0,0-0.4-0.4-0.7-0.7c-0.4-0.4-0.8-0.7-0.9-0.8c-0.1-0.1-0.1-0.2-0.1-0.3
	c0,0-1.1-1.2-1.1-1.2c-0.1-0.3-0.4-0.5-0.4-0.9c0-0.1,0-0.1-0.1-0.2c-0.4-0.4-0.6-0.9-0.8-1.5c-0.1-0.3-0.3-0.5-0.4-0.7
	c0,0,0-0.1,0-0.2c0-0.1,0-0.1-0.1-0.2c-0.4-0.5-0.6-1.2-1.1-1.7c-0.1-0.1-0.3-0.9-0.4-1C165.3,53.4,165.4,53,165.3,52.9L165.3,52.9
	L165.3,52.9z M156.9,78.8c-0.2,0.1-0.4-0.1-0.6-0.5c-0.1-0.1-0.1-0.6,0-0.6c0.1-0.1,0.2-0.3,0.3-0.4c0.1-0.1,1.2-0.5,1.6-0.8
	c0.4-0.2,0.7-0.3,1.1-0.5c0.7-0.3,1.5-0.6,2.2-0.8c0.2-0.1,0.3-0.1,0.5-0.1c0.6,0,1.2-0.1,1.7-0.4c0.1,0,0.2-0.1,0.2-0.2
	c0.1-0.2,1.6-0.8,1.8-0.8c0.6,0,1.1,0,1.6-0.1c0.1,0,0.1-0.1,0.2,0c0.3,0.2,0.4,0.1,0.6,0.1c0.2-0.1,0.4-0.1,0.7-0.1
	c0.1,0,0.3,0.1,0.5,0.2c0.1,0.1,0.3,0.5,0.3,0.6c0,0.2,0.1,0.3,0.2,0.5c0,0.1,0.1,0.1,0.1,0.2c0.1,0.1-0.9,1.4-1,1.5
	c0,0-1.8,1.1-2,1.2c-0.1,0.1-0.2,0-0.4,0c-0.1,0-1.5,0.7-1.6,0.7c-0.3,0.1-0.6,0.2-1,0.1c-0.1,0-0.1,0-0.2,0
	c-0.6,0.2-1.1,0.2-1.7,0.3c-0.3,0-0.6,0.1-0.9,0.2c-0.1,0-0.1,0-0.2,0c-0.1,0-0.1,0-0.2,0c-0.7,0.1-1.4,0-2.1,0.2
	c-0.2,0-0.9-0.2-1.1-0.1C157.4,79,157,78.7,156.9,78.8L156.9,78.8L156.9,78.8z M362.1,202c0.1-0.1,0.2,0.1,0.3-0.1c0,0,0,0,0,0
	l0.2,0c0,0,0.1,0,0.1,0c0,0.1,0.1,0,0.2-0.1c0.1-0.1,0.2-0.1,0.3-0.1c0,0,0.1,0,0.1,0.2c0,0,0,0,0,0c0.1-0.1,0.2-0.1,0.3-0.1
	c0.1,0.1,0.3,0,0.4,0c0.1,0,0.2-0.1,0.3,0.1c0,0.2,0.2-0.1,0.2,0c0,0,0.1,0.1,0.1,0.1c0,0,0.1,0,0.1-0.1c0.2-0.2,0.3-0.2,0.5-0.2
	c0.1,0.1,0.3,0.1,0.4,0.2c0,0,0.1-0.1,0.1-0.1c0.3-0.2,0.4,0.1,0.6,0.1c0.1,0,0.1,0,0.2-0.1c0.1-0.1,0.2,0.1,0.3,0.1
	c0.1,0.1,0.3,0.2,0.4,0.3c0.1,0.1,0.4,0.2,0.5,0.3c0.1,0,0.3,0.3,0.4,0.2c0,0,0.6,0.2,0.6,0.3c0,0.3,0.1,0.1,0.2,0.2c0,0,0,0,0,0.1
	c0,0.1,0,0.4-0.3,1.1c-0.3,0.9-0.6,1.6-0.9,2c-0.1,0.2-0.2,0.2-0.2,0.3c-0.1,0-0.3,0.4-0.4,0.4c0,0-0.2-0.2-0.5-0.4
	s-0.5-0.3-0.5-0.3c0,0,0,0,0-0.1c0-0.1-0.2,0.1-0.2,0c0,0,0,0-0.1,0.1c0,0.1-0.2-0.3-0.2-0.2c-0.1,0.1-0.1,0.1-0.2,0
	c0-0.1-0.1,0-0.1,0c0,0,0,0.1,0,0c0-0.2-0.2,0-0.3,0c-0.1,0-0.1-0.1-0.1-0.2c0,0-0.1,0-0.1,0c0,0-0.1,0-0.1-0.1c0,0,0,0-0.1,0
	c0,0-0.1,0.1-0.1,0c0-0.2-0.1-0.1-0.1-0.1c-0.1,0-0.1-0.1-0.2-0.1c-0.1,0-0.1-0.1-0.2-0.1c-0.1,0-0.3-0.1-0.4-0.1
	c-0.1,0-0.2-0.1-0.4-0.1c-0.1,0-0.2,0-0.3-0.1c0-0.1-0.1-0.1-0.2-0.1c0,0,0,0,0,0c0-0.3-1-0.6-1-0.7c-0.1-0.1-0.4,0.1-0.3-0.3
	c0.1-0.4,0.1-0.7,0.2-1.1c0-0.2,0.1-0.4,0.1-0.7c0-0.2,0.1-0.3,0.1-0.3C362,202.2,362.1,202,362.1,202L362.1,202L362.1,202z"/>
<path class="st2" d="M339.5,247.3c-0.1-0.1,0.1-0.2-0.1-0.4c0,0,0,0,0-0.1c0-0.1,0-0.1-0.1-0.2c0-0.1,0-0.1,0-0.1
	c0-0.1,0-0.2-0.1-0.3c-0.1-0.1-0.2-0.3-0.2-0.4c0-0.1,0-0.1,0.1-0.2c0,0,0,0,0-0.1c-0.1-0.1-0.2-0.3-0.2-0.4c0-0.2-0.1-0.4-0.1-0.5
	c0-0.1-0.1-0.3,0-0.4c0.1-0.1-0.1-0.2-0.1-0.3c0-0.1,0-0.1,0-0.2c0-0.1,0-0.1-0.1-0.1c-0.3-0.2-0.3-0.4-0.3-0.6
	c0-0.2,0.1-0.4,0.1-0.6c0,0-0.1-0.1-0.1-0.1c-0.2-0.3,0-0.5,0-0.8c0-0.1,0-0.2-0.1-0.3c-0.1-0.2,0.1-0.3,0.1-0.4
	c0.1-0.2,0.2-0.4,0.3-0.6c0.1-0.1,0.2-0.6,0.3-0.7c0-0.1,0.2-0.5,0.2-0.6c0,0,0-0.2,0.1-0.4c0.1-0.2,0.3-0.4,0.3-0.4
	c0.3-0.1,0.2-0.2,0.3-0.2c0,0,0-0.1,0.1-0.1c0.2-0.1,0.4-0.1,0.9,0c0.6,0.1,1.2,0.2,1.6,0.4c0.2,0.1,0.3,0.1,0.3,0.2
	c0.1,0.1,0.5,0.3,0.6,0.4c0,0,0.1,0.1,0,0.3c0,0.1-0.1,0.3-0.1,0.5c-0.1,0.4-0.2,0.8-0.1,0.8c0,0,0,0,0,0c-0.1,0.1,0.2,0.2,0.1,0.3
	c0,0,0,0,0.1,0.1c0.1,0-0.2,0.3-0.1,0.4c0.2,0.1,0.1,0.2,0,0.2c0,0.1,0,0.1,0.1,0.2c0,0,0.1,0,0,0.1c-0.2,0.1,0,0.3,0,0.4
	c0,0.1-0.1,0.2-0.2,0.2c0,0,0,0.1,0,0.1c0,0.1,0,0.1,0,0.2c0,0,0,0.1,0,0.1c0,0,0.1,0.1,0,0.1c-0.2,0.1-0.1,0.1-0.1,0.2
	c0,0.1-0.1,0.2-0.1,0.3c0,0.1-0.1,0.2-0.1,0.3c0,0.2,0,0.4,0,0.6c0,0.2-0.1,0.3-0.2,0.5c0,0.1,0,0.3-0.2,0.4
	c-0.1,0.1-0.2,0.2-0.1,0.3c0,0,0,0,0,0.1c-0.3,0.1-0.8,1.4-0.9,1.6c-0.1,0.1,0,0.5-0.3,0.5h-0.8c-0.2,0-0.3,0-0.5-0.1
	c-0.1,0-0.2-0.1-0.2-0.1C339.7,247.4,339.6,247.4,339.5,247.3L339.5,247.3L339.5,247.3z M236.8,257.4c0.1,0,0.1,0.2,0.3,0.1
	c0,0,0,0,0.1,0c0.1,0,0.1,0,0.2,0.1c0,0,0.1,0,0.1,0.1c0,0.1,0.1,0,0.2,0c0.1,0,0.3,0,0.4,0.1c0,0,0.1,0,0.1,0.2c0,0,0,0,0,0
	c0.2,0,0.3,0,0.4,0.1c0.1,0.1,0.3,0.1,0.4,0.2c0.1,0.1,0.3,0.1,0.3,0.2c0,0.1,0.2,0,0.3,0.1c0,0,0.1,0.1,0.1,0.1c0,0,0.1,0,0.1,0
	c0.2-0.1,0.4,0,0.5,0.1c0.1,0.1,0.2,0.2,0.4,0.3c0,0,0.1,0,0.1,0c0.3,0,0.4,0.3,0.5,0.4c0.1,0.1,0.1,0.1,0.2,0.1
	c0.2,0,0.2,0.2,0.3,0.2c0.1,0.1,0.2,0.3,0.3,0.4c0.1,0.1,0.3,0.4,0.4,0.5c0.1,0,0.2,0.4,0.4,0.4c0,0,0.5,0.5,0.5,0.6
	c-0.1,0.2,0.1,0.2,0.1,0.3c0,0,0,0,0,0.1c0,0.1-0.1,0.3-0.6,0.7c-0.5,0.5-1,0.9-1.3,1.1c-0.2,0.1-0.2,0.1-0.3,0.1
	c-0.1,0-0.4,0.2-0.5,0.1c0,0-0.7-1.1-0.8-1c0,0,0,0,0,0c0-0.1-0.2,0-0.2-0.1c0,0,0,0-0.1,0c-0.1,0-0.1-0.3-0.2-0.3
	c-0.1,0.1-0.1,0-0.2-0.1c0-0.1-0.1,0-0.1,0c0,0-0.1,0-0.1,0c0-0.2-0.2-0.1-0.3-0.2c-0.1,0-0.1-0.2-0.1-0.2c0,0-0.1,0-0.1,0
	c0,0-0.1-0.1-0.1-0.1c0,0-0.1,0-0.1,0c0,0-0.1,0-0.1-0.1c0.1-0.2-0.1-0.1-0.1-0.2c-0.1,0-0.1-0.1-0.1-0.2c-0.1-0.1-0.1-0.1-0.2-0.2
	c-0.1-0.1-0.2-0.2-0.4-0.3l-0.3-0.3c-0.1-0.1-0.2-0.1-0.2-0.2c0-0.1-0.1-0.1-0.2-0.2c0,0,0,0,0,0c0-0.2-0.9-0.9-0.9-1
	c-0.1-0.1-0.4-0.1-0.3-0.4c0.1-0.3,0.3-0.5,0.4-0.8c0.1-0.2,0.2-0.3,0.3-0.5c0.1-0.1,0.2-0.2,0.2-0.2
	C236.6,257.5,236.7,257.4,236.8,257.4L236.8,257.4L236.8,257.4z"/>
<path class="st0" d="M200.9,293.5c-0.1-0.1,0.1-0.2-0.2-0.3c0,0,0,0,0,0c0,0-0.1-0.1-0.1-0.1c0,0,0-0.1,0-0.1
	c0.1-0.1-0.1-0.1-0.1-0.2c-0.1-0.1-0.2-0.2-0.2-0.3c0,0,0-0.1,0.2-0.2c0,0,0,0,0,0c-0.2-0.1-0.2-0.2-0.2-0.3c0-0.1-0.1-0.3-0.1-0.4
	c0-0.1-0.1-0.2,0.1-0.3c0.2-0.1-0.2-0.2-0.1-0.2c0,0,0-0.1,0-0.1s0-0.1-0.1-0.1c-0.3-0.1-0.4-0.3-0.4-0.4c0-0.1,0.1-0.3,0.1-0.4
	c0,0-0.1-0.1-0.1-0.1c-0.3-0.2,0-0.4,0.1-0.6c0-0.1,0-0.1-0.1-0.2c-0.1-0.1,0-0.2,0.1-0.3c0-0.1,0.1-0.3,0.2-0.4
	c0.1-0.1,0.2-0.4,0.2-0.5c0-0.1,0.2-0.4,0.1-0.4c0,0,0.1-0.6,0.2-0.6c0.3,0,0.1-0.1,0.2-0.2c0,0,0,0,0.1-0.1c0.1-0.1,0.4,0,1.1,0
	c0.9,0.1,1.6,0.2,2.1,0.4c0.3,0.1,0.3,0.1,0.3,0.2c0.1,0.1,0.5,0.2,0.5,0.3c0,0-0.1,0.3-0.2,0.5c-0.1,0.3-0.2,0.5-0.1,0.6
	c0,0,0,0-0.1,0c-0.1,0.1,0.2,0.1,0.1,0.2c0,0,0.1,0,0.1,0c0.1,0-0.2,0.2-0.1,0.3c0.2,0.1,0.1,0.1,0.1,0.2c-0.1,0,0,0.1,0.1,0.1
	c0,0,0.1,0,0.1,0c-0.2,0.1,0.1,0.2,0.1,0.3c0,0.1-0.1,0.1-0.1,0.2c0,0,0,0.1,0.1,0.1c0,0,0,0.1,0,0.1c0,0,0,0,0.1,0.1
	c0,0,0.1,0,0,0.1c-0.2,0-0.1,0.1-0.1,0.2c0,0.1,0,0.1-0.1,0.2c0,0.1-0.1,0.1-0.1,0.2c0,0.1,0,0.3,0,0.4c0,0.1-0.1,0.2-0.1,0.4
	c0,0.1,0,0.2-0.1,0.3c-0.1,0.1-0.1,0.1-0.1,0.2c0,0,0,0,0,0c-0.3,0.1-0.4,1.1-0.5,1.2c0,0.1,0.2,0.4-0.2,0.4l-1.1,0.1
	c-0.2,0-0.5,0-0.7,0c-0.2,0-0.3,0-0.3-0.1C201.2,293.6,201,293.6,200.9,293.5L200.9,293.5L200.9,293.5z"/>
<path class="st0" d="M170.8,295.9c0.1-0.1,0.2,0.1,0.3-0.1c0,0,0,0,0,0c0.1,0,0.1,0,0.2-0.1c0,0,0.1,0,0.1,0c0.1,0.1,0.1,0,0.2-0.1
	c0.1-0.1,0.2-0.2,0.3-0.2c0.1,0,0.1,0,0.2,0.2c0,0,0,0,0,0c0.1-0.2,0.2-0.2,0.3-0.2c0.1,0,0.3,0,0.4,0c0.1,0,0.2-0.1,0.3,0.1
	c0.1,0.2,0.2-0.1,0.2-0.1c0,0,0.1,0,0.1,0c0,0,0.1,0,0.1-0.1c0.1-0.2,0.3-0.3,0.4-0.2c0.1,0,0.3,0.1,0.4,0.1c0,0,0.1-0.1,0.1-0.1
	c0.2-0.2,0.4,0,0.6,0c0.1,0,0.1,0,0.2-0.1c0.1-0.1,0.2,0,0.3,0c0.1,0,0.3,0.1,0.4,0.2c0.1,0,0.4,0.1,0.5,0.1c0.1,0,0.4,0.2,0.4,0.1
	c0,0,0.6,0.1,0.6,0.1c0.1,0.3,0.1,0.1,0.2,0.2c0,0,0,0,0.1,0c0.1,0.1,0.1,0.3,0.1,0.9c0,0.7-0.1,1.3-0.1,1.7c0,0.2-0.1,0.2-0.1,0.3
	c-0.1,0.1-0.2,0.4-0.3,0.5c0,0-0.3,0-0.6-0.1c-0.3,0-0.6-0.1-0.6,0c0,0,0,0,0,0c-0.1-0.1-0.1,0.2-0.2,0.1c0,0,0,0,0,0.1
	c0,0.1-0.3-0.2-0.3-0.1c-0.1,0.1-0.1,0.1-0.2,0c0,0-0.1,0-0.1,0.1c0,0,0,0.1,0,0c-0.1-0.2-0.2,0-0.3,0.1c-0.1,0-0.1-0.1-0.2-0.1
	c0,0-0.1,0-0.1,0c-0.1,0-0.1,0-0.1,0c0,0-0.1,0-0.1,0c0,0-0.1,0.1-0.1,0c-0.1-0.2-0.1-0.1-0.2-0.1c-0.1,0-0.1,0-0.2,0
	c-0.1,0-0.2,0-0.2,0c-0.1,0-0.3,0-0.4,0.1c-0.1,0-0.3,0-0.4,0c-0.1,0-0.2,0.1-0.3,0c-0.1,0-0.1-0.1-0.2,0c0,0,0,0,0,0
	c-0.1-0.3-1.2-0.5-1.2-0.5c-0.1,0-0.4,0.1-0.4-0.3c0-0.4,0-0.8,0-1.1c0-0.2,0-0.5,0-0.7c0-0.2,0-0.3,0.1-0.3
	C170.7,296.1,170.7,295.9,170.8,295.9L170.8,295.9L170.8,295.9z M285.3,293.2c0.1,0-0.1,0.3,0.3,0.2c0,0,0,0,0.1,0
	c0,0,0.1,0.1,0.1,0.1c0,0,0.1,0,0,0.1c-0.1,0.1,0.1,0.1,0.2,0.1c0.1,0,0.3,0.1,0.3,0.2c0,0.1,0.1,0.1-0.1,0.3c0,0,0,0,0,0
	c0.2,0,0.3,0.1,0.3,0.2c0,0.2,0.1,0.3,0.2,0.4c0,0.1,0.2,0.2,0,0.4c-0.1,0.2,0.2,0.1,0.2,0.2c0,0,0,0.1,0,0.1c0,0,0,0.1,0.1,0.1
	c0.4,0,0.5,0.1,0.5,0.3c0,0.2,0,0.3,0.1,0.5c0,0,0.1,0,0.2,0.1c0.3,0.1,0.2,0.4,0.2,0.7c0,0.1,0.1,0.1,0.2,0.2
	c0.1,0.1,0.1,0.2,0.1,0.4c0,0.2,0,0.4,0,0.6c0,0.1,0,0.5,0,0.6c0,0.1-0.1,0.5-0.1,0.6c0,0,0,0.8-0.1,0.8c-0.3,0.2-0.1,0.2-0.1,0.3
	c0,0,0,0,0,0.1c-0.1,0.1-0.3,0.2-0.9,0.3c-0.8,0.2-1.4,0.3-1.9,0.3c-0.2,0-0.3,0-0.3,0c-0.1-0.1-0.5,0-0.6-0.1c0,0-0.1-0.3-0.2-0.6
	c-0.1-0.3-0.1-0.6-0.2-0.6c0,0,0,0,0,0c0.1-0.1-0.3-0.1-0.2-0.2c0,0-0.1,0-0.1,0c-0.1,0,0.1-0.3,0-0.3c-0.2,0-0.2-0.1-0.1-0.1
	c0-0.1-0.1-0.1-0.1-0.1c0,0-0.1,0-0.1,0c0.2-0.2-0.1-0.2-0.2-0.2c0,0,0.1-0.2,0.1-0.2c0,0-0.1,0-0.1-0.1c0,0,0-0.1,0-0.1
	c0,0-0.1,0-0.1,0c0,0-0.1,0,0-0.1c0.2-0.1,0-0.1,0-0.2c0-0.1,0-0.1,0-0.2c0-0.1,0-0.2-0.1-0.2l-0.2-0.4c-0.1-0.1-0.1-0.2-0.2-0.4
	c0-0.1-0.1-0.1-0.1-0.3c0-0.1,0-0.2-0.1-0.2c0,0,0,0,0,0c0.3-0.2-0.3-1.1-0.3-1.2c0-0.1-0.5-0.1,0-0.5c0.5-0.3,1-0.6,1.6-1
	c0.3-0.2,0.7-0.4,1-0.6c0.3-0.2,0.5-0.2,0.5-0.2C285,293.3,285.3,293.2,285.3,293.2L285.3,293.2L285.3,293.2z"/>
<path class="st2" d="M257.3,322c0.1-0.1,0.2-0.1,0.2-0.3c0,0,0,0,0,0c0-0.1,0.1-0.1,0.1-0.2c0,0,0.1-0.1,0.1-0.1
	c0.1,0,0.1-0.1,0.2-0.2c0.1-0.1,0.1-0.3,0.3-0.3c0.1,0,0.1-0.1,0.2,0c0,0,0,0,0,0c0-0.2,0.1-0.3,0.3-0.3c0.2-0.1,0.3-0.2,0.4-0.3
	c0.1-0.1,0.2-0.2,0.4-0.2c0.2,0.1,0.1-0.2,0.2-0.3c0,0,0.1,0,0.1-0.1c0,0,0.1-0.1,0.1-0.1c0-0.3,0.1-0.5,0.3-0.5
	c0.2-0.1,0.4-0.1,0.5-0.2c0,0,0-0.1,0.1-0.2c0.1-0.3,0.4-0.3,0.7-0.4c0.1,0,0.1-0.1,0.2-0.2c0.1-0.2,0.2-0.1,0.4-0.2
	c0.2-0.1,0.4-0.1,0.6-0.2c0.1,0,0.6-0.2,0.7-0.3c0.1,0,0.5-0.1,0.6-0.2c0,0,0.8-0.3,0.8-0.3c0.2,0.2,0.2,0,0.3,0c0,0,0.1,0,0.1,0
	c0.1,0,0.2,0.2,0.5,0.7c0.3,0.6,0.6,1.1,0.7,1.5c0.1,0.2,0,0.3,0,0.3c-0.1,0.1,0,0.5-0.1,0.6c0,0-0.4,0.2-0.7,0.4
	c-0.3,0.2-0.7,0.3-0.7,0.4c0,0,0,0-0.1,0c-0.1,0-0.1,0.2-0.2,0.2c0,0,0,0,0,0.1c0,0.1-0.4,0-0.4,0.1c0,0.2-0.1,0.2-0.2,0.1
	c-0.1,0-0.1,0.1-0.1,0.1c0,0,0,0.1,0,0.1c-0.2-0.1-0.2,0.2-0.3,0.3c-0.1,0.1-0.2,0-0.3,0c0,0,0,0.1-0.1,0.1c-0.1,0-0.1,0-0.2,0.1
	c0,0,0,0.1-0.1,0.1c0,0,0,0.1-0.1,0c-0.2-0.1-0.2,0-0.2,0c-0.1,0-0.2,0.1-0.3,0.1c-0.1,0-0.2,0.1-0.3,0.1c-0.2,0.1-0.3,0.2-0.5,0.2
	c-0.2,0.1-0.3,0.1-0.5,0.2c-0.1,0-0.2,0.1-0.4,0.1c-0.1,0-0.2,0-0.3,0.1c0,0,0,0-0.1,0c-0.2-0.1-1.5,0.4-1.7,0.4
	c-0.1,0-0.4,0.3-0.6,0.1c-0.2-0.2-0.3-0.5-0.5-0.7c-0.1-0.1-0.2-0.3-0.2-0.5c-0.1-0.1-0.1-0.2,0-0.3
	C257.3,322.2,257.2,322.1,257.3,322L257.3,322L257.3,322z"/>
</svg>
