<?xml version="1.0" encoding="utf-8"?>
<!-- Generator: Adobe Illustrator 28.2.0, SVG Export Plug-In . SVG Version: 6.00 Build 0)  -->
<svg version="1.1" id="Layer_1" xmlns="http://www.w3.org/2000/svg" xmlns:xlink="http://www.w3.org/1999/xlink" x="0px" y="0px"
	 viewBox="0 0 520 520" style="enable-background:new 0 0 520 520;" xml:space="preserve">
<style type="text/css">
	.st0{opacity:0.75;fill:#FFFFFF;enable-background:new    ;}
	.st1{fill:#FFFFFF;}
	.st2{opacity:0.1;fill:#FFFFFF;enable-background:new    ;}
	.st3{opacity:0.2;fill:#FFFFFF;enable-background:new    ;}
</style>
<path class="st0" d="M243.8,389.1c0,0,2.5-5.1-3.1-8.8c-4.6-3-11,2.2-14.3-1.9c-1.6-2-11.6,0.3-13.2,3.7c-1.6,3.3,18.8,6.8,18.8,6.8
	L243.8,389.1L243.8,389.1L243.8,389.1z"/>
<path class="st1" d="M210,445.5c0,0,15.6-1.7,14.9-4.7c-0.8-3-8.8-2.1-8.8-2.1L210,445.5L210,445.5z M113.6,405.5
	c-0.5,0.1-1.1,0.2-1.6,0.2c-0.2,0-0.4,0.1-0.6,0.1c-0.7,0-1.4-0.2-2-0.3c-0.3,0-0.6-0.1-0.9-0.1c-0.4-0.1-0.7-0.1-1.1-0.3
	c-0.1-0.1-0.1-0.2,0.1-0.4c0.1-0.1,0.3-0.4,0.5-0.4c0.3-0.1,0.7-0.1,1-0.2c0.3,0,0.7,0,1,0.1c0.4,0.1,0.8-0.1,1.2-0.1
	c0.4,0,0.9-0.1,1.4-0.2c0.3,0,0.6-0.1,0.8-0.2c0.4-0.1,0.8-0.3,1.2-0.5c0.3-0.2,0.5-0.5,0.7-0.7c0.1,0,0.1-0.1,0.2-0.1
	c0.1-0.1,0.2-0.1,0.3,0c0.1,0.1,0.2,0.2,0.4,0.3l0.2,0.2c0.2,0.2,0.3,0.5,0.2,0.9c-0.3,0.8-1,1.1-1.6,1.4
	C114.7,405.3,114.1,405.4,113.6,405.5L113.6,405.5L113.6,405.5L113.6,405.5z"/>
<path class="st1" d="M120.7,407.6l-4.6-0.3c-0.6,0-1.1,0-1.7,0c-2-0.1-4-0.4-6-0.6c-0.9-0.1-1.8-0.1-2.7-0.2c-0.6,0-1.1-0.1-1.7-0.1
	c-0.6-0.1-1.1-0.4-1.7-0.6c-0.3-0.2-0.3-0.3,0.1-0.5c0.2-0.1,0.4-0.3,0.7-0.5c0.3-0.2,0.6-0.4,0.9-0.5c0.6-0.1,1.1-0.1,1.7-0.1
	c0.6,0,1.1-0.1,1.7,0c1.1,0,2.3,0.1,3.4,0.3c1.4,0.2,2.8,0.1,4.2,0.1l4.7,0.2l2.9,0.1c1.4,0.1,2.9,0.2,4.4,0.2c1.1,0,2.2-0.1,3.3,0
	c0.2,0,0.5,0,0.7,0c0.9,0.2,1.2,0.4,1.3,0.9c0,0.1,0.1,0.2,0.1,0.4c0.1,0.4-0.4,0.7-1,0.9c-0.5,0.1-1,0.2-1.5,0.4
	c-0.5,0.1-1,0.2-1.5,0.2c-1,0.1-2,0.1-3.1,0.1C123.8,407.8,122.3,407.8,120.7,407.6L120.7,407.6L120.7,407.6z M371.2,336.8
	c0,0-8.6,0.6-6.6,2.5c2,1.9,18.1,4.1,18.1,4.1L371.2,336.8L371.2,336.8L371.2,336.8z M251.6,415c0,0,11.4,3,8.4,7.3
	s-12.5,2.9-12.5,2.9l23.1-0.4c0,0-4.3-6.2-7.3-7.6C260.3,415.8,251.6,415,251.6,415L251.6,415L251.6,415z M198.7,427.5l3.7-0.8
	c0.4-0.1,0.9-0.3,1.3-0.4c1.6-0.3,3.2-0.6,4.8-0.7c0.7-0.1,1.4-0.2,2.1-0.2c0.9-0.1,1.8-0.1,2.7-0.1c0.3,0,0.3,0.1,0,0.3
	c-0.2,0.2-0.6,0.5-1.1,0.7c-0.9,0.3-1.7,0.6-2.6,1c-0.9,0.2-1.8,0.4-2.7,0.5c-1.1,0.1-2.2,0.5-3.3,0.8l-3.6,0.9l-2.2,0.6
	c-1.1,0.3-2.2,0.6-3.3,1c-0.9,0.3-1.6,0.7-2.5,1.1c-0.2,0.1-0.4,0.2-0.5,0.2c-0.7,0.3-1,0.1-1.3-0.4c-0.1-0.1-0.1-0.2-0.2-0.3
	c-0.2-0.4,0-0.9,0.4-1.1c1.4-0.8,2.9-1.4,4.5-1.9C196.3,428.1,197.5,427.8,198.7,427.5L198.7,427.5L198.7,427.5L198.7,427.5z"/>
<path class="st1" d="M172.1,276.2c0,0-8.9-6-15.1-3.6c-6.2,2.3-15.4,9.3-17.2,17.2c-1.8,7.9-0.6,21.7,0,30.5c0.6,8.8,8,37,8,37
	s17.7,50.9,21.8,60.2s5.8,11.1,12.6,10.3c6.8-0.8,31.3-1.2,41.2-5.8c9.9-4.6,11.5-3.4,11.5-3.4l-6.3-28.4c0,0-29.9-9.5-39.8-21
	s-20-29-21.6-38.4s-3.4-32.1-1.2-38.8C168.2,285.2,172.1,276.2,172.1,276.2L172.1,276.2z"/>
<path class="st1" d="M159.2,398l-1.6-3.9c-0.2-0.5-0.5-0.9-0.7-1.4c-0.4-0.8-0.6-1.7-0.9-2.5c-0.3-0.8-0.6-1.6-1.1-2.3
	c-0.4-0.6-0.9-1.2-1.4-1.6c-0.2-0.1-0.4-0.3-0.6-0.3c-0.2-0.1-0.4-0.2-0.6-0.2c-0.4-0.1-0.8-0.3-1.2-0.5c-0.3-0.3-0.3-0.3,0-0.7
	c0.2-0.4,0.9-0.9,1.7-0.8c1.3,0.3,2.4,1.1,3.2,2c0.8,0.9,1.4,1.9,1.8,2.9c0.5,1.2,1.2,2.3,1.7,3.5l1.7,3.8l1,2.4
	c0.5,1.2,1.1,2.4,1.6,3.5c0.5,0.9,1,1.7,1.6,2.5c0.1,0.2,0.2,0.4,0.4,0.5c0.4,0.7,0.2,1.1-0.2,1.5c-0.1,0.1-0.2,0.2-0.3,0.3
	c-0.4,0.3-0.9,0.1-1.3-0.3c-1.3-1.4-2.2-3-3.1-4.6C160.2,400.6,159.7,399.3,159.2,398L159.2,398L159.2,398L159.2,398z M327.8,326.1
	c0,0-8.6,22.4-11.3,27.5s6.8-2,14.8,1.5c5.9,2.5-14.8,5.1-14.8,5.1s-5.5,1.5-10,5.1s-22,20.1-45.6,23.9c-5.4,0.9-3.2,19.1-3.2,19.1
	s65.6,2.8,85.5-4.1c20-6.9,28.5-10.5,30.3-16s4.6-19-1.8-27.6s-18.4-22.6-24.1-25.4S327.8,326.1,327.8,326.1L327.8,326.1
	L327.8,326.1z M248.3,392.5c-0.3,2.2-2.2,14.2,0,15.7s-8.8,0.1-8.8,0.1l-1.6-16.5L248.3,392.5L248.3,392.5L248.3,392.5z"/>
<path class="st2" d="M372.5,327.1c0,0-1.6,6.8-0.3,8.9s15,9.2,15,9.2s16.5,2.3,16.7,1.2s-5.1-5.4-5.1-5.4s12.8,0.6,16.8,1.6
	s9.8,4.2,10.5,2.5c0.8-1.8-0.9-4.8-0.9-4.8s6.1,1.7,5-0.3s-4.8-4-4.8-4s2.5-2.6,0-4.5c-2.5-1.9-15.5-5.5-15.5-5.5s-13.9,0.2-14.4,0
	s-6.2-2.9-6.2-2.9L372.5,327.1L372.5,327.1L372.5,327.1z"/>
<path class="st1" d="M352.9,326.1c0.6,0.9,1.6,1.5,2.7,1.8c0.4,0.1,0.9,0.1,1.3,0.1c1.6,0.1,3.4-0.2,5.1-0.6
	c0.8-0.2,1.5-0.4,2.3-0.6c1-0.3,1.9-0.5,3-0.7c0.3,0,0.3,0.1,0.1,0.4c-0.2,0.3-0.6,0.7-1.1,1c-0.9,0.5-1.9,0.9-2.9,1.3
	c-1,0.4-2,0.6-3.1,0.8c-1.3,0.2-2.6,0.5-4,0.4c-1.5-0.1-3.2-0.6-4.3-1.7c-0.7-0.6-1.3-1.4-1.8-2.2c-0.7-1.2-1-2.5-1.5-3.8
	c-0.3-1-0.8-1.8-1.2-2.7l-0.3-0.6c-0.3-0.7-0.2-1,0.1-1.4c0.1-0.1,0.2-0.2,0.2-0.3c0.3-0.2,0.7-0.1,1.2,0.4c0.6,0.8,1.1,1.6,1.5,2.5
	c0.4,0.9,0.6,1.8,1,2.6C351.7,324,352.2,325.2,352.9,326.1L352.9,326.1L352.9,326.1L352.9,326.1z M383.4,326.9
	c-0.9,0.2-1.9,0.4-2.8,0.7c-0.3,0.1-0.6,0.2-1,0.3c-1.2,0.3-2.4,0.5-3.6,0.8c-0.5,0.1-1,0.3-1.6,0.5c-0.6,0.3-1.3,0.4-2,0.4
	c-0.2,0-0.3-0.2-0.2-0.5s0.3-0.8,0.6-1.1c0.3-0.2,0.6-0.4,0.9-0.6c0.3-0.2,0.6-0.3,1-0.5c0.6-0.3,1.3-0.5,2-0.6
	c0.9-0.1,1.6-0.6,2.5-0.8c0.9-0.3,1.8-0.6,2.7-0.8l1.7-0.5c0.9-0.3,1.7-0.5,2.5-0.8c0.6-0.3,1.3-0.7,1.9-1c0.1-0.1,0.3-0.1,0.5-0.2
	c0.6-0.1,0.9,0.1,1.1,0.8c0,0.1,0.1,0.3,0.1,0.4c0.1,0.5,0,1-0.4,1.2c-0.9,0.8-2,1.1-3.2,1.5C385.3,326.4,384.4,326.6,383.4,326.9
	L383.4,326.9L383.4,326.9L383.4,326.9z M268.4,389.8c-1.7,0.5-3.5,0.7-5.2,1.1c-1.7,0.3-3.5,0.6-5.2,0.8c-1.3,0.1-2.5,0.3-3.8,0.5
	c-4.5,0.3-9,0.3-13.5,0l-3-0.2l-3-0.3c-1.3-0.1-2.5-0.4-3.8-0.6c-0.6-0.1-1.2-0.3-1.9-0.5c-0.6-0.2-1.2-0.4-1.8-0.5
	c-0.8-0.2-0.7-0.2,0-0.2c0.7,0.1,1.9,0,3.4,0c2.6,0.2,5.1,0.4,7.7,0.6l3.8,0.2c1.3,0,2.6,0.1,3.9,0.1c1.5,0,3.1,0,4.7-0.2
	c1.6-0.2,3.2-0.2,4.7-0.5l2.6-0.3c0.9-0.1,1.7-0.3,2.6-0.4c1.7-0.3,3.4-0.7,5.1-1c1-0.2,2.1-0.5,3.1-0.8c1-0.3,2.1-0.5,3.1-0.9
	c3.1-1,6.1-2.2,9-3.6c1.1-0.6,2.2-1.1,3.2-1.8l3.1-2c0.5-0.3,0.9-0.6,1.3-1c1.6-1.2,2.3-1.4,3-1.1c0.2,0.1,0.4,0.1,0.5,0.2
	c0.4,0.3,0,1.1-1.2,2c-3.5,2.9-7.8,5.1-12.2,7l-2.5,1l-2.5,0.9C271.9,388.9,270.1,389.4,268.4,389.8L268.4,389.8L268.4,389.8
	L268.4,389.8z"/>
<path class="st0" d="M281.6,237.6c0.7,0.4-6.4,7.9-5.6,12.2c1.6,8,7.8,3.2,10.4,7.2c2.6,4,0.2,8.9,3.7,10.7c9.1,4.6,19.4-7,19.4-7
	L281.6,237.6L281.6,237.6L281.6,237.6z"/>
<path class="st3" d="M193.5,249c-0.2,3.2,5.6,9.6,11.4,15.4s-4.4,10.4-3.5,16.4c1,5.9,0.9,10.1-3.7,12.7s-11.8-2.7-14.6,0.8
	c-9,11.3-18.7,11.7-18.7,11.7s7.8-33.4,15.5-42.4C187.6,254.4,193.5,249,193.5,249L193.5,249L193.5,249z M287.7,380.4
	c-0.5-2,8-17.1-0.5-21.9c-8.5-4.7-20.6-8.8-18.1-17.7c2.5-8.9,12.7-11.2,10.8-17.5c-1.3-4.4-1.6-10.5-0.5-14.7
	c1.7-6.4,12.7-7.4,15.5-6.8c8.3,2,10.1,7.1,16.4,4s9-6.6,9-6.6l5.2-5.9c0,0,3.8,18.3,1.7,28.8c-2.1,10.5-11.5,30.1-12.6,33.1
	C311.1,364.6,287.7,380.4,287.7,380.4L287.7,380.4L287.7,380.4z"/>
<path class="st1" d="M169.2,283.6c0.7-1.6,1.4-3.2,2.3-4.8c0.4-0.8,0.8-1.6,1.2-2.3l1.3-2.3c0.6-1.1,1.3-2.2,1.9-3.3
	c1.2-1.9,2.5-3.7,3.8-5.6c1.4-1.8,2.7-3.6,4.1-5.3c1.2-1.6,2.6-3,3.9-4.5l2.6-2.7c0.9-0.9,1.9-1.7,2.9-2.5c0.6-0.5,0.6-0.4,0.2,0.2
	c-0.4,0.5-1,1.6-2,2.7l-2.4,3c-0.8,1-1.5,2-2.4,3c-1.6,2-3.2,4-4.7,6.1c-1.9,2.5-3.4,5.2-5,8c-0.9,1.5-1.6,3-2.5,4.5
	c-0.8,1.5-1.6,3.1-2.3,4.7l-1.3,2.9c-0.4,1-0.8,2-1.2,3c-1.2,3-2.1,6.1-2.9,9.2c-0.5,2.4-0.8,4.9-1.1,7.3c-0.1,0.5-0.1,1.1-0.1,1.6
	c-0.2,2-0.4,2.6-0.9,3c-0.1,0.1-0.2,0.2-0.4,0.3c-0.4,0.2-0.7-0.7-0.7-2.2c0-0.6,0-1.1,0-1.7c0-0.6,0.1-1.1,0.1-1.7
	c0.1-1.1,0.1-2.3,0.3-3.5c0.2-1.2,0.4-2.3,0.7-3.5c0.3-1.1,0.6-2.3,0.9-3.5c0.5-1.7,1.1-3.4,1.7-5.1
	C167.9,286.9,168.5,285.2,169.2,283.6L169.2,283.6L169.2,283.6L169.2,283.6z M328.2,315.9c-0.2,1.8-0.4,3.6-0.7,5.4
	c-0.1,0.9-0.3,1.8-0.5,2.7l-0.6,2.7c-0.2,1.3-0.5,2.6-0.9,3.9c-0.6,2.3-1.4,4.5-2.2,6.7l-1.3,3.2c-0.4,1.1-1,2.1-1.4,3.2l-0.6,1.4
	c-0.2,0.5-0.5,0.9-0.7,1.4c-0.5,0.9-1,1.8-1.5,2.7c-0.7,1.1-1.4,2.2-2.1,3.4c-0.3,0.6-0.8,1.1-1.2,1.6c-0.4,0.5-0.8,1-1.2,1.5
	c-0.5,0.6-0.5,0.5-0.2-0.1c0.3-0.6,0.7-1.9,1.5-3.2l1.9-3.5c0.6-1.2,1.1-2.4,1.7-3.6c1.1-2.4,2.2-4.8,3.1-7.3c1.2-3,2-6.2,2.7-9.3
	c0.4-1.7,0.8-3.5,1.1-5.2c0.2-1.8,0.6-3.5,0.8-5.3l0.3-3.3c0.1-1.1,0.1-2.2,0.2-3.3c0.1-1.7,0-3.4,0-5c0-1.7-0.2-3.3-0.4-5
	c-0.2-1.3-0.4-2.5-0.6-3.8s-0.6-2.5-0.9-3.7c-0.1-0.5-0.3-1.1-0.5-1.6c-0.3-1-0.5-1.7-0.5-2.2c0-0.5,0.1-0.8,0.3-1.1
	c0.1-0.1,0.2-0.3,0.2-0.4c0.2-0.3,1,0.4,1.6,1.9c1.6,4.4,2.5,9.4,2.7,14.3c0.1,1.8,0.1,3.7,0.1,5.5l-0.1,2.8
	C328.4,314.1,328.4,315,328.2,315.9L328.2,315.9L328.2,315.9z M302,255c-0.7-0.8-1.3-1.6-2-2.4c-0.7-0.8-1.4-1.5-2.2-2.3
	c-0.5-0.6-1.1-1-1.7-1.6c-1.9-1.9-3.9-3.7-6-5.4c-0.9-0.8-1.9-1.5-2.9-2.1c-1.3-0.8-2.6-1.7-4-2.3c-0.9-0.4,0.3-0.2,2.1,0.4
	c3,1.1,5.9,2.6,8.3,4.7c1.5,1.2,3.1,2.4,4.5,3.7c0.8,0.7,1.6,1.5,2.3,2.2c0.8,0.8,1.5,1.6,2.2,2.4c0.9,1,1.8,2,2.6,3
	c0.6,0.8,1.3,1.6,1.9,2.4c0.6,0.8,1.2,1.6,1.8,2.5c0.5,0.6,0.9,1.3,1.3,1.9c0.5,0.6,0.9,1.3,1.3,2c0.2,0.3,0.4,0.6,0.5,0.9
	c0.5,1.2,0.5,1.6,0,2.1c-0.1,0.1-0.2,0.2-0.3,0.3c-0.4,0.2-1-0.1-1.4-0.8c-1.4-2.2-2.9-4.5-4.5-6.7C304.6,258.2,303.3,256.5,302,255
	L302,255L302,255L302,255z"/>
<path class="st0" d="M204.8,321.4c-4.9,0-8.6,6.1-4.2,9.6c3,2.4,5.4,2.2,6.2,5.4s10.2,4.8,13.3,3c2.3-1.4,9.1-9.4,3.4-13
	c-1.7-1.1-6.2,0-8.2-0.9C212.1,324,209,321.4,204.8,321.4L204.8,321.4z"/>
<path class="st2" d="M243.8,223.2c0,0,2.9-1.5,3.3-4.3c0.4-2.8-5-10.1-8.7-9.4c-3.7,0.7-18.1,4.9-21.1,9.9s-4.3,9.4-4.7,13
	s-1.1,11.5,0.8,11.1s5.2-8.1,5.2-8.1l1.1-4.2c0,0,4.9,12.5,6.8,13.4c1.8,0.9,2-7,2-7l-1.7-8.2c0,0,6.2,11.8,8.5,12.3
	s8.7-2.2,8.6-7.9C243.8,228.2,243.8,223.2,243.8,223.2L243.8,223.2L243.8,223.2z M253.1,176.8c0,0,17.9-1.5,24.1-8.4
	c4.5-5,8.8-10.5,11.5-16.6c0.5-1,4-13.4,3.1-13.4c0,0,9.8-2.6,9.8-6.1c0-3.5,2.8-8.4,0-10.7c-2.8-2.3-10.9-3.5-10.9-3.5
	s-2.5,10.8-6.5,10.7s-7-3.5-6.4-5.6c0.6-2.1-0.9-10.8-0.9-10.8s-23.1-16.5-24.1-23.7c-1-7.2-5.7-0.3-13.9,7
	c-8.2,7.3-4.6,22.2-9.9,23.8s-14.9,15.6-14.9,15.6s0.9,9.8,4.6,16.6s13,14,15.8,17.2C237.5,171.8,253.2,176.7,253.1,176.8
	L253.1,176.8L253.1,176.8z"/>
<path class="st1" d="M220.4,192.4c1-0.6,2.1-1.2,3.1-1.8c0.4-0.2,0.7-0.5,1.1-0.7c1.3-0.8,2.6-1.6,3.9-2.4c0.6-0.4,1.1-0.8,1.6-1.2
	c0.6-0.6,1.4-1.1,2.1-1.5c0.2-0.1,0.3,0,0.2,0.2c-0.1,0.3-0.2,0.8-0.5,1.2c-0.5,0.8-1.1,1.4-1.8,2.1c-0.3,0.3-0.6,0.6-1,0.9
	c-0.4,0.3-0.7,0.5-1.1,0.8c-0.9,0.6-1.8,1.4-2.6,2c-1,0.7-2.1,1.3-3.1,1.9c-0.6,0.4-1.3,0.8-2,1.1l-3,1.6c-0.8,0.4-1.5,0.9-2.2,1.3
	c-0.2,0.1-0.3,0.2-0.5,0.3c-0.6,0.3-0.9,0.3-1.2,0c-0.1-0.1-0.1-0.1-0.2-0.2c-0.2-0.2,0-0.6,0.4-0.9c1.2-1,2.4-2.1,3.8-2.9
	C218.4,193.6,219.4,193,220.4,192.4L220.4,192.4L220.4,192.4L220.4,192.4z M326.3,190.1c-0.4-0.4-0.9-0.8-1.3-1.2l-1.3-1.2
	c-0.9-0.8-1.9-1.5-2.8-2.2c-0.7-0.5-1.5-0.9-2.2-1.4c-2.5-1.7-5.2-3.2-7.9-4.5c-0.6-0.3-1.2-0.5-1.9-0.8c-0.6-0.2-1.3-0.5-1.9-0.7
	l-2.5-0.9c-0.8-0.2-1.7-0.5-2.5-0.8c-0.5-0.2-0.5-0.2,0-0.2c0.5,0,1.4-0.2,2.4-0.2c0.9,0.1,1.8,0.2,2.8,0.3s1.8,0.5,2.7,0.7
	c0.9,0.3,1.8,0.6,2.6,1l1.3,0.6c0.4,0.2,0.8,0.4,1.2,0.7c1,0.6,2,1.1,2.9,1.6c1,0.5,2,1.1,2.9,1.7l1.5,1l1.5,1.1
	c1,0.7,2,1.5,2.9,2.3c0.6,0.5,1.1,1,1.7,1.5c0.5,0.5,1.1,1,1.6,1.6c0.8,0.8,1.6,1.6,2.4,2.5l1.1,1.3l1.1,1.3
	c0.6,0.7,1.1,1.4,1.6,2.1l0.8,1.1c0.2,0.4,0.5,0.7,0.7,1.1c0.2,0.3,0.4,0.6,0.6,1c0.6,1.4,0.6,1.9,0.4,2.3c-0.1,0.1-0.1,0.2-0.2,0.3
	c-0.2,0.2-0.7-0.2-1.4-1c-0.5-0.6-1-1.2-1.5-1.8c-0.3-0.3-0.5-0.6-0.7-0.9l-0.8-0.9c-0.5-0.6-1-1.2-1.5-1.8c-0.5-0.6-1-1.2-1.6-1.8
	c-0.8-0.9-1.6-1.7-2.4-2.6C328.1,191.7,327.2,190.9,326.3,190.1L326.3,190.1L326.3,190.1L326.3,190.1z M276.3,170.6
	c-0.4,0.5-4.2,9.5-18.4,12.2c-7.8,1.4-12-1.7-14.3,1c-1.5,1.8,0,4.8,3.1,7c3.2,2.4,8.2,4,11.1,4c-2.6,0-13.6,0.9-18-6.6
	c-1.9-3.2-2-7.6-2-7.6c-1-3.3,2.3-7.2,2.3-7.2s9.1,2.6,13.1,3.2C259.8,177.9,275.7,170.9,276.3,170.6L276.3,170.6L276.3,170.6z
	 M303.5,129c0,0,22.3-2.7,22.1-20.7c-0.2-17-17.1-21.3-20.2-20.2s-5.9,0.5-6.5-4.3c-0.6-4.8-0.9-10.6-4.7-14
	c-11.2-10.1-26.8-5.8-26.8-5.8l-12.6,6.6c0,0-3.9,8.2-2.8,14s5.7,15.7,9,19c3.2,3.3,15.6,13.6,15.6,13.6s2.2,11.6,3.7,12.4
	c1.5,0.8,5.5-1.8,5.5-1.8l5-8.7c0,0,7.8-1.6,9.2-0.2C301.4,120.2,303.5,129,303.5,129L303.5,129L303.5,129z"/>
<path class="st1" d="M249.8,65.9l5.1,4.6l-5,22.5c0,0-12,6.7-14.2,11.2c-2.1,4.5-3.4,12.4-5.2,14.8c-1.8,2.3-10.2,6.6-11.4,8.6
	c-1.8,3-13.1,12.2-25.2,7.9c-6.6-2.3-13.1-12.3-11.7-20.8c0,0,7.7-7,7.9-9s-1.1-13-1.1-13s1.4-7.2,4.8-7.7s10.6-5.8,10.6-5.8
	l8.6-11.9c0,0,7.7-7.5,13-7.5s19.1,3,19.1,3L249.8,65.9L249.8,65.9L249.8,65.9z M408.5,324.6c1.1,0,2.2,0.1,3.3,0.1
	c0.5,0,1.1,0.1,1.7,0.1c0.5,0,1.2,0.1,1.8,0.3c0.4,0.1,0.9,0.2,1.3,0.3c0.4,0.1,0.8,0.2,1.2,0.4c2.8,1.1,5.2,2.6,7.5,4.5l0.7,0.7
	l0.7,0.7c0.2,0.2,0.4,0.5,0.6,0.8c0.1,0.1,0.2,0.3,0.3,0.5l0.3,0.6c0.2,0.3,0.2,0.5,0.3,0.8c0,0.3,0.2,0.5,0.1,0.8
	c0,0.2,0,0.5-0.1,0.8l-0.2,0.4c-0.1,0.1-0.1,0.2-0.2,0.3c-0.2,0.2-0.4,0.2-0.5,0.2c-0.1,0-0.2,0-0.4-0.1c-0.1,0-0.1,0-0.2-0.1
	s-0.2-0.1-0.3-0.1c-0.1,0-0.5-0.3-0.9-0.7c-0.2-0.4-0.4-0.7-0.4-0.8c-0.1-0.1-0.1-0.2-0.1-0.2c0,0,0.2-0.1,0.3-0.1
	c0.1,0,0.1-0.1,0.1-0.2c0-0.1-0.1-0.3-0.1-0.3c0,0,0,0,0,0c0,0,0,0-0.1-0.1c-0.2-0.2-0.4-0.5-0.6-0.8c-1-1-2.2-1.9-3.4-2.8
	c-1.5-1.1-3.3-1.8-5.1-2.4c-0.5-0.2-1-0.3-1.5-0.4c-0.5-0.1-0.9-0.2-1.5-0.2c-1-0.1-2.1-0.1-3.2-0.1c-1.3,0-2.7,0-4,0l-6.1-0.1
	c-1.6,0-3.2,0.1-4.8,0c-0.4,0-0.7,0-1.1-0.1c-1.3-0.3-1.7-0.6-1.8-1.3c0-0.1,0-0.3,0-0.5c0-0.5,0.6-0.7,1.5-0.7c2.6-0.1,5.4,0,8.4,0
	L408.5,324.6L408.5,324.6L408.5,324.6z M253.8,400.3c-0.1,1.2-0.1,2.5-0.1,3.7c0,0.5,0.1,0.9,0.1,1.4c-0.1,1.6-0.2,3.3-0.3,4.9
	l-0.1,2.2c0,0.9-0.2,1.9-0.6,2.7c-0.1,0.3-0.2,0.2-0.4,0c-0.2-0.3-0.5-0.7-0.6-1.2c-0.4-1.8-0.5-3.6-0.4-5.4
	c0.1-1.1-0.2-2.2-0.3-3.4c-0.1-1.2-0.1-2.5-0.2-3.8l-0.1-2.4c-0.1-1.2,0-2.4-0.1-3.5c-0.1-0.9-0.4-1.8-0.5-2.7
	c0-0.2-0.1-0.4-0.1-0.6c-0.1-0.8,0.1-1,1.1-1.1c0.2,0,0.4-0.1,0.7-0.1c0.8-0.1,1.4,0.2,1.6,0.8c0.6,1.6,0.7,3.2,0.7,4.9
	C253.9,397.8,253.9,399,253.8,400.3L253.8,400.3L253.8,400.3L253.8,400.3z M121,398c-1.1,0.3-2.2,0.6-3.1,1.1
	c-0.4,0.2-0.8,0.5-1,0.8c-0.3,0.2-0.3,0.4-0.3,0.6c0,0,0,0.1,0,0.1c0,0,0,0.1,0,0.2c0,0.2,0.1,0.1,0.1,0.2c0.1,0.1,0.4,0.4,0.8,0.6
	c0.8,0.5,1.9,0.9,3,1.2c1.7,0.5,3.4,0.8,5.2,1c6.2,1,12.7,1.5,19.2,1.6c2.9,0,5.8-0.1,8.6-0.3c1.8-0.1,3.6-0.3,5.5-0.5
	c0.9,0,1.8-0.1,2.8-0.1l1.4,0c0.5,0,0.9,0.1,1.4,0.2c1.2,0.3,1,0.3,0.1,1c-0.9,0.8-2.6,2.2-4.7,2.4c-3.8,0.5-7.6,0.7-11.4,0.7
	c-3.8,0-7.6-0.1-11.4-0.4c-4.6-0.4-9.3-0.6-14.1-1.4c-1.3-0.3-2.6-0.5-3.9-1c-1.3-0.4-2.6-0.9-3.9-1.8c-0.3-0.2-0.6-0.5-0.9-0.9
	c-0.3-0.4-0.6-0.8-0.8-1.3c-0.1-0.3-0.2-0.5-0.2-0.7c0-0.2-0.1-0.5-0.1-0.7c0-0.5,0-1,0.2-1.4c0.1-0.5,0.4-0.9,0.6-1.2
	c0.3-0.3,0.6-0.7,0.9-0.9c0.3-0.2,0.6-0.5,0.9-0.7c0.3-0.2,0.6-0.4,1-0.5c1.6-0.8,3.2-1.2,4.8-1.5c1.6-0.3,3.2-0.6,4.8-0.8
	c4.8-0.6,9.6-0.7,14.3-1c0.3,0,0.6-0.1,0.9-0.1l0.2,0l0.1,0c0.1,0,0.2,0,0.2-0.1c0.2-0.1,0.3-0.2,0.5-0.4c0.2-0.2,0.4-0.5,0.6-0.9
	c0.4-0.6,0.9-1.3,1.3-1.9c0.9-1.3,2-2.5,3.2-3.6c0.3-0.3,0.7-0.6,1-0.8c0.4-0.3,0.7-0.5,1.1-0.7c1.5-0.8,2.6-1.1,3.4-1.1
	c0.8,0,1.3,0.3,1.7,0.7c0.2,0.2,0.4,0.4,0.5,0.6c0.2,0.3,0,0.7-0.5,1c-0.2,0.2-0.5,0.3-0.9,0.5c-0.3,0.2-0.7,0.4-1.1,0.6
	c-1.7,0.8-3.2,2-4.4,3.5c-0.7,0.7-1.3,1.5-1.9,2.5l-1,1.4c-0.1,0.1-0.2,0.3-0.3,0.4c-0.1,0.1-0.2,0.3-0.5,0.5
	c-0.2,0.2-0.4,0.4-0.6,0.5c-0.2,0.1-0.5,0.3-0.7,0.4c-0.3,0.1-0.5,0.2-0.8,0.2l-0.4,0.1l-0.3,0c-0.3,0-0.6,0.1-0.9,0.1l-1.8,0.1
	c-1.1,0.1-2.3,0.1-3.4,0.2c-2.5,0.1-5,0.3-7.5,0.5C125.8,397.1,123.3,397.4,121,398L121,398L121,398L121,398z M168,456.9
	c0.1,0.2,0.1,0.3,0.4,0.5c0.2,0.2,0.6,0.3,1.1,0.5c1,0.2,2.2,0.2,3.5,0.2c2.5-0.2,5.1-0.8,7.7-1.5c1.9-0.5,3.7-1.2,5.5-1.9
	c3.3-1.1,6.5-2.4,9.6-3.9c3.2-1.4,6.3-3,9.3-4.7c2.6-1.6,5.2-3.4,7.3-5.4c0.7-0.7,1.3-1.3,1.8-2c0.2-0.4,0.4-0.7,0.6-1l0.1-0.2
	l0.1-0.4l0.2-0.8c0.7-1.9,1.3-3.3,0.8-5.1c-0.3-1.1-0.2-1.2,0.9-0.5c0.5,0.4,1.2,1,1.7,2.1c0.5,1.1,0.5,2.6,0.3,3.8
	c-0.1,0.5-0.2,1-0.3,1.4l0,0.2c0,0,0,0.1-0.1,0.2c-0.1,0.2-0.1,0.4-0.2,0.6c-0.1,0.4-0.3,0.7-0.5,1c-0.7,1.2-1.4,2.1-2.2,2.9
	c-1.6,1.6-3.3,2.9-5.1,4.1c-3.5,2.4-7.2,4.3-11,6c-4.6,2-9.2,4.2-14.1,5.8c-2.7,0.9-5.4,1.6-8.2,2.2c-1.4,0.3-2.8,0.5-4.3,0.5
	c-1.5,0.1-3,0-4.6-0.4c-1-0.3-2-0.8-2.8-1.7c-0.8-0.9-1.1-2.1-1-3.3c0.1-1.1,0.5-2.1,1-2.9c0.5-0.8,1-1.6,1.6-2.2
	c1.8-2,3.9-3.7,5.9-5.3c2.1-1.6,4.1-3.1,6.2-4.6c1.6-1.2,3.1-2.4,4.6-3.6c0.7-0.6,1.5-1.3,2.1-1.9c0.7-0.6,1.3-1.3,1.8-2
	c0.4-0.6,0.7-1.1,0.8-1.7c0.2-1,0-1.9-0.1-2.5c0-0.7,0.1-1.2,0.5-1.7c0.1-0.2,0.3-0.5,0.4-0.7c0.3-0.3,0.7-0.2,1.2,0.3
	c0.5,0.5,1.1,1.3,1.4,2.7c0.3,1,0.2,2.4-0.2,3.6c-0.4,1.2-1.1,2.1-1.8,3c-1.4,1.6-2.8,2.7-4.3,3.9c-2.9,2.3-6,4.4-8.9,6.6
	c-2.1,1.6-4.3,3.2-6.1,5.1c-0.9,0.9-1.7,1.9-2.2,2.8c-0.3,0.5-0.4,0.9-0.5,1.2C167.9,456.4,168,456.6,168,456.9L168,456.9L168,456.9
	L168,456.9z"/>
<path class="st1" d="M165,412c-5-13.3-9.8-26.7-14.3-40.2c-1.7-4.9-3.4-9.8-4.9-14.8c-2.7-8.7-5.4-17.5-7.4-26.5
	c-1-4.5-1.6-9.1-2-13.7c-0.4-4.6-0.5-9.2-0.2-13.9c0.3-4.1,0.9-8.2,2-12.3c1.1-4,2.8-8,5.5-11.3c1.7-2.2,3.8-4,6.1-5.5
	c1.2-0.7,2.4-1.3,3.7-1.8c1.3-0.5,2.7-0.9,4.1-1.1c1.4-0.2,2.8-0.2,4.2,0c1.4,0.2,2.7,0.4,4,0.9c1.3,0.4,2.5,1,3.7,1.6
	c1.2,0.6,2.2,1.5,3.2,2.3c1.2,1.1,1.7,1.6,1.6,1.6c-0.1,0-0.8-0.4-2-0.9c-2.6-1-7.5-2.3-12.6-2c-1.1,0.1-2.2,0.2-3.3,0.5
	c-1.1,0.3-2.2,0.8-3.2,1.3c-2.1,1.1-3.9,2.5-5.5,4.3c-3.1,3.5-5.1,8.1-6.3,13c-1.2,4.9-1.6,10-1.7,15.1c0,5.2,0.4,10.4,1.1,15.5
	c0.9,6.1,2.6,12.4,4.4,18.6c1.8,6.2,3.9,12.5,5.9,18.6c4.4,13.5,9.2,27,14.1,40.4c1.5,4.1,3.1,8.2,4.6,12.3c0.8,2,1.6,4.1,2.4,6.1
	l1.3,3l0.7,1.5c0.1,0.3,0.2,0.3,0.2,0.5c0.1,0.1,0.1,0.3,0.3,0.3h0c0.1,0,0.2,0.1,0.3,0.1l0.5,0.1c0.3,0.1,0.8,0.1,1.1,0.2
	c0.8,0.1,1.6,0.2,2.4,0.2c1.6,0.1,3.2,0.1,4.9,0.1c3.3-0.1,6.6-0.3,9.9-0.6c6.6-0.7,13.1-1.7,19.6-2.9c5-1,10-2.1,14.8-3.6
	c1.2-0.4,2.4-0.7,3.6-1.2c0.3-0.1,0.6-0.2,0.9-0.3l0.4-0.2l0.2-0.1l0.4-0.2c0.1,0,0.2-0.2,0.2-0.3c0-0.1,0-0.3,0-0.4l-0.1-0.5
	c-0.1-0.6-0.2-1.2-0.4-1.8c-0.3-1.2-0.6-2.4-0.9-3.6c-0.6-2.1-1.2-4.2-1.9-6.4c-2.3-8-2.7-10.8-2.1-12.8c0.1-0.5,0.2-1,0.4-1.3
	c0.6-0.9,1.8,2.2,3.6,8c1.4,4.3,2.8,8.7,4,13.2c0.3,1.1,0.6,2.3,0.9,3.5l0.1,0.5l0,0.2l0.1,0.4c0.1,0.5,0.1,1.1,0.1,1.6
	s-0.1,1-0.3,1.5c-0.2,0.5-0.7,0.7-1.1,1c-0.5,0.2-0.9,0.5-1.4,0.8l-1.1,0.4c-0.6,0.2-1.2,0.4-1.7,0.6c-1.2,0.4-2.3,0.7-3.5,1
	c-9.3,2.6-18.8,4.3-28.5,5.5c-4.3,0.6-8.6,1-13,1.3c-2.2,0.1-4.4,0.2-6.7,0.1c-1.1,0-2.3-0.1-3.4-0.2c-0.6,0-1.2-0.2-1.8-0.3
	c-0.3-0.1-0.6-0.2-1-0.2c-0.2,0-0.4-0.1-0.7-0.2l-0.7-0.3l-0.4-0.3c-0.1-0.2-0.2-0.2-0.4-0.4c-0.1-0.1-0.2-0.2-0.3-0.4
	c-0.1-0.1-0.2-0.3-0.3-0.4c-0.4-0.7-0.5-0.9-0.6-1.3l-0.9-2c-0.6-1.3-1.1-2.7-1.6-4C167,417.4,165.9,414.7,165,412L165,412L165,412
	L165,412z M336.9,403.1c5.1-0.9,10.3-2.1,15.2-3.6c4.9-1.6,9.8-3.5,13.9-6.3c3-2,5.5-4.7,6.7-7.8c0.6-1.4,0.8-2.8,0.9-4.5l0.1-1.2
	c0-0.4,0-0.8,0-1.2c0-0.8,0-1.6,0-2.4c-0.2-3.2-0.9-6.5-2-9.6c-2.2-6.2-5.8-11.9-10.3-16.9c-4-4.5-8.6-8.4-13.4-11.8
	c-3.1-2.2-6.4-4.1-9.8-5.9c-1.7-1-3.4-1.8-5.1-2.6c-1.7-0.9-3.4-1.7-5.2-2.4c-1.1-0.4-1.6-0.4-1.6-0.6c0-0.1,0.6-0.2,1.7-0.2
	c1,0,2.6,0,4.4,0.4c0.9,0.2,1.9,0.3,2.9,0.6c1,0.3,2,0.7,3.1,1.2c0.9,0.4,1.8,0.8,2.7,1.3c0.9,0.5,1.8,1,2.6,1.5
	c1.8,1,3.5,2.1,5.1,3.2c3.4,2.3,6.5,4.7,9.6,7.5c6,5.5,11.3,11.9,14.7,19.5c2,4.5,3.4,9.5,3.9,14.5c0.1,1.3,0.1,2.5,0.1,3.8
	l-0.1,1.9c0,0.6,0,1.3-0.2,2c-0.2,1.4-0.6,2.7-1.1,3.9c-0.6,1.2-1.3,2.4-2.1,3.5c-1.8,2.3-4,4.2-6.3,5.7c-2.3,1.5-4.8,2.8-7.3,3.9
	c-5,2.2-10.3,3.7-15.5,4.9c-6.5,1.5-13,2.5-19.6,3.4c-10,1.2-20,1.8-29.9,2.2c-7.7,0.3-15.3,0.6-22.9,0.5c-1.7,0-3.3,0-5-0.1
	c-6.3-0.3-8.4-1-9.5-2.2c-0.3-0.3-0.6-0.6-0.7-0.9c-0.1-0.2,0.1-0.4,0.3-0.5c0.2-0.1,0.6-0.2,1.2-0.2c1.1-0.1,2.8-0.1,5.1,0
	c6.7,0.2,13.6,0.2,20.7,0.1c7-0.1,14.2-0.4,21.3-0.8C315.9,406,326.5,404.9,336.9,403.1L336.9,403.1L336.9,403.1L336.9,403.1z"/>
<path class="st1" d="M317.9,358.6c1.5-0.3,2.9-0.5,4.4-0.6c0.5-0.1,1-0.2,1.6-0.2c1.9-0.1,3.8-0.1,5.6,0h2.5c1,0,2.1,0.1,3.1,0.4
	c0.3,0.1,0.3,0.3,0,0.6c-0.3,0.3-0.8,0.8-1.4,0.9c-2.1,0.5-4.1,0.6-6.2,0.5c-1.3,0-2.5,0.3-3.8,0.5c-1.4,0.2-2.8,0.4-4.1,0.7
	c-0.9,0.2-1.7,0.4-2.5,0.6c-1.3,0.4-2.5,0.7-3.7,1.2c-0.9,0.4-1.8,1-2.6,1.6c-0.2,0.1-0.4,0.3-0.5,0.4c-0.7,0.4-1,0.3-1.6-0.4
	c-0.1-0.2-0.3-0.3-0.4-0.5c-0.4-0.6-0.3-1.2,0.1-1.7c1.4-1.4,3.2-2.3,5.1-3C314.9,359.2,316.4,358.9,317.9,358.6L317.9,358.6
	L317.9,358.6L317.9,358.6z M240.2,401.2c0,1.3,0,2.7,0.1,4c0,0.5,0.1,0.9,0.2,1.4c0,0.2,0,0.5,0.1,0.6c0,0.1,0,0.2,0.1,0.2
	c0.1,0.2,0.2,0.2,0.7,0.5c0.5,0.2,1.1,0.3,1.6,0.4c0.7,0.1,1.5,0.2,2.2,0.2c1,0.1,2,0.1,3,0.5c0.3,0.1,0.2,0.2,0,0.4
	c-0.3,0.2-0.7,0.6-1.3,0.8l-1.5,0.4c-0.5,0.1-1,0.1-1.5,0.1c-1.1,0-2.1,0-3.3-0.3c-0.2,0-0.2-0.1-0.5-0.1l-0.6-0.3
	c-0.4-0.2-0.7-0.5-1.1-0.7c-0.2-0.2-0.3-0.5-0.5-0.8c-0.1-0.3-0.2-0.6-0.3-0.8c-0.1-0.4-0.2-0.8-0.3-1.2c-0.2-1.4-0.2-2.8-0.2-4.2
	l-0.1-2.5c-0.1-1.3-0.1-2.5-0.3-3.8c-0.1-1-0.5-1.9-0.7-2.8c-0.1-0.2-0.1-0.4-0.2-0.6c-0.1-0.8,0-1,0.8-1.3c0.2-0.1,0.3-0.1,0.5-0.2
	c0.4-0.1,1.2,0,1.4,0.6c0.9,1.6,1.2,3.5,1.4,5.3C240.1,398.4,240.1,399.8,240.2,401.2L240.2,401.2L240.2,401.2L240.2,401.2z
	 M255.2,193.9c2.1,0.2,4.3,0.2,6.4-0.1s4.4-0.7,6.5-1.2c1.6-0.4,3.1-1,4.6-1.5c5.3-1.9,10.3-4.9,13.5-9.5c1.4-2,2.3-4.4,2.7-6.8
	c0.1-0.8,0.2-1.6,0.3-2.3c0-0.8,0-1.5-0.2-2.2c-0.2-1.5-0.8-3.1-1.5-4.5c-0.5-0.9-0.4-0.9,0.4-0.3c0.7,0.6,2.2,1.6,3.2,3.6
	c0.4,0.9,0.6,1.9,0.7,2.9c0.1,1,0,1.9,0,2.9c-0.2,1.8-0.7,3.7-1.4,5.4c-1.4,3.5-3.9,6.4-6.8,8.6c-0.4,0.3-0.9,0.6-1.3,1l-1.4,0.9
	c-0.9,0.6-1.9,1.1-2.8,1.7c-1.9,1-3.9,2-6,2.6c-2.2,0.8-4.5,1.4-6.9,1.8c-2.3,0.4-4.7,0.7-7.1,0.7c-2.9,0-5.9-0.3-8.8-1.2
	c-2.2-0.7-4.2-1.7-6.1-3.1c-1.8-1.4-3.4-3-4.7-4.9c-2-3-2.7-6.9-1.9-10.4c0.2-0.8,0.3-1.5,0.6-2.3c0.3-0.7,0.5-1.2,0.8-1.7
	c0.3-0.4,0.6-0.7,0.8-1c0.5-0.5,1-0.6,1.5-0.6c0.2,0,0.5,0,0.7,0c0.6,0.2,0.4,1.3-0.1,3.1c-0.9,2.5-1.3,5.2-0.8,7.6
	c0.2,1.2,0.7,2.3,1.4,3.3c0.3,0.5,0.8,1,1.2,1.6c0.2,0.3,0.5,0.5,0.7,0.7c0.2,0.2,0.4,0.5,0.7,0.7
	C246.9,192.1,250.9,193.5,255.2,193.9L255.2,193.9L255.2,193.9L255.2,193.9z"/>
<path class="st1" d="M236.3,168.7c4.7,3.1,10.1,5.2,15.7,6.1c0.5,0.1,1,0.2,1.5,0.2l1.5,0.1c0.5,0,1,0.1,1.5,0l1.5-0.1
	c7.1-0.5,14-4.1,19.1-9.3c2.3-2.3,4.4-4.9,5.9-7.8c1-1.8,1.9-3.7,2.5-5.7c0.7-2,1.5-3.9,2.1-5.9c0.7-1.2,0.8-1.1,1.2,0.2
	c0.2,0.6,0.4,1.5,0.6,2.6c0,0.5,0,1.1,0,1.7l-0.1,0.9c-0.1,0.3-0.1,0.6-0.2,0.9c-1.4,4.4-3.7,8.6-6.6,12.2
	c-2.9,3.6-6.5,6.7-10.6,8.9c-0.6,0.3-1.2,0.6-1.9,0.9c-0.3,0.2-0.6,0.3-0.9,0.5l-1,0.4c-0.7,0.3-1.3,0.5-2,0.8l-2,0.6
	c-1.4,0.5-2.8,0.7-4.2,1c-0.7,0.1-1.4,0.1-2.1,0.2c-0.7,0-1.4,0.1-2.1,0.1l-2.4-0.1c-0.8-0.1-1.5-0.2-2.3-0.4
	c-0.8-0.1-1.5-0.3-2.3-0.4l-2.2-0.6c-3-0.8-5.8-2-8.6-3.4c-3.3-1.8-6.5-3.9-9.2-6.5c-4.2-3.8-7.7-8.5-10.2-13.6
	c-1.9-3.9-3.4-8-4.3-12.3c-0.1-0.9-0.3-1.9-0.4-2.9c-0.3-1.8-0.1-3,0-3.8c0.2-0.8,0.5-1.3,0.9-1.7c0.2-0.2,0.4-0.4,0.6-0.5
	c0.7-0.3,1.3,1.1,1.6,3.6c0.5,3.6,1.2,7.3,2.5,10.8l0.4,1.3c0.2,0.4,0.4,0.9,0.6,1.3c0.4,0.9,0.7,1.7,1.1,2.6l1.3,2.5
	c0.4,0.9,1,1.6,1.5,2.4c3.1,4.6,7.1,8.8,12,11.8L236.3,168.7L236.3,168.7L236.3,168.7z"/>
<path class="st1" d="M192.5,102c0,0.2,0.1,0.4,0.1,0.7c0,0.3,0,0.4,0,0.8c0,0.7-0.2,1.2-0.3,1.7c-0.1,0.5-0.4,1-0.6,1.5
	c-0.3,0.4-0.6,0.9-0.9,1.2c-1.2,1.5-2.5,2.4-3.6,3.4c-2.1,1.9-3.4,4-3.8,6.7l-0.1,0.5l0,0.5l-0.1,1c0,0.7,0,1.5,0.1,2.2
	c0.1,1.5,0.2,2.9,0.5,4.3c0.6,2.8,1.7,5.2,3.7,7.2c1.4,1.4,3.2,2.6,5.1,3.6c1.8,0.9,3.7,1.4,5.8,1.6c3.6,0.3,7.4-0.4,10.8-1.8
	c0.8-0.4,1.7-0.8,2.4-1.2c0.4-0.2,0.7-0.5,0.9-0.7l0.3-0.4l0.4-0.6c1.1-1.5,1.9-3.2,3-5c0.5-0.9,1.1-1.8,1.8-2.6
	c0.7-0.9,1.6-1.7,2.6-2.3c1.9-1.2,3.8-1.8,5.4-2.7c0.8-0.4,1.5-0.9,2.1-1.5c0.5-0.6,1.1-1.4,1.6-2.2c1-1.6,1.6-3.3,1.9-5.2
	c0.3-1.7,0.5-3.6,1.2-5.4c0.7-1.8,1.7-3.4,2.9-4.8c2.4-2.9,5.5-4.9,8.4-6.8l2.8-1.9c0.2-0.2,0.5-0.3,0.6-0.5l0.2-0.2l0.2-0.2
	c0.3-0.3,0.5-0.7,0.7-1.2c0.8-1.8,1.2-4.1,1.5-6.2c0.3-2.2,0.7-4.4,1.1-6.7c0.2-1.1,0.5-2.2,0.9-3.3c0.4-1.1,0.8-2.2,1.4-3.2
	c0.9-1.2,1.5-1.5,1.5-1.4c0,0.1-0.5,0.6-0.9,1.7c-0.9,2.2-0.7,6.5-1,11.7c-0.2,2.3-0.4,4.7-1.1,7.1c-0.4,1.2-0.8,2.6-1.9,3.9
	c-0.1,0.2-0.3,0.3-0.5,0.5s-0.4,0.3-0.5,0.4l-0.7,0.5c-0.5,0.3-1,0.7-1.4,1c-3.9,2.6-7.7,4.9-9.9,8.3c-0.6,0.8-1,1.7-1.4,2.7
	c-0.4,0.9-0.6,1.8-0.7,2.9c-0.2,1.1-0.4,2.3-0.7,3.6c-0.3,1.2-0.8,2.5-1.4,3.7c-0.3,0.6-0.6,1.1-1,1.7c-0.4,0.5-0.7,1-1.2,1.6
	c-0.9,1.1-2.1,1.9-3.3,2.5c-2.3,1.2-4.4,1.9-5.9,3c-0.4,0.3-0.8,0.7-1.2,1.2c-0.4,0.5-0.8,1.1-1.1,1.6c-0.7,1.1-1.3,2.3-2,3.6
	c-0.4,0.6-0.8,1.3-1.2,1.9c-0.2,0.3-0.4,0.6-0.6,0.9c-0.2,0.3-0.6,0.8-0.9,1c-1.3,1.1-2.7,1.9-4.1,2.5c-2.8,1.2-5.8,2-8.8,2.2
	c-3,0.2-6.2,0-9.1-1.3l-1.2-0.5c-0.4-0.2-0.7-0.4-1.1-0.6c-0.7-0.4-1.4-0.9-2.1-1.3c-1.4-0.9-2.7-2-3.8-3.3c-2.3-2.6-3.6-6-4.1-9.2
	c-0.3-1.6-0.4-3.3-0.4-4.9l0-1.2l0.1-1.3c0-0.4,0-0.8,0.1-1.3c0.1-0.4,0.1-0.8,0.2-1.3c0.4-1.7,1.1-3.3,2.1-4.8
	c1-1.4,2.2-2.6,3.4-3.6c1.4-1.3,2.8-2.5,3.2-3.8l0.1-0.5c0-0.2,0-0.3,0-0.5c0-0.4-0.1-0.8-0.1-1.3c-0.1-0.9-0.3-1.8-0.5-2.8
	c-0.3-1.9-0.7-3.9-0.7-5.9c0-1,0.1-2.1,0.4-3.2c0.1-0.3,0.2-0.5,0.3-0.8l0.4-0.8c0.3-0.5,0.6-0.9,0.9-1.3c2.1-2.6,5-3.9,7.7-5
	c1.4-0.6,2.7-1.1,3.9-1.7c1.2-0.7,2.2-1.5,3.1-2.5c1.9-2,3.2-4.6,4.8-7c0.8-1.2,1.7-2.4,2.6-3.6c1-1.1,2-2.2,3.2-3.2
	c3.8-2.9,8.3-4.4,12.9-5.1c4.6-0.6,9.3-0.3,13.7,1.1c2,0.6,3.9,1.4,5.7,2.4c3.4,2,5.2,3.9,6.2,5.4c1,1.5,1.3,2.5,1.3,3.5
	c0,0.4,0.1,0.9,0,1.2c-0.4,1-2-1.5-5.7-4.7c-5.7-4.7-13.8-6.4-21.4-5.4c-3.8,0.5-7.5,1.8-10.4,4c-0.4,0.3-0.7,0.6-1,0.9l-1,1
	c-0.6,0.7-1.3,1.4-1.8,2.2c-1.2,1.6-2.2,3.3-3.3,5.1c-0.9,1.3-1.8,2.8-2.9,4.1s-2.6,2.6-4.1,3.5c-1.6,1-3.1,1.5-4.5,2.1
	c-1.4,0.6-2.7,1.2-3.8,1.9c-1.1,0.7-2.1,1.6-2.7,2.5c-0.2,0.2-0.2,0.4-0.4,0.6c-0.1,0.2-0.2,0.5-0.2,0.7c-0.1,0.6-0.2,1.2-0.2,1.8
	c0,1.3,0.2,2.8,0.4,4.3c0.2,1.5,0.6,3,0.8,4.7L192.5,102L192.5,102L192.5,102z M175.9,224.4c4.4-4,9.1-7.6,13.8-11.2
	c1.7-1.3,3.4-2.6,5.1-3.9c6.1-4.4,12.4-8.6,18.6-12.9c2.7-1.9,5.4-3.9,8-5.9c1.6-1.3,3.3-2.6,4.9-4c1.5-1.4,3.3-2.5,4.8-4
	c0.9-0.9,1-0.7,0.7,0.4c-0.3,1.1-1,3.6-2.8,5.4c-3.2,3.2-6.7,5.8-10.2,8.4c-3.5,2.6-7.1,5-10.8,7.4c-4.4,2.9-8.7,6.2-13,9.4
	c-4.7,3.5-9.4,7.1-13.8,10.9c-2.7,2.4-5.4,4.8-7.8,7.4c-1.8,2-3.6,4-5.1,6.3c-1.5,2.2-2.7,4.6-3.3,7.1c-0.5,2-0.6,4-0.4,5.9
	s0.8,3.7,1.7,5.5c0.4,0.8,0.8,1.5,1.3,2.2c1.8,2.7,2.2,3.8,2,4.9c0,0.2-0.1,0.5-0.1,0.7c-0.1,0.3-0.5,0.3-1.1,0
	c-0.6-0.3-1.4-1-2.4-1.9c-1.3-1.5-2.5-3.1-3.5-5.1c-0.9-1.9-1.5-4.1-1.7-6.4c-0.1-2.2,0.1-4.4,0.6-6.6c0.2-1,0.6-2.1,1-3.2l0.7-1.5
	c0.2-0.5,0.5-1,0.8-1.4c1.6-2.8,3.5-5.3,5.5-7.6C171.5,228.5,173.7,226.3,175.9,224.4L175.9,224.4L175.9,224.4L175.9,224.4z
	 M210.5,234.2c0.2-1.8,0.5-3.6,0.9-5.4c0.4-1.8,0.8-3.6,1.5-5.3c0.3-0.7,0.5-1.3,0.9-2c0.2-0.4,0.4-0.6,0.6-0.9
	c0.2-0.3,0.4-0.6,0.6-0.8c1.5-1.9,3.3-3.5,5.1-4.9c1.9-1.4,3.8-2.7,6.1-3.7c0.5-0.2,1-0.4,1.6-0.6c0.5-0.1,1-0.2,1.5-0.3
	c1-0.2,2-0.4,3-0.6c1.3-0.2,2.5-0.5,3.8-0.6c1.3-0.1,2.6-0.3,3.9,0c0.4,0.2,0.6,0.3,0.6,0.4c0,0.1-0.2,0.1-0.5,0.4
	c-0.3,0.3-0.8,0.6-1.3,0.9c-0.5,0.3-1.2,0.6-1.9,0.8c-1.2,0.4-2.5,0.6-3.8,0.9l-3.8,0.8c-2.1,0.4-4.3,1.6-6.4,3
	c-2.5,1.7-4.7,4-6.4,6.5c-0.4,0.6-0.7,1.3-1,2.1c-0.3,0.8-0.5,1.6-0.7,2.4c-0.4,1.7-0.8,3.4-1.1,5.1c-0.4,2.1-0.6,4.3-0.7,6.4v1
	c0,0.2,0,0.4,0,0.7c0.1,0.4,0.1,1,0.4,1.3c0.2,0.2,0.5,0.1,0.6-0.1c0.2-0.1,0.3-0.3,0.4-0.5c0.3-0.4,0.4-0.8,0.7-1.3
	c1-2.3,1.7-4.7,2.5-7.1c0.2-0.5,0.3-1.1,0.6-1.6c0.8-2,1.3-2.5,2.2-2.6c0.2,0,0.4,0,0.6,0c0.6,0.1,0.6,1.1,0.2,2.4
	c-0.7,2.1-1.3,4.3-2.1,6.5c-0.4,1.1-0.8,2.2-1.3,3.4l-0.3,0.7l-0.4,0.8c-0.3,0.5-0.6,1-0.9,1.4c-0.6,0.9-1.3,1.4-2,1.7
	c-0.5,0.1-1.1,0.3-1.7,0c-0.6-0.1-1-0.5-1.3-1c-0.7-0.9-1-2.6-1.1-4.4c0-0.2,0-0.4,0-0.6v-1.1c0-0.5,0-0.9,0.1-1.4
	C210.2,236,210.3,235,210.5,234.2L210.5,234.2L210.5,234.2L210.5,234.2z M384.1,342c2.7,1.1,5.5,2,8.4,2.6c1,0.2,2.1,0.3,3.2,0.5
	c0.9,0.1,1.9,0.3,2.8,0.4l1.8,0.2c0.4,0,0.9,0.1,1.2-0.2c0.2-0.2,0.1-0.4,0-0.6c-0.1-0.2-0.3-0.3-0.4-0.4c-0.1-0.1-0.3-0.2-0.5-0.3
	l-0.7-0.3c-0.8-0.4-1.6-0.7-2.4-1l-1.5-0.6c-0.5-0.2-1-0.5-1.5-0.8c-1-0.5-2-1.1-2.9-2.1c-0.3-0.3-0.3-0.5-0.2-0.6
	c0.1-0.1,0.3,0,0.6,0c0.6,0.1,1.8,0,3,0.3l1.6,0.4c0.5,0.1,1.1,0.3,1.6,0.5l1.6,0.5l0.8,0.3l0.4,0.2l0.6,0.3c0.9,0.4,2,0.9,2.7,1.5
	c0.8,0.6,1.2,1.2,1.4,1.9c0.1,0.3,0.2,0.6,0.2,1c0,0.4-0.1,0.8-0.3,1.1c-0.1,0.4-0.4,0.6-0.7,0.9c-0.3,0.2-0.5,0.4-1,0.5
	c-0.4,0.2-1,0.3-1.5,0.4c-0.5,0.1-1.1,0.1-1.7,0.2h-1.6l-1.1-0.1c-1.5-0.1-2.9-0.2-4.3-0.5c-3.1-0.5-6.1-1.4-9.1-2.4
	c-1.8-0.6-3.6-1.4-5.4-2.2c-1.3-0.6-2.6-1.4-3.9-2.3c-1.2-0.9-2.4-1.9-3.4-3.2c-0.7-1-1.4-2.2-1.6-3.5c-0.2-1.3-0.2-2.5,0-3.7
	c0.1-0.5,0.1-1,0.2-1.5c0.4-1.8,0.8-2.2,1.8-2.4c0.2,0,0.4-0.1,0.6-0.1c0.7,0,1.1,0.8,1,2.2c-0.2,1.9-0.4,3.8,0,5.2
	c0.1,0.7,0.4,1.1,0.9,1.7c0.4,0.6,1,1.1,1.7,1.7c2,1.6,4.7,3,7.4,4L384.1,342L384.1,342L384.1,342z M406.4,327.8
	c2.9,0.1,5.7,0.5,8.5,1.3c0.5,0.1,1,0.3,1.6,0.5c0.6,0.2,1,0.4,1.5,0.6c3.3,1.5,6.4,3.2,9.4,5.4c0.6,0.5,1.3,1,2,1.5
	c0.1,0.1,0.4,0.3,0.6,0.6l0.6,0.6c0.3,0.5,0.6,0.9,0.7,1.4c0.1,0.6,0.1,1.4-0.3,1.9c-0.4,0.5-0.9,0.7-1.6,0.7l-0.5,0l-0.6-0.1
	c-0.2,0-0.4-0.2-0.6-0.3c-0.1-0.1-0.2-0.1-0.3-0.2l-0.3-0.2c-0.4-0.4-0.5-0.5-0.7-0.7l-0.6-0.5c-0.4-0.5-0.4-0.4,0.2-0.4
	c0.3,0,0.7,0,1.2-0.1c0.1,0,0.1,0,0.2,0c0,0,0,0,0.1,0c0,0,0,0,0.1-0.1c0,0,0-0.1,0-0.1c0,0,0,0,0,0c0,0,0,0,0,0v0l-0.1-0.1
	l-0.2-0.2c-1.3-1.2-2.9-2.3-4.6-3.4c-2-1.3-4.3-2.2-6.5-3.2c-1.1-0.4-2.4-0.8-3.7-1c-1.3-0.2-2.6-0.4-3.9-0.5
	c-0.8-0.1-1.6-0.1-2.5-0.1c-0.9-0.1-1.7-0.2-2.6-0.3c-2.6-0.4-5.2-1-7.6-1.8c-1.9-0.6-3.9-1.2-5.7-2.5c-0.4-0.3-0.8-0.6-1.1-0.9
	c-1.3-1.3-1.3-2.1-0.9-2.8c0.1-0.1,0.2-0.3,0.3-0.4c0.5-0.4,1.2-0.1,1.9,0.5c2.3,1.8,5.5,3,8.8,3.8c1.2,0.3,2.5,0.6,3.8,0.8
	C403.9,327.5,405.3,327.7,406.4,327.8L406.4,327.8L406.4,327.8L406.4,327.8z M265.1,423.6l1.2-0.1c0.5,0,0.5,0,0.7,0s0.3,0,0.4,0
	c0.1-0.1,0-0.3-0.1-0.4l-0.1-0.1c-0.1-0.1-0.3-0.4-0.4-0.5c-0.3-0.4-0.6-0.7-0.9-1c-0.9-0.9-1.9-1.7-2.9-2.4c-1.8-1.3-3.9-2.2-6-2.7
	c-2.2-0.5-4.5-0.5-6.8-0.1c-2,0.4-3.9,1.2-5.6,2.3c-1.1,0.7-2.2,1.5-3.2,2.3c-1.1,0.8-2.2,1.6-3.4,2.3c-0.7,0.5-0.7,0.3-0.5-0.5
	c0.1-0.4,0.3-0.9,0.6-1.5c0.3-0.6,0.7-1.3,1.3-1.9c1-1,2.2-1.9,3.4-2.8c1.2-0.9,2.6-1.6,4-2.2c2.9-1.1,6-1.5,9-1.1
	c3.6,0.4,7.3,1.7,10.3,3.9c1.2,0.9,2.4,2,3.4,3.2l0.4,0.5c0.2,0.2,0.4,0.5,0.5,0.7c0.4,0.5,0.7,0.9,0.9,1.4c0.2,0.5,0.5,0.9,0.5,1.3
	v0.6c0,0.1,0,0.2,0,0.3v0c0.1,0,0,0,0,0.1l0,0.1c0,0-0.1,0.1-0.1,0.1c-0.5,0.3-0.8,0.6-1.5,0.8c-0.3,0.1-0.6,0.2-1,0.2l-1,0.2
	l-1.2,0.1l-0.9,0.1l-1.8,0.1c-1.2,0.1-2.4,0.1-3.5,0.1c-3.6,0.1-7.1,0-10.6,0c-2.7,0-5.4,0.1-8.1,0.1c-0.6,0-1.2,0-1.8,0
	c-1.1,0-1.9-0.2-2.4-0.4c-0.5-0.2-0.8-0.6-1-1c-0.1-0.2-0.2-0.4-0.2-0.6c-0.1-0.7,0.8-1.2,2.4-1.3c4.8-0.2,9.8-0.2,14.8-0.2
	c3.7,0,7.5-0.1,11.2-0.3L265.1,423.6L265.1,423.6L265.1,423.6z"/>
<path class="st1" d="M283.9,66.4c-2.9-0.8-6-1.2-9.1-1.2c-3.1,0-6.2,0.5-9.2,1.3c-3,0.8-5.9,2.1-8,3.9c-0.3,0.2-0.5,0.5-0.7,0.7
	l-0.3,0.4c-0.1,0.1-0.1,0.1-0.1,0.2l-0.2,0.4l-0.2,0.5c-0.1,0.3-0.2,0.7-0.4,1.1c-0.4,1.5-0.8,3-1.1,4.6c-0.4,2.3-0.7,4.6-0.7,6.8
	c0,1.1,0.1,2.2,0.2,3.3c0,0.3,0.1,0.5,0.1,0.8l0.2,0.8l0.4,1.6c1.1,3.8,3.2,7.2,5.8,10.3c2.6,3.1,5.7,5.8,9.1,8.3
	c1.7,1.2,3.4,2.4,5.1,3.6c0.5,0.3,0.9,0.6,1.3,1l0.7,0.6c0.3,0.2,0.6,0.6,0.8,0.9c0.2,0.3,0.3,0.8,0.4,1.2c0.1,0.4,0.1,0.6,0.1,0.9
	l0.2,1.6c0.3,2.1,0.6,4.1,1.2,6c0.3,0.9,0.7,1.8,1.2,2.4c0.5,0.6,0.9,0.8,1.6,0.7c1-0.1,2-1.6,2.7-3.2c0.7-1.7,1.3-3.5,2.4-5.3
	c0.6-0.9,1.3-1.7,2-2.4c0.8-0.7,1.7-1.3,2.8-1.7c2-0.8,4.5-0.8,6.5,0.2c0.7,0.3,1.2,0.7,1.8,1.1c0.5,0.4,1,0.9,1.4,1.4
	c0.9,1,1.7,2.1,2.2,3.4c0.5,1.3,0.8,2.7,0.8,4.1c0,1.4-0.2,2.7-0.6,3.9c-0.4,1.3-1,2.5-1.7,3.6c-0.8,1.1-1.7,2.1-2.8,2.9
	c-1.1,0.8-2.3,1.4-3.5,1.8c-1.3,0.4-2.6,0.4-3.9,0.2c-0.8-0.1-1.4-0.3-1.7-0.4c-0.3-0.1-0.5-0.2-0.4-0.3c0.1-0.2,0.9-0.1,2.1-0.3
	c2.5-0.6,6.3-3,8-7.1c0.8-1.8,1.1-4,0.7-5.7c-0.2-0.9-0.6-1.7-1.1-2.4c-0.3-0.4-0.6-0.7-0.9-1.1l-0.5-0.5c-0.2-0.2-0.4-0.4-0.5-0.5
	c-1.2-1-2.9-1.3-4.4-0.6c-0.8,0.3-1.5,0.8-2.1,1.5c-0.3,0.4-0.6,0.7-0.9,1.1c-0.3,0.4-0.5,0.9-0.8,1.4c-0.5,1-0.9,2.1-1.5,3.3
	c-0.6,1.2-1.2,2.5-2.5,3.8c-0.4,0.3-0.8,0.6-1.2,0.9c-0.2,0.1-0.5,0.2-0.7,0.3c-0.3,0.1-0.5,0.1-0.8,0.2c-0.5,0.1-1,0-1.5,0
	c-0.5,0-1.1-0.2-1.6-0.5c-1-0.5-1.6-1.2-2.1-1.9c-0.5-0.7-0.8-1.4-1.1-2c-1-2.7-1.4-5.2-1.7-7.7l-0.2-1.8l-0.1-0.4
	c0-0.1-0.1-0.1-0.1-0.2c-0.3-0.2-0.7-0.6-1.2-0.9l-1.5-1c-4.9-3.3-9.9-7.1-14-11.8c-2.1-2.4-3.9-5-5.3-7.9c-0.3-0.7-0.6-1.5-0.9-2.2
	c-0.3-0.7-0.5-1.5-0.7-2.3c-0.2-0.8-0.4-1.5-0.6-2.4c-0.1-0.8-0.2-1.6-0.2-2.4c-0.1-3.5,0.3-6.9,1-10.3c0.4-1.7,0.8-3.3,1.4-5
	c0.2-0.4,0.3-0.8,0.5-1.3c0.1-0.2,0.3-0.6,0.5-0.8l0.5-0.6c0.6-0.7,1.3-1.3,2.1-1.8c2.9-2.1,6.2-3.4,9.6-4.2
	c3.4-0.8,6.8-1.2,10.2-1.1c4.2,0.1,8.5,0.9,12.4,2.7c2,0.9,3.8,2,5.5,3.4c1.7,1.4,3.1,3.1,4.1,5.1c1.6,2.9,2.3,6.1,3.1,9
	c0.2,0.7,0.4,1.4,0.7,2c0.1,0.3,0.3,0.5,0.5,0.7c0.1,0.1,0.2,0.2,0.3,0.4l0.4,0.4c0.5,0.5,1.1,1,1.6,1.3c0.2,0.1,0.4,0.2,0.7,0.2
	c0.3,0,0.6,0.1,1.1,0.1c3.3,0.3,6.4,1.4,9.2,3.1c2.7,1.7,5.1,3.9,7.1,6.4c3.1,3.9,5.1,8.5,5.8,13.5c0.1,1.2,0.2,2.5,0.1,3.7
	c0,0.6,0,1.3-0.1,1.9l-0.3,1.9c-0.5,2.5-1.5,4.9-3,7c-1.3,1.8-2.9,3.5-4.7,4.8c-1.7,1.2-3.3,2-4.6,2.5c-1.4,0.5-2.5,0.8-3.5,0.9
	c-1.9,0.2-3.1,0-4-0.5c-0.4-0.2-0.9-0.4-1.1-0.7c-0.4-0.4,0.3-0.7,1.6-1.1c1.3-0.4,3.3-0.9,5.6-2c3.5-1.6,6.6-4.2,8.4-7.5
	c0.9-1.7,1.6-3.4,1.8-5.4c0.2-0.9,0.2-1.9,0.2-2.9c0-0.5,0-1-0.1-1.5c0-0.5,0-1-0.1-1.5c-0.6-3.9-2.2-7.7-4.7-10.9
	c-2.4-3.2-5.7-5.8-9.3-7.3c-1.3-0.5-2.8-0.9-4.1-1l-1.2-0.1c-0.5,0-1.4-0.2-2.1-0.5c-0.7-0.3-1.1-0.7-1.5-1
	c-0.4-0.3-0.7-0.6-1.1-0.9l-0.5-0.5c-0.2-0.2-0.3-0.2-0.5-0.6c-0.5-0.6-0.8-1.1-1.1-1.6c-0.5-1-0.7-1.9-1-2.8
	c-0.5-1.7-0.8-3.2-1.3-4.7c-0.9-2.9-2.4-5.4-4.6-7.3c-2.2-1.9-4.9-3.3-7.9-4.2L283.9,66.4L283.9,66.4L283.9,66.4z M240.2,237.6
	l0.2,0.7v0.1c0,0.1,0,0.2,0,0.3c0.1,0.2,0.4,0.4,0.5,0.2c0.1-0.1,0.1-0.3,0.2-0.5l0.1-0.1l0.1-0.4c0.1-0.3,0.2-0.6,0.2-0.9
	c0.1-0.6,0.3-1.2,0.4-1.8c0.2-1.2,0.4-2.5,0.6-3.8c0.1-1.1,0.2-2.3,0.2-3.4c0-1.5-0.2-2.9,0.4-4.4c0.2-0.5,0.5-0.4,1.1,0
	c0.6,0.4,1.3,1.1,1.4,2c0.1,1.5,0.1,3,0.1,4.5c0,1.5-0.3,3.1-0.6,4.6c-0.2,0.9-0.3,1.9-0.5,2.8c-0.1,0.5-0.1,1-0.2,1.5
	c-0.1,0.4-0.2,0.7-0.3,1.1c-0.1,0.4-0.2,0.7-0.4,1.1c-0.3,0.7-0.8,1.3-1.3,1.7c-0.5,0.4-1.3,0.6-2,0.4c-0.2-0.1-0.3-0.1-0.5-0.2
	c-0.2,0-0.4-0.1-0.5-0.1c-0.3-0.1-0.6-0.4-0.8-0.6c-0.5-0.5-0.8-1.2-1.1-2l-0.3-0.7l-0.2-0.5l-0.3-0.9l-0.5-1.9
	c-0.5-1.9-0.9-3.7-1.4-5.6c-0.4-1.4-0.9-2.8-1.4-4.2c-0.1-0.3-0.2-0.6-0.3-0.9c-0.3-1.2-0.1-1.6,0.8-2c0.2-0.1,0.4-0.2,0.5-0.2
	c0.1,0,0,0,0,0h0h0.4l0,0c0,0,0,0,0.1,0c0.1,0,0.3,0,0.5,0.1c0.4,0.1,0.6,0.4,0.8,0.8c1.1,2.4,1.8,5,2.5,7.6
	C239.2,233.8,239.7,235.7,240.2,237.6L240.2,237.6L240.2,237.6L240.2,237.6z"/>
<path class="st1" d="M229.5,234.8c-0.9-1.6-1.8-3.3-2.7-4.7c-0.2-0.3-0.5-0.7-0.6-0.8l0.1-0.1l0.1-0.1c0.1-0.2,0.2-0.5,0.3-0.6
	c0.1-0.1,0.1-0.3,0.1-0.4c0,0,0,0,0,0v0l-0.1-0.3v0c0.1,0.1,0.5,0.1,1,0.2c0.8,0,0.5,0,0.6,0c0,0.1,0,0.1,0,0.2
	c0.1,0.8,0.3,1.8,0.4,2.7c0.2,1.3,0.6,2.7,0.8,4.1c0.4,2.4,0.8,4.8,0.9,7.4v0.5c0,0.2,0,0.5,0,0.7c0,0.5-0.1,0.9-0.2,1.4
	c-0.1,0.4-0.3,0.8-0.6,1.1c-0.2,0.3-0.6,0.5-1.1,0.5c-0.8,0.1-1.6-0.3-2.3-0.9c-0.4-0.3-0.7-0.6-1-0.9c-0.2-0.3-0.4-0.5-0.6-0.8
	c-1.3-1.9-2.2-3.9-2.9-6c-0.9-2.6-1.5-5.5-1-8.3c0.2-0.9,0.3-0.7,0.6,0c0.3,0.7,0.8,2,1.2,3.4c0.7,2.6,1.6,5.1,2.9,7.4
	c0.3,0.6,0.7,1.1,1,1.6c0.2,0.3,0.4,0.5,0.5,0.7c0.1,0.1,0.2,0.2,0.3,0.3c0,0,0,0,0,0.1c0,0.1,0.1,0.2,0.3,0.3
	c0.2,0.1,0.2-0.1,0.3-0.2c0,0,0-0.1,0-0.1V243c0,0,0-0.2,0-0.2c0-0.4,0-0.8-0.1-1.2c-0.1-0.8-0.2-1.6-0.4-2.5c-0.3-1.7-0.7-3.4-1-5
	l-0.6-2.8c-0.2-1-0.4-1.8-0.5-3c0-0.1,0-0.2,0-0.3c0-0.1,0-0.1,0-0.2c0-0.1,0-0.1,0-0.2c0.1-0.3,0.2-0.5,0.4-0.7
	c0.1-0.1,0.3-0.2,0.3-0.2c0.1,0,0.1-0.1,0.2-0.1c0.1,0,0.3-0.1,0.4-0.1c0.2,0,0.2,0,0.3,0c0.2,0,0.4,0.1,0.5,0.2l0.1,0.1l0.3,0.2
	l0.4,0.4c0.4,0.4,0.7,0.9,1,1.3c0.6,0.8,1,1.7,1.5,2.5c1.2,2.1,2.2,4.1,3.4,6.1l0.7,1.1l0.4,0.7c0.3,0.4,0.6,0.8,0.9,1.2
	c0.4,0.4,1.1,0.1,1.1-0.4c0.1-0.5-0.1-1-0.1-1.5l-0.1-0.6l-0.2-0.9c-0.2-0.6-0.4-1.3-0.6-1.9c-0.4-1.3-0.9-2.6-1.3-3.8
	c-0.2-0.6-0.4-1.1-0.6-1.7c-0.6-2.2-0.5-3,0.2-3.6c0.2-0.1,0.3-0.3,0.5-0.4c0.5-0.3,1.2,0.5,1.8,1.9c0.8,2.2,1.6,4.5,2.4,7
	c0.2,0.6,0.4,1.2,0.5,1.9l0.1,0.5l0.1,0.6l0.2,0.8l0.2,0.9c0.2,1.2,0.2,2.4,0,3.2c-0.2,0.8-0.6,1.4-1.4,1.8
	c-0.1,0.1-0.3,0.1-0.5,0.2l-0.1,0h0c0,0.1,0-0.1,0-0.1h0l-0.1,0.1l-0.2,0.1c-0.3,0.2-0.6,0.1-0.9,0.1c-0.5-0.1-1.1-0.2-1.6-0.7
	c-0.3-0.2-0.6-0.5-0.9-0.8c-0.3-0.3-0.6-0.7-0.8-1l-0.8-1.1l-0.6-0.9C231.2,238.1,230.3,236.4,229.5,234.8L229.5,234.8L229.5,234.8
	L229.5,234.8z"/>
<path class="st1" d="M309.2,364.8c-8.3,8.7-18.3,15.5-29.2,20.3c-5.5,2.4-11.2,4.2-17,5.4c-5.9,1.2-11.9,1.7-17.8,1.4
	c-8.7-0.3-17.3-1.7-25.5-4.4c-7.3-2.4-14.2-5.7-20.6-9.9c-3.2-2.1-6.2-4.5-9.1-7c-2.9-2.5-5.5-5.4-7.9-8.3c-2.4-3-4.6-6.1-6.5-9.4
	c-1.9-3.3-3.6-6.7-5.1-10.2c-0.4-0.9-0.7-1.8-1-2.7c-0.3-0.9-0.7-1.8-1-2.7c-0.6-1.8-1.2-3.6-1.6-5.5l-0.7-2.8l-0.5-2.8l-0.5-2.8
	c-0.1-0.5-0.2-0.9-0.2-1.4l-0.1-1.4c-1.7-13.4-0.2-27.3,4.7-39.8c3.1-8,7.4-15.6,13-22.3l2.1-2.5c0.7-0.8,1.5-1.5,2.3-2.3l2.3-2.3
	c0.8-0.8,1.6-1.4,2.5-2.1l2.5-2.1c0.8-0.7,1.8-1.2,2.6-1.9s1.8-1.2,2.7-1.8c0.4-0.3,0.9-0.5,1.4-0.8l0.7-0.4
	c0.1-0.1,0.2-0.2,0.4-0.2l0.4-0.2c2.4-1.2,3.4-1.7,3.4-1.6c0,0.1-1.1,0.8-2.8,2.3c-0.8,0.8-2,1.5-3,2.6c-1.1,1.1-2.4,2.2-3.8,3.5
	c-1.4,1.5-2.8,2.9-4.3,4.4c-1.4,1.6-3,3.3-4.5,5.1c-1.3,1.7-2.7,3.3-3.9,5l-1.8,2.6c-0.6,0.9-1.2,1.7-1.8,2.6l-1.6,2.7
	c-0.5,0.9-1.1,1.8-1.5,2.8l-1.4,2.8l-0.7,1.4c-0.2,0.5-0.4,1-0.6,1.5c-3.3,7.8-5.3,16-6,24.4c-0.7,8.4,0.1,16.9,2,25.2
	c2,8.3,5.1,16.3,9.6,23.6c5.3,8.7,12.8,16.4,21.6,22.1c8.8,5.7,18.8,9.7,29.1,11.8c5.6,1.2,11.4,1.8,17.2,1.9c2.9,0,5.8-0.1,8.6-0.4
	c2.9-0.3,5.7-0.8,8.5-1.5c5.6-1.3,11.1-3.3,16.4-5.7c5.3-2.4,10.2-5.4,14.9-8.9c5.8-4.2,10.9-9.2,15.4-14.8
	c4.4-5.6,8.1-11.8,10.7-18.4c4-10,5.5-20.9,4.9-31.7c-0.6-10.8-3.6-21.4-8.5-30.9c-7.6-14.8-19.6-27-33.9-34.9
	c-3.2-1.7-6.4-3.2-9.7-4.5c-6.3-2.4-10.6-3.2-13.6-3.9c-0.8-0.1-1.4-0.3-2-0.4c-0.6-0.1-1.2-0.2-1.7-0.4c-1-0.2-1.8-0.5-2.5-0.8
	c-0.7-0.2-1.5-0.5-1.9-0.7c-0.7-0.4,0.4-0.8,3-1c2.6-0.1,6.6,0,11.7,1.1c15.1,3.4,29,12,40,23.6c11,11.6,19,26.5,22,42.6
	c2.2,11.9,1.8,24.4-1.6,36.1c-1.7,5.9-4.1,11.5-7.2,16.7C317.1,355.6,313.4,360.5,309.2,364.8L309.2,364.8L309.2,364.8L309.2,364.8z
	 M395.7,310.6c-6.5-12.9-13-25.7-19.5-38.5c-2.4-4.7-4.9-9.3-7.3-13.9c-4.3-8.2-8.6-16.4-13-24.5c-4.4-8.1-9-16.1-13.8-24
	c-1.1-1.7-2.2-3.4-3.3-5.2c-1.1-1.7-2.3-3.3-3.5-5c-2.4-3.2-5-6.3-8-9c-3.8-3.5-8-6.5-12.4-9.1c-2.2-1.3-4.5-2.5-6.8-3.7
	c-1.1-0.6-2.3-1.2-3.5-1.7c-1.2-0.6-2.3-1.2-3.5-1.8c-3-1.3-2.5-1.3,0.3-0.9c2.8,0.4,8.1,1,13.6,4c9.8,5,18.3,12.7,24.5,21.9
	c6.2,8.9,11.5,18.3,16.7,27.8c6.1,11.4,12.7,23.1,18.8,34.8c6.7,12.9,13.3,25.8,19.8,38.7l4.1,8.1l2.1,4l1,2l1.4,2.6l0.2,0.7
	c0,0.1,0.1,0.2,0.1,0.3l0,0.3c0,0.2,0.1,0.4-0.1,0.6c-0.1,0.2-0.3,0.3-0.5,0.5c-0.7,0.6-1.8,0.9-2.8,1.3l-1.1,0.4l-1,0.3l-2.1,0.6
	c-6.5,1.9-13.1,3.5-19.7,5.1c-6.6,1.6-13.1,3.2-19.7,4.7c-0.8,0.2-1.7,0.4-2.5,0.5c-1.1,0.2-2.5,0.6-3.3,0.2
	c-0.2-0.3-0.4-0.6-0.5-0.9c-0.2-0.3-0.3-0.7-0.4-1.1l-0.5-1.9c-0.3-1-0.6-2.1-0.9-3.1c-0.6-2.1-1.2-4.2-1.7-6.2
	c-1.2-4.1-2.3-8.3-3.5-12.4c-0.7-2.2-1.3-4.3-2-6.5c-2.5-8.1-3.3-10.6-2.9-12.6c0-0.5,0-1,0.1-1.4c0.2-1,2.5,1.9,4.6,7.8
	c2.1,5.8,3.9,11.9,5.7,18c0.9,3.1,1.7,6.1,2.6,9.2c0.4,1.5,0.9,3.1,1.3,4.6l0.6,2.3c0.1,0.2,0.1,0.2,0.1,0.2c0,0,0,0,0,0l2.2-0.5
	c1.6-0.4,3.1-0.7,4.7-1.1c3.1-0.8,6.3-1.5,9.4-2.3c5.6-1.4,11.3-2.7,16.9-4.2c2.8-0.7,5.6-1.5,8.4-2.2l2.1-0.6l1.9-0.6
	c0,0,0.1,0,0.1-0.1L395.7,310.6L395.7,310.6L395.7,310.6L395.7,310.6z M423,338.1c0.5,0.3,1.1,0.7,1.6,1.1l0.8,0.6
	c0.4,0.3,0.9,0.7,1.3,1.1c0.8,0.7,1.4,1.5,1.7,2.3c0.1,0.4,0.2,0.7,0.2,1.1c0,0.4-0.1,0.8-0.1,1.2c0,0.2-0.2,0.5-0.4,0.7
	c-0.2,0.2-0.4,0.3-0.6,0.4c-0.4,0.2-1,0.3-1.7,0.2c-0.6-0.1-1.3-0.2-2-0.4l-1-0.3l-0.7-0.2l-2.3-0.8c-1.5-0.5-3-1-4.5-1.5
	c-1.3-0.4-2.7-0.7-4-1c-1.7-0.4-3.5-0.5-5.1-0.9c-0.6-0.3-0.5-0.2-0.1-0.6c0.2-0.2,0.6-0.4,1-0.6c0.4-0.2,1-0.4,1.5-0.3
	c3.9,0.1,7.5,1.1,11,2.3c1,0.4,2.1,0.7,3.2,0.9l0.8,0.2l0.6,0.1c0.6,0.3,0.7-0.5,0.4-0.8c-0.1-0.2-0.3-0.4-0.5-0.5l-0.1-0.1
	l-0.1-0.1l-0.2-0.1c-0.2-0.2-0.5-0.4-0.7-0.5c-1.2-0.8-2.5-1.6-3.8-2.3c-1-0.5-2-1-3.1-1.5c-0.9-0.4-2.1-0.6-3.2-0.8
	c-1.8-0.2-3.5-0.3-5.3-0.4c-0.4,0-0.8,0-1.2,0c-1.4-0.1-1.9-0.4-2.1-1.1c-0.1-0.2-0.1-0.4-0.1-0.5c0-0.5,0.5-1,1.6-1
	c1.6-0.1,3.2-0.1,4.9,0.1c1.7,0.1,3.3,0.3,5.2,0.8c0.3,0.1,0.8,0.2,1.1,0.4c0.3,0.1,0.6,0.2,0.9,0.4c0.6,0.3,1.2,0.5,1.8,0.8
	C420.8,336.8,421.9,337.4,423,338.1L423,338.1L423,338.1L423,338.1z M231,144.7c4.4,2.6,11,1.1,13.5-3.5c0.4-0.8,0.2-1.8-0.6-2.2
	s-1.8-0.2-2.2,0.6c-0.1,0.2-0.2,0.4-0.4,0.6c-0.2,0.4,0.1-0.1,0,0c-0.1,0.1-0.1,0.2-0.2,0.3c-0.2,0.2-0.3,0.3-0.5,0.5
	c-0.1,0.1-0.2,0.2-0.3,0.3c0.1-0.1,0.1-0.1,0,0c-0.4,0.3-0.8,0.5-1.2,0.8c-0.1,0.1-0.3,0.1-0.4,0.2c0.2-0.1,0.1,0,0,0
	c-0.3,0.1-0.5,0.2-0.8,0.3c-0.2,0.1-0.5,0.1-0.7,0.2c-0.1,0-0.2,0.1-0.4,0.1c0.2,0,0,0-0.1,0c-0.5,0.1-1,0.1-1.5,0
	c-0.1,0-0.2,0-0.4,0c0.2,0,0,0-0.1,0c-0.2-0.1-0.5-0.1-0.7-0.2l-0.4-0.1c0,0-0.4-0.2-0.2-0.1s-0.2-0.1-0.2-0.1
	c-0.1-0.1-0.3-0.1-0.4-0.2C230.8,140.8,229.2,143.6,231,144.7L231,144.7L231,144.7z"/>
<path class="st1" d="M241.9,140.7c1.1,1,2.4,1.7,3.9,1.9c1.3,0.2,2.7,0.1,3.9-0.4c2.1-0.9,4.2-2.4,5.3-4.5c0.4-0.8,0.2-1.8-0.6-2.2
	c-0.8-0.4-1.8-0.2-2.2,0.6c-0.1,0.2-0.2,0.3-0.3,0.5c-0.1,0.1-0.4,0.5-0.1,0.2c-0.3,0.3-0.6,0.7-0.9,1c-0.2,0.1-0.3,0.3-0.5,0.4
	c-0.1,0.1,0.2-0.1-0.1,0c-0.1,0.1-0.2,0.1-0.3,0.2c-0.4,0.3-0.8,0.5-1.3,0.7c0.2-0.1,0.1,0-0.1,0c-0.1,0-0.2,0.1-0.3,0.1
	c-0.2,0.1-0.4,0.1-0.7,0.2c0,0-0.4,0.1-0.2,0s-0.2,0-0.2,0c-0.2,0-0.5,0-0.7,0c-0.4,0,0.3,0.1-0.1,0l-0.3-0.1
	c-0.1,0-0.3-0.1-0.4-0.1c0,0-0.4-0.2-0.2-0.1c0.1,0.1-0.2-0.1-0.2-0.1c-0.1-0.1-0.2-0.1-0.4-0.2c-0.3-0.2-0.3-0.2-0.6-0.4
	c-0.7-0.6-1.6-0.6-2.3,0C241.3,139.1,241.2,140.2,241.9,140.7L241.9,140.7L241.9,140.7z M248.7,126c-0.5,0.3-1,0.6-1.6,0.9l-0.5,0.3
	l-0.2,0.1l-0.2,0.1c0,0-0.2,0.1-0.4,0.1l-0.1,0c-0.1,0-0.2,0-0.3,0c-0.2,0-0.4,0-0.6-0.1c-0.4-0.1-0.7-0.4-0.9-0.8
	c-0.1-0.2-0.2-0.4-0.2-0.6c0-0.1,0-0.2,0-0.3v-0.1l0-0.1l0.1-0.4l0.1-0.4c0.1-0.1,0.1-0.2,0.2-0.3l0.2-0.5c0.1-0.2,0.2-0.3,0.3-0.4
	l0.3-0.4l0.3-0.3c0.8-0.7,1.7-1.1,2.5-1.4c0.8-0.3,1.7-0.4,2.6-0.5c0.8-0.1,1.5-0.1,2.3-0.1c0.5,0.1,1,0.1,1.5,0.3
	c0.5,0.2,0.9,0.5,1.2,0.9c0.2,0.3,0.1,0.3-0.3,0.3c-0.2,0-0.4,0-0.6,0.1c-0.2,0.1-0.4,0.2-0.6,0.1c-1.5,0.1-3,0.6-4.6,1
	c-0.9,0.2-1.8,0.9-2.2,1.4c-0.1,0.1-0.1,0.2-0.2,0.2c0,0.1-0.1,0.1-0.1,0.2c-0.1,0.1,0,0.1-0.1,0.2l0,0v0h-1c0,0-0.1,0-0.1,0
	c-0.1,0,0,0,0,0c0,0,0-0.1,0-0.1c0-0.1,0-0.1,0-0.2c0-0.1-0.1-0.2-0.1-0.3c0-0.1-0.1-0.2-0.2-0.4c-0.1-0.1,0-0.1,0-0.1h0l0.1-0.1
	l0.4-0.2l0.8-0.5c0.7-0.4,1.4-0.8,2.1-1.1c1.1-0.5,2.3-0.9,3.5-1.2c0.9-0.2,1.9-0.5,3-0.5c0.2,0,0.5,0,0.7,0c0.9,0.2,1,0.6,0.9,1.3
	c0,0.2,0,0.3-0.1,0.5c-0.1,0.5-0.6,0.8-1.1,1c-1.4,0.2-2.5,0.4-3.8,0.8C250.8,125,249.7,125.5,248.7,126L248.7,126L248.7,126
	L248.7,126z M251.7,161c3.4,0.9,7.1-1.2,8.1-4.5c0.3-0.8-0.3-1.8-1.1-2c-0.9-0.2-1.7,0.3-2,1.1c0,0.1,0,0.2-0.1,0.2
	c-0.1,0.3,0.1-0.3,0-0.1c-0.1,0.1-0.1,0.3-0.2,0.4c-0.1,0.1-0.2,0.3-0.2,0.4c-0.2,0.3,0.1-0.1,0.1-0.1c0,0-0.1,0.2-0.2,0.2
	c-0.2,0.2-0.4,0.4-0.6,0.6c-0.1,0.1,0.3-0.2,0.1-0.1c-0.1,0.1-0.1,0.1-0.2,0.1l-0.4,0.2c-0.1,0.1-0.3,0.1-0.4,0.2
	c-0.2,0.1,0.3-0.1,0.1-0.1c-0.1,0-0.1,0.1-0.2,0.1c-0.3,0.1-0.6,0.2-0.9,0.2c-0.3,0.1,0.4,0,0.1,0c-0.1,0-0.1,0-0.2,0
	c-0.2,0-0.3,0-0.5,0c-0.1,0-0.1,0-0.2,0c-0.3,0,0.1,0,0.1,0c-0.1-0.1-0.4-0.1-0.5-0.1c-0.8-0.2-1.8,0.3-2,1.1S250.8,160.8,251.7,161
	L251.7,161L251.7,161z"/>
<path class="st1" d="M230.8,128c1.5-0.2,3.1-0.2,4.6,0.1c1.5,0.4,3,1.1,4.2,2.1c0.9,0.7,1.7,1.5,2.3,2.4c2.2,3.2,2.8,6.8,3.1,10.2
	c0.1,1.5,0.3,3.1,0.3,4.6c0,1.9,0,3.9-0.7,5.8c-0.2,0.6-0.3,0.5-0.5-0.1c-0.1-0.3-0.3-0.7-0.4-1.1c-0.1-0.2-0.2-0.4-0.3-0.7
	c-0.1-0.2-0.1-0.5-0.1-0.8c-0.1-0.9-0.2-1.9-0.3-2.8c-0.1-0.9-0.2-1.9-0.3-2.8c-0.2-1.8-0.6-3.7-1-5.4c-0.3-1.1-0.7-2.1-1.2-3.1
	c-0.5-1-1.1-1.9-1.8-2.6c-1.5-1.7-3.6-2.7-5.9-2.7c-0.7,0-1.4,0.1-2.2,0.2c-0.7,0.1-1.4,0.4-2,0.7c-1,0.5-2,1.1-2.7,1.8
	c-0.2,0.2-0.2,0.3-0.3,0.4v0c0,0,0,0,0,0h0c-0.1,0,0.1-0.1,0,0l-0.2,0.2c0,0-0.1,0.1-0.1,0.1c0,0,0,0,0-0.1v-0.3c0,0,0,0,0.1,0
	c0.1,0,0.3-0.2,0.6-0.3c1.4-1.1,2.4-2.7,4.2-3.9c0.4-0.3,0.8-0.6,1.4-0.7c0.5-0.2,1-0.2,1.4-0.2s0.7,0.2,1,0.4
	c0.4,0.4,0.5,0.7,0.5,1.1c0,0.2,0,0.4-0.1,0.5c-0.1,0.2-0.4,0.4-0.6,0.4c-0.3,0.1-0.6,0.2-0.8,0.4c-0.3,0.1-0.8,0.4-1.3,0.9
	s-1.1,1-1.7,1.6c-0.6,0.6-1.2,1.2-2.1,1.9c-0.2,0.2-0.5,0.4-0.8,0.5c-0.4,0.2-0.8,0.4-1.6,0.5c-0.2,0-0.5,0-0.7-0.1
	c-0.3-0.1-0.5-0.2-0.7-0.3c-0.2-0.1-0.4-0.3-0.6-0.4c-0.2-0.2-0.2-0.3-0.4-0.4c-0.2-0.3-0.4-0.6-0.4-1c0-0.2-0.1-0.4-0.1-0.6
	c0-0.2,0-0.3,0-0.5c0.1-0.6,0.2-0.8,0.4-1.2c0.1-0.3,0.3-0.5,0.5-0.8c0.3-0.4,0.6-0.8,1-1c0.6-0.6,1.3-1,2-1.4
	c0.7-0.4,1.4-0.7,2.1-1C229.2,128.2,230.1,128,230.8,128L230.8,128L230.8,128L230.8,128z M295,228.8c0.1,0.2,0,0.5-0.3,0.7
	c-0.1,0.1-0.4,0.1-0.5,0.1c-0.1-0.1-0.2-0.2-0.3-0.4c-0.1-0.1-0.5-1.4-0.7-1.9c-0.2-0.4-0.3-0.9-0.4-1.4c-0.2-0.9-0.4-1.9-0.5-2.9
	c0-0.2,0-0.4,0-0.6c0.1-0.7,0-1.5-0.1-2.2c0-0.1,0-0.2-0.1-0.4c-0.2-0.2-0.3-2.2-0.2-2.4c0.2-0.6,0.3-1.3,0.5-1.9
	c0-0.1,0-0.2,0.1-0.3c0.3-0.2,0.2-0.4,0.3-0.6c0.1-0.3,0.1-0.5,0.2-0.8c0.1-0.1,0.2-0.2,0.4-0.4c0.1-0.1,0.4,0,0.5,0
	c0.1,0.1,0.3,0,0.4,0h0.1c0.1,0,0.3,0.4,0.5,0.8c0.2,0.4,0.3,0.8,0.3,0.9c0,0,0.1,2.2,0.1,2.5c0,0.1,0,0.3-0.1,0.4
	c0,0.1,0.1,1.8,0.1,1.9c0,0.4,0,0.7-0.2,1.1c0,0.1,0,0.1,0,0.2c0,0.6,0,1.3-0.1,1.9c0,0.3,0,0.6,0,1c0,0.1,0,0.1,0,0.2
	c0,0.1,0,0.1,0,0.2c0,0.8,0,1.5,0.1,2.3c0,0.2-0.1,1,0,1.2C295.2,228.3,295,228.7,295,228.8L295,228.8L295,228.8z M301.9,229.8
	c-0.1,0.3-0.5,0.2-1,0c-0.2-0.1-0.5-0.4-0.5-0.5c0-0.2,0.1-0.4,0.1-0.6c0-0.1,1.1-1.6,1.5-2c0.4-0.5,0.8-0.9,1.3-1.2
	c1-0.7,2-1.5,3-2.1c0.2-0.1,0.5-0.2,0.8-0.3c0.9-0.2,1.8-0.5,2.7-0.9c0.1-0.1,0.3-0.1,0.4-0.3c0.1-0.1,0.8-0.4,1.4-0.6
	c0.7-0.2,1.4-0.3,1.6-0.3c0.9,0.2,1.7,0.3,2.5,0.4c0.1,0,0.2,0,0.4,0.1c0.2,0.4,0.5,0.3,0.7,0.3c0.3,0,0.7,0.1,1,0.3
	c0.2,0.1,0.3,0.3,0.5,0.5c0.1,0.2,0,0.7,0,0.8c-0.2,0.2-0.1,0.4-0.1,0.7c0,0.1,0,0.2,0,0.2c0,0.1-0.5,0.3-0.9,0.6
	c-0.5,0.2-0.9,0.5-1,0.5c0,0-0.2,0-0.4,0.1c-0.2,0.1-0.5,0.1-0.9,0.2c-0.6,0.2-1.3,0.4-1.4,0.4c-0.1,0.1-0.3,0-0.4-0.1
	c-0.1-0.1-1.9,0.6-2,0.6c-0.4,0-0.7,0.3-1.2,0.1c-0.1,0-0.2,0-0.2,0c-0.6,0.2-1.3,0.4-2,0.6c-0.4,0.1-0.7,0.3-1,0.4
	c-0.1,0-0.1,0-0.2,0c-0.1,0-0.2,0-0.2,0.1c-0.8,0.4-1.6,0.7-2.3,1.2c-0.2,0.1-1.1,0.4-1.3,0.6C302.5,229.7,302,229.7,301.9,229.8
	L301.9,229.8L301.9,229.8z"/>
</svg>
