<?xml version="1.0" encoding="utf-8"?>
<!-- Generator: Adobe Illustrator 28.2.0, SVG Export Plug-In . SVG Version: 6.00 Build 0)  -->
<svg version="1.1" id="Layer_1" xmlns="http://www.w3.org/2000/svg" xmlns:xlink="http://www.w3.org/1999/xlink" x="0px" y="0px"
	 viewBox="0 0 520 520" style="enable-background:new 0 0 520 520;" xml:space="preserve">
<style type="text/css">
	.st0{opacity:0.65;fill:#51A2FF;enable-background:new    ;}
	.st1{opacity:0.35;fill:#1F007D;enable-background:new    ;}
	.st2{fill:#E0DCDC;}
	.st3{fill:#51A2FF;}
</style>
<path class="st0" d="M263.4,409.3c-0.1,0.3-0.4,0-0.9-0.5c-0.2-0.2-0.5-0.8-0.5-0.9c0-0.2,0-0.5,0.1-0.6c0-0.1,1.1-1,1.5-1.3
	c0.4-0.3,0.8-0.5,1.2-0.6c0.9-0.3,1.8-0.5,2.7-0.6c0.2,0,0.4,0,0.6,0c0.7,0.2,1.4,0.1,2.1,0.1c0.1,0,0.2,0,0.4-0.1
	c0.2-0.2,2.1,0,2.3,0.2c0.6,0.3,1.1,0.6,1.6,0.9c0.1,0,0.2,0,0.2,0.2c0.1,0.3,0.3,0.4,0.4,0.4c0.2,0.1,0.4,0.2,0.6,0.4
	c0.1,0.1,0.1,0.3,0.2,0.5c0,0.1-0.2,0.5-0.2,0.6c-0.1,0.1-0.2,0.3-0.2,0.5c0,0.1,0,0.1-0.1,0.2c-0.1,0.1-1.5,0.4-1.6,0.3
	c0,0-0.5-0.1-0.9-0.1c-0.5,0-0.9,0-1,0c-0.1,0-0.2-0.1-0.3-0.1c0-0.1-1.4,0.1-1.4,0.1c-0.3,0-0.5,0.1-0.8-0.2c-0.1,0-0.1,0-0.2,0
	c-0.5,0.1-1,0-1.4,0c-0.2,0-0.5,0.1-0.7,0.1c0,0-0.1,0-0.1,0c-0.1,0-0.1,0-0.2,0c-0.5,0.2-1.2,0.2-1.6,0.6c-0.1,0.1-0.8,0-1,0.1
	C263.8,409.5,263.4,409.2,263.4,409.3L263.4,409.3L263.4,409.3z M281.1,429.7c-0.1,0.4-0.6,0.2-1.3-0.2c-0.2-0.1-0.7-0.7-0.6-0.8
	c0-0.3,0.1-0.5,0.2-0.8c0-0.2,1.5-1.7,2.1-2.1c0.5-0.5,1.1-0.8,1.8-1.1c1.3-0.6,2.6-1.2,4-1.5c0.3-0.1,0.6-0.1,0.9-0.1
	c1.1,0,2.2-0.2,3.2-0.4c0.2,0,0.4,0,0.5-0.1c0.1-0.1,0.9-0.2,1.8-0.2c0.8,0,1.7,0,1.9,0.1c0.5,0.1,0.9,0.3,1.4,0.4l1.4,0.5
	c0.1,0,0.3,0,0.4,0.2c0.2,0.4,0.5,0.4,0.8,0.5c0.4,0.1,0.7,0.3,1.1,0.5c0.2,0.1,0.3,0.3,0.4,0.5c0.1,0.2-0.1,0.6-0.2,0.6
	c-0.2,0.1-0.1,0.3-0.2,0.5c0,0.1,0,0.1-0.1,0.2c0,0-0.6,0.1-1.2,0.2c-0.6,0.1-1.1,0.1-1.3,0.1c0,0-0.8-0.1-1.5-0.1
	c-0.8,0-1.6,0-1.7,0c-0.2,0-0.3,0-0.5-0.1c-0.1-0.1-2.4,0.3-2.5,0.3c-0.5,0-0.9,0.2-1.4,0c-0.1,0-0.2,0-0.3,0
	c-0.8,0.2-1.6,0.3-2.4,0.5c-0.4,0.1-0.8,0.3-1.2,0.4c-0.1,0-0.2,0-0.2,0c-0.1,0-0.2,0-0.3,0.1c-0.9,0.4-1.9,0.7-2.7,1.3
	c-0.2,0.1-1.3,0.5-1.5,0.6C281.9,429.6,281.2,429.5,281.1,429.7L281.1,429.7L281.1,429.7z"/>
<path class="st1" d="M120.1,443.6c-0.4,0-0.6-0.5-0.6-1.2c0-0.2,0.3-0.9,0.4-1c0.3-0.1,0.6-0.2,0.9-0.2c0.2,0,2.5,0.7,3.3,1
	c0.8,0.3,1.5,0.7,2.1,1.1c1.4,0.9,2.7,1.8,3.9,2.9c0.3,0.2,0.5,0.5,0.8,0.8c0.8,1,1.6,1.9,2.5,2.7c0.1,0.1,0.3,0.3,0.5,0.4
	c0.2,0,0.8,0.7,1.4,1.5c0.6,0.7,1.1,1.5,1.2,1.7c0.2,0.5,0.4,1,0.7,1.5c0.2,0.5,0.4,1,0.6,1.5c0.1,0.1,0.2,0.3,0.1,0.5
	c-0.1,0.4,0.1,0.7,0.2,1c0.2,0.4,0.3,0.9,0.4,1.3c0.1,0.2,0,0.5,0,0.7c0,0.2-0.5,0.3-0.6,0.3c-0.2-0.1-0.3,0.1-0.5,0.2
	c-0.1,0-0.1,0.1-0.2,0.1c-0.1,0-0.5-0.5-1-0.9c-0.5-0.5-1-1-1-1.1c0,0-0.1-0.2-0.3-0.5c-0.2-0.3-0.5-0.6-0.7-1
	c-0.6-0.7-1.2-1.5-1.3-1.6c-0.1-0.1-0.2-0.4-0.3-0.5c0-0.1-2-2.1-2.1-2.1c-0.4-0.5-0.9-0.8-1.1-1.4c0-0.1-0.1-0.2-0.2-0.3
	c-0.8-0.6-1.4-1.4-2.2-2c-0.4-0.4-0.8-0.6-1.2-0.9c-0.1-0.1-0.1-0.1-0.2-0.2c-0.1-0.1-0.2-0.2-0.2-0.2c-1-0.6-1.9-1.4-3.1-1.9
	c-0.2-0.1-1.3-1-1.6-1.1C120.7,444.3,120.3,443.6,120.1,443.6L120.1,443.6L120.1,443.6z"/>
<path class="st2" d="M239.2,103.5l-2.1-2c-0.3-0.2-0.6-0.4-0.8-0.7c-0.9-0.8-1.8-1.8-2.7-2.6c-0.4-0.4-0.8-0.7-1.2-1.1
	c-0.5-0.5-1.1-0.9-1.5-1.5c-0.1-0.2,0-0.3,0.2-0.3c0.2,0,0.7,0,1.1,0.1c0.7,0.3,1.4,0.6,2,0.9c0.6,0.4,1.2,0.8,1.7,1.3
	c0.6,0.6,1.4,1.1,2.1,1.6l2.2,1.8l1.4,1.1c0.7,0.6,1.4,1.2,2.1,1.7c0.6,0.4,1.2,0.7,1.8,1.1c0.1,0.1,0.3,0.2,0.4,0.2
	c0.4,0.4,0.4,0.7,0.2,1.1c0,0.1-0.1,0.2-0.1,0.3c-0.1,0.3-0.5,0.4-1,0.4c-0.4,0-0.7-0.2-1-0.2c-0.3-0.1-0.6-0.2-0.9-0.4
	c-0.6-0.3-1.1-0.7-1.6-1.1C240.7,104.9,239.9,104.2,239.2,103.5L239.2,103.5L239.2,103.5L239.2,103.5z"/>
<path class="st2" d="M232,96.8c0,0-7-4.3-7-7c0-1.4,8.5,2.1,8.5,2.1L232,96.8L232,96.8z M247.1,98.9c0,0,20.3,10.7,21.6,19.1
	c1.3,8.5-25.3-12.7-25.3-12.7L247.1,98.9L247.1,98.9z M148.2,211.4c0,0,6.1-13.6,8.1-13.4c2.1,0.2-0.3,3.8-1,8.1
	c-0.5,3.1-2.1,5.9-2.1,5.9L148.2,211.4L148.2,211.4L148.2,211.4z M144.3,223.2c0,0-3.5,10.3-0.9,10.1c2.2-0.2,4.6-9.6,4.6-9.6
	L144.3,223.2L144.3,223.2L144.3,223.2z"/>
<path class="st2" d="M152.4,216.5c-0.4,0.7-0.7,1.3-1,2c-0.1,0.2-0.2,0.5-0.3,0.8c-0.4,0.9-0.8,1.8-1.3,2.7
	c-0.2,0.4-0.3,0.8-0.5,1.2c-0.2,0.5-0.4,1.1-0.8,1.5c-0.1,0.1-0.4,0-0.6-0.2c-0.2-0.2-0.5-0.6-0.5-0.9c0-0.6,0.1-1.1,0.3-1.7
	c0.2-0.5,0.4-1.1,0.7-1.6c0.4-0.6,0.5-1.3,0.7-2c0.3-0.7,0.6-1.5,0.9-2.2c0.2-0.4,0.4-0.9,0.6-1.3c0.3-0.7,0.7-1.3,1-2
	c0.3-0.5,0.4-1.1,0.7-1.6c0.1-0.1,0.1-0.2,0.2-0.3c0.3-0.4,0.6-0.4,1-0.2c0.1,0,0.2,0.1,0.3,0.1c0.3,0.2,0.4,0.5,0.4,0.9
	c0,0.1,0,0.3,0,0.4c0,0.1,0,0.3-0.1,0.4c-0.1,0.2-0.1,0.4-0.2,0.7c-0.2,0.4-0.4,0.9-0.6,1.3C153.2,215.2,152.8,215.9,152.4,216.5
	L152.4,216.5L152.4,216.5L152.4,216.5z M172.1,194.9c0,0,20.2-76.5,51.6-105.1c0,0,8.8,12.8,23.7,19.8c14.9,7,23.8,10.3,23.8,10.3
	s-16.7,13.8-21.5,24s-19.2,41.7-21.9,48.8s-3.8,10.2-3.8,10.2L172.1,194.9L172.1,194.9z"/>
<path class="st2" d="M201,306.1c0,0,1.9-28.7,4.3-29c2.4-0.3,42.4-4,51.9-7.6c9.5-3.5,21-8.6,24.9-18.5s2.6-14.7-1.2-19.2
	c-3.8-4.5-7.6-6.7-15.8-13.1c-12.5-9.8-61.1-20.2-75.6-21.9c-14.6-1.7-34.5-1.6-34.5-1.6s3.6,10.5,0.4,16.8
	c-3.3,6.3-14.2,22.9-14.2,22.9l6.7,4.3c0,0,0-1.8,5.3-4.7c9.8-5.4,28.7-6.4,48.1-3.4c15.1,2.3,51,5.6,53.1,5
	c1.2-0.4,3.2,1.1-2.4,3.1c-5.6,1.9-25.6,0-29.4-1c-4.1-1.1-36.3-3.9-50.2-2.1c-13.9,1.9-21.1,2.9-24.6,10.3s-8,22.3-8.8,36.9
	s0,25.7,0,25.7s19.1,5.7,33.4,3.9S201,306.1,201,306.1L201,306.1z"/>
<path class="st2" d="M130.1,326.2c0,0,0.6-8,3.7-11.1c2.8-2.9,6.7-4.6,8.9-4c4.3,1-5.7-4.7-9.8-0.3
	C128.9,315.1,130.1,326.2,130.1,326.2L130.1,326.2L130.1,326.2z M208.6,320.7c0.7-0.5,7.1-1.1,6.3,0s2.6-5.6,2.6-5.6L208.6,320.7
	L208.6,320.7L208.6,320.7z M324.6,476c0,0,6.1-1.2,6.5-7.2c0.3-4.9,0,8.8-2.4,8.2C326.3,476.3,324.6,476,324.6,476z M446.8,449.9
	c-2.4,5.9-3.6,8.6-8.1,15.7c-3.8,6-10.9,7.9-10.9,7.9l11.6-2.3L446.8,449.9L446.8,449.9z"/>
<path class="st2" d="M332.7,466.6c0.5-1,1.1-1.9,1.7-2.9c0.2-0.3,0.4-0.7,0.6-1c0.8-1.2,1.7-2.3,2.7-3.3c0.4-0.5,0.9-0.9,1.3-1.4
	l0.9-0.8c0.3-0.2,0.7-0.5,1-0.7c0.2-0.1,0.3,0,0.2,0.2c-0.1,0.3-0.2,0.7-0.5,1c-1,1.3-1.8,2.5-2.7,3.8c-0.6,0.7-1,1.6-1.5,2.5
	l-1.5,2.9c-0.3,0.6-0.6,1.2-0.9,1.8c-0.4,0.9-0.9,1.8-1.2,2.8c-0.3,0.7-0.5,1.5-0.7,2.2c-0.1,0.2-0.1,0.3-0.2,0.5
	c-0.3,0.6-0.5,0.7-0.9,0.7c-0.1,0-0.2,0-0.3,0c-0.3-0.1-0.5-0.4-0.4-0.9c0-0.4,0-0.7,0.1-1.1c0.2-1.1,0.5-2.1,0.9-3.2
	C331.7,468.6,332.2,467.6,332.7,466.6L332.7,466.6L332.7,466.6L332.7,466.6z"/>
<path class="st2" d="M344.1,459.7c0.1-0.1,4-7.3,2.7-8.4s-8.8,7.1-8.8,7.1L344.1,459.7L344.1,459.7z M329.8,478.4
	c4.6,0.2,16.8-4.1,23-2.8c1.3,0.3-16.1-4.5-14.9-4.2c3.3,0.6-5.2-2.6-5.2-2.6L329.8,478.4z M213.9,472c-1.1,1.3-2.4,2.4-3.8,3.3
	c-0.5,0.3-1,0.7-1.5,1c-1.9,1-3.9,1.8-5.9,2.4c-0.9,0.3-1.8,0.5-2.7,0.8c-1.1,0.3-2.3,0.4-3.5,0.5c-0.4,0-0.3,0,0-0.2
	c0.3-0.1,0.8-0.5,1.4-0.7l0.8-0.3c0.1-0.1,0.3-0.1,0.4-0.2l0.4-0.1c0.6-0.2,1.1-0.3,1.7-0.5c1.1-0.4,2.2-0.7,3.3-1.1
	c1.3-0.5,2.6-1.3,3.8-2.1c1.3-0.9,2.5-1.9,3.6-3c0.7-0.7,1.3-1.4,1.9-2.2c0.8-1.2,1.6-2.5,2-3.9c0.4-1.1,0.4-2.2,0.6-3.3
	c0-0.2,0-0.5,0.1-0.7c0.1-0.9,0.2-1.2,0.6-1.4c0.1,0,0.1-0.1,0.2-0.1c0.2-0.1,0.5,0.3,0.6,1c0.1,0.5,0.1,1.1,0.1,1.7
	c0,0.6,0,1.1-0.1,1.7c-0.2,1.1-0.6,2.2-1.1,3.3C216,469.3,215,470.8,213.9,472L213.9,472L213.9,472L213.9,472z M162.4,443.1
	c0,0-13-7.5-22.1-1.9c0,0-1-1,0.6-2.7c1.5-1.7,5.7-2.6,8.5-2.2c2.7,0.5,9.2,3,9.2,3L162.4,443.1L162.4,443.1z M96.3,465.4
	c0,0-4.3-16.6,0-17.2c4.3-0.6,10.3,23.7,10.3,23.7s-4-2.6-6.4-3.8C97.6,467,96.3,465.4,96.3,465.4z M235.9,405.1
	c0.2-0.7,0.4-1.1,0.7-1.7c0.1-0.3,0.3-0.5,0.4-0.8l0.2-0.3c0,0,0.3-0.4,0.1-0.1c0.1-0.2,0.3-0.4,0.5-0.5c0.1-0.1,0.1-0.1,0.2-0.2
	c0.1-0.1,0.1-0.1-0.1,0c0.1,0,0.1-0.1,0.1-0.1c0.1-0.1,0.3-0.2,0.5-0.3c0.1,0,0.1,0-0.1,0l0.1-0.1c0.1,0,0.2-0.1,0.3-0.1
	c0.1,0,0.2-0.1,0.3-0.1c-0.2,0-0.3,0-0.1,0h0.1c0.2,0,0.4,0,0.6,0c0.2,0-0.3-0.1,0.1,0l0.2,0.1c0.2,0,0.4,0.1,0.6,0.2
	c0.3,0.1-0.2-0.1,0,0c0.1,0.1,0.2,0.1,0.3,0.2c0.3,0.2,0.6,0.3,0.9,0.5c0.1,0,0.1,0.1,0.2,0.1c-0.1-0.1-0.1-0.1,0,0
	c0.2,0.2,0.4,0.3,0.6,0.5c0.5,0.5,1.4,0.5,1.9,0c0.5-0.5,0.5-1.4,0-1.9c-1.7-1.5-3.9-2.9-6.3-2.3c-2.7,0.7-4,3.5-4.8,5.9
	c-0.2,0.7,0.3,1.5,0.9,1.6C235,406.3,235.7,405.8,235.9,405.1L235.9,405.1L235.9,405.1z M201,387.9c0,0,4.6,8.9,9.4,6.6
	c4.8-2.3-3.7,10.2-3.7,10.2L201,387.9L201,387.9z"/>
<path class="st2" d="M216.7,445c0,0,4.6,1.4,9.8,6c5.1,4.7,11.8,9.3,14.5,8s1.9,0,1.9,0s7.2-9.7,12.1-12.9s12.9-8.6,23.6-7.2
	c11.5,1.5,27.7,18.7,13.5,36.2c0,0-4.3,4.5-12.6,4.4c-8.3-0.1-20.5-3.9-20.5-3.9s-4.5,3.7-9.6,4.5c-5.1,0.7-14.8,0.8-19.7-0.5
	c-4.9-1.3-13.4-7.8-13.4-7.8s2.8-6.8,1.9-14.9S216.6,445,216.7,445L216.7,445L216.7,445z"/>
<path class="st2" d="M230.6,478.4c2.2,0.7,4.6,1.1,7,1.2c0.9,0,1.7,0,2.6,0c3.1,0,6.2-0.3,9.3-1c1.4-0.3,2.7-0.7,4-1.2
	c1.6-0.7,3.2-1.5,4.9-2c0.5-0.2,0.7,0.1,0.5,0.7c-0.1,0.3-0.2,0.7-0.5,1.2c-0.2,0.5-0.6,0.9-1,1.2c-1.6,1.1-3.5,1.9-5.3,2.5
	c-1.9,0.6-3.8,1-5.7,1.1c-2.3,0.2-4.7,0.6-7.1,0.6c-2.6,0-5.2-0.3-7.8-0.9c-1.6-0.4-3.1-0.8-4.6-1.4c-2.3-0.9-4.4-2.1-6.4-3.4
	c-1.6-1-3.1-2.1-4.4-3.4c-0.3-0.3-0.6-0.5-0.9-0.9c-0.9-1.2-1-1.8-0.7-2.4c0.1-0.1,0.1-0.3,0.2-0.4c0.3-0.4,1.1-0.2,1.9,0.4
	c2.5,1.9,4.9,3.7,7.6,5.3C226.2,476.8,228.4,477.7,230.6,478.4L230.6,478.4L230.6,478.4L230.6,478.4z M58.1,472.8
	c-0.7-0.3-1.3-0.7-1.9-1.1l-0.5-0.3l-0.2-0.1l-0.3-0.2c-0.4-0.3-0.8-0.5-1.2-1c-0.3-0.3-0.7-0.5-0.8-0.9l-0.3-0.5
	c-0.1-0.1-0.2-0.3-0.2-0.5l-0.2-0.4l-0.1-0.4c-0.1-0.3,0-0.6,0-0.9c0.1-0.6,0.2-1.1,0.6-1.6c0.4-0.5,0.9-0.5,1.3-0.4
	c0.5,0.1,0.9,0.2,1.6,0.5c0.3,0.1,0.6,0.3,0.8,0.5L57,466l0.4,0.3c0.5,0.4,0.8,0.5,1.1,0.7c0.4,0.2,0.8,0.5,1.2,0.7
	c0.4,0.1,0.9,0.2,1.3,0.1c0.3-0.1,0.3,0,0.1,0.3c-0.2,0.3-0.7,0.7-1.5,0.7c-0.6,0-1.2,0-1.8-0.2c-0.3-0.1-0.5-0.2-0.8-0.3
	c-0.2-0.1-0.3-0.1-0.3-0.1c0-0.1-0.1-0.3-0.6-0.6c-0.3-0.2-0.5,0.1-0.4,0.3c0,0.2,0.2,0.4,0.3,0.5c0.1,0.1,0.1,0.2,0.2,0.2l0.1,0.1
	l0.1,0.1l0.3,0.2c0.5,0.3,1.1,0.7,1.7,1c0.7,0.4,1.5,0.8,2.3,1.1c1.2,0.5,2.4,1,3.6,1.3c1,0.3,1.9,0.4,2.9,0.6
	c0.2,0,0.4,0.1,0.6,0.1c0.8,0.3,1,0.5,0.9,1.2c0,0.2,0,0.3,0,0.5c-0.1,0.5-0.5,0.8-1.2,0.9c-1.9,0-3.7-0.4-5.5-1.1
	C60.7,474.1,59.4,473.5,58.1,472.8L58.1,472.8L58.1,472.8L58.1,472.8z"/>
<path class="st2" d="M55.2,464.6c-0.5-0.9-0.7-1.6-0.7-2.3c0-0.7,0.2-1.4,0.8-2.1c0.4-0.2,0.5-0.2,0.7-0.2c0.2,0,0.4,0,0.7,0
	c0.3,0.1,0.7,0.2,1.2,0.4c0.5,0.2,1,0.5,1.6,0.9l4.1,2.6c1.1,0.7,2.1,1.3,3.3,1.9c1,0.5,2,0.9,3.1,1.2c0.7,0.2,1.3,0.4,2,0.6
	c0.7,0.2,1.3,0.5,2,0.6c0.4,0.1,0.4,0.3,0,0.5c-0.2,0.1-0.5,0.3-0.8,0.4c-0.4,0.1-0.8,0.3-1.2,0.3c-0.4,0-0.8,0.1-1.2,0
	c-0.4,0-0.8-0.1-1.2-0.2c-0.8-0.1-1.6-0.3-2.3-0.6c-1.4-0.6-2.8-1.3-4.1-2.1c-0.8-0.5-1.6-1-2.4-1.5l-0.7-0.4
	c-0.1-0.1-0.2-0.1-0.4-0.2l-0.5-0.4l-0.3-0.2c-0.1,0-0.2-0.2-0.3-0.1c-0.4,0.2-0.3,0.6-0.1,0.9c0.2,0.4,0.6,0.8,1.1,1.3
	c1.4,1.2,2.9,2.3,4.4,3.2c1.2,0.7,2.6,1.1,3.8,1.7c0.3,0.1,0.6,0.2,0.8,0.3c1,0.4,1.3,0.8,1.4,1.3c0,0.1,0.1,0.2,0.1,0.3
	c0,0.3-0.5,0.5-1.5,0.5c-0.7-0.1-1.4-0.2-2.1-0.4c-0.7-0.1-1.3-0.5-1.9-0.7c-1.2-0.6-2.5-1.3-3.6-2.1c-0.9-0.6-1.7-1.2-2.5-1.9
	l-0.7-0.6c-0.4-0.3-0.7-0.7-1.1-1C56.1,465.9,55.5,465.2,55.2,464.6L55.2,464.6L55.2,464.6L55.2,464.6z M221.8,386.4
	c3.6-0.8,7.4-0.2,10.6,1.3c1.2,0.5,2.3,1.1,3.3,1.8c3.6,2.6,6.3,6,8.5,9.6c1,1.6,2,3.2,2.8,4.8c0.6,1.1,1.1,2.1,1.5,3.2
	c0.4,1.1,0.7,2.3,0.9,3.5c0.1,0.7,0,0.7-0.5,0.2c-0.3-0.2-0.6-0.6-1.1-0.9c-0.4-0.4-0.8-0.9-1.2-1.4c-2.4-4-4.6-8-7.4-11.7
	c-1.7-2.2-3.9-4-6.3-5.4c-2.6-1.5-5.5-2.4-8.5-2.1c-1.8,0.1-3.7,0.6-5.3,1.5c-1.2,0.6-2.4,1.5-3.5,2.4c-1.1,1-2.1,2-3,3.1
	c-1.4,1.8-2.4,3.8-3.3,5.8c-0.2,0.4-0.4,0.9-0.5,1.3c-0.2,0.4-0.4,0.7-0.5,1c-0.1,0.3-0.3,0.5-0.5,0.7c-0.3,0.4-0.6,0.5-0.9,0.6
	c-0.2,0.1-0.3,0.1-0.4,0.2c-0.2,0-0.4-0.1-0.5-0.5c-0.1-0.4-0.2-1-0.1-1.8c0.1-1.1,0.4-2.2,0.8-3.3c0.2-0.5,0.4-1.1,0.6-1.6
	c0.2-0.5,0.5-1,0.8-1.5c1.2-2,2.6-3.9,4.2-5.5c1.2-1.2,2.6-2.4,4.2-3.3c0.4-0.2,0.8-0.5,1.2-0.7c0.4-0.2,0.9-0.4,1.3-0.6
	C220.1,386.8,220.9,386.5,221.8,386.4L221.8,386.4L221.8,386.4L221.8,386.4z M216,322c-0.4,0.5-0.8,1-1.3,1.4
	c-0.4,0.5-0.9,0.9-1.4,1.3c-0.3,0.3-0.7,0.6-1.1,0.9c-1.4,0.9-2.8,1.6-4.3,2.2c-0.3,0.1-0.7,0.2-1,0.4l-1,0.3
	c-0.4,0.1-0.9,0.3-1.3,0.3c-0.4,0-0.9,0-1.4,0c-0.3,0-0.3-0.3-0.1-0.6c0.2-0.3,0.5-0.9,0.9-1.1c0.4-0.3,0.7-0.4,1.1-0.5l1.1-0.5
	c0.7-0.4,1.5-0.6,2.2-0.9c0.9-0.4,1.7-1.1,2.4-1.7c0.8-0.7,1.6-1.5,2.4-2.3c0.4-0.5,0.9-1.1,1.3-1.7c0.6-0.9,1.2-1.8,1.6-2.8
	c0.4-0.7,0.5-1.6,0.8-2.3c0.1-0.2,0.1-0.3,0.2-0.5c0.3-0.6,0.6-0.8,1.1-0.7c0.1,0,0.2,0,0.4,0c0.4,0,0.6,0.5,0.7,1
	c0,0.4,0,0.8,0,1.3c-0.1,0.4-0.1,0.8-0.2,1.2c-0.2,0.8-0.5,1.6-0.9,2.4C217.6,320,216.9,321.1,216,322L216,322L216,322z
	 M134.3,221.5c-1.9-0.5-3.9-1-5.8-1.4c-0.7-0.1-1.4-0.2-2.2-0.4c-2.5-0.5-5.1-1.2-7.6-1.6c-1.1-0.2-2.3-0.4-3.4-0.6
	c-1.5-0.2-2.9-0.4-4.3-0.9c-0.4-0.1-0.3-0.4,0.1-0.7c0.4-0.3,1.2-0.7,2.1-0.7c0.8-0.1,1.5-0.1,2.3,0c0.8,0,1.5,0.1,2.2,0.1
	c1.5,0.2,3,0.4,4.5,0.7c1.8,0.4,3.7,0.4,5.5,0.8c2,0.3,4,0.8,6,1.2c1.2,0.3,2.5,0.6,3.7,0.9c1.9,0.5,3.7,1.1,5.5,1.6
	c1.4,0.4,2.9,0.6,4.3,1c0.3,0.1,0.6,0.2,0.9,0.3c1.1,0.4,1.4,0.9,1.4,1.6c0,0.2,0,0.3,0,0.5c-0.1,0.5-0.7,0.7-1.6,0.7
	c-2.6-0.2-5.2-0.9-7.8-1.5C138.2,222.6,136.2,222.1,134.3,221.5L134.3,221.5L134.3,221.5L134.3,221.5z"/>
<path class="st2" d="M112.4,193.3c-2.6-1.7-5.2-3.3-7.8-4.8c-1.3-0.7-2.7-1.4-4-1.9c-0.3-0.1-0.7-0.3-1-0.4c-0.3-0.1-0.7-0.2-1-0.3
	c-0.3-0.1-0.6-0.1-0.9-0.1c-0.1,0-0.3,0-0.4,0c-0.1,0-0.2,0-0.3,0c-0.3,0-0.5,0.3-0.5,0.6c0,0.5,0.3,1.5,0.7,2.4
	c1.5,3.3,3.9,6.5,6.5,9.4c2.6,2.9,5.4,5.7,8.5,8.2c2.7,2.2,5.6,4.3,8.6,6.1c1.9,1.2,3.9,2.2,5.9,3.1c2,1,4,1.9,6.2,2.6
	c1.4,0.4,1.2,0.4-0.1,0.4c-1.2,0-3.6,0.1-6.3-0.5c-4.6-1.4-8.9-3.7-12.8-6.4c-2-1.3-3.8-2.8-5.6-4.4c-1.8-1.6-3.5-3.3-5.1-5
	c-1.9-2.1-3.9-4.3-5.7-6.6c-0.9-1.2-1.8-2.4-2.5-3.8c-0.7-1.4-1.4-2.8-1.7-4.6c-0.2-0.9-0.1-2.5,0.8-3.5c0.7-1,2.2-1.6,3.3-1.6
	c0.6,0,1,0,1.5,0.1c0.4,0.1,0.9,0.2,1.3,0.3l1.2,0.4l1.2,0.4c3.1,1.3,5.8,2.9,8.5,4.5c3.3,2.1,6.6,4.2,9.7,6.5
	c4.8,3.4,9.5,7,14.1,10.5c0.9,0.7,1.8,1.4,2.7,2l1.4,1c0.3,0.2,0.4,0.3,0.5,0.3l0.6,0.1c2.1,0.4,4.3,0.8,6.5,1.1
	c1,0.1,1.9,0.2,2.9,0.4c3.6,0.5,4.6,0.8,5.4,1.6c0.2,0.2,0.4,0.3,0.5,0.5c0.4,0.5-1.2,1.3-4,1.3c-2.1,0.1-4.1-0.2-6.2-0.5
	c-2.1-0.3-4.1-0.6-6.3-1.1c-0.2-0.1-0.5-0.1-0.7-0.2c-0.1,0-0.2-0.1-0.4-0.1l-0.3-0.2l-0.8-0.6l-1.2-0.9c-0.8-0.6-1.7-1.2-2.5-1.9
	c-1.7-1.2-3.4-2.5-5.1-3.7c-5.1-3.7-10.1-7.4-15.3-10.8L112.4,193.3L112.4,193.3L112.4,193.3z M185.6,150c1.2-2.8,2.6-5.6,3.9-8.4
	c1.4-2.8,2.7-5.5,4.1-8.3c1-2,2-4,3-6c3.8-6.9,7.9-13.7,12.2-20.3l2.9-4.4c1-1.5,1.9-2.9,2.9-4.4c2.5-3.7,5-7.5,8.3-10.6
	c1-1,1.1-0.7,0.8,0.5c-0.2,0.6-0.4,1.5-0.7,2.5c-0.2,0.5-0.3,1.1-0.6,1.6c-0.3,0.5-0.6,1.1-0.9,1.6c-0.6,1-1.1,1.9-1.8,2.9
	c-0.6,0.9-1.3,1.9-1.9,2.8l-3.7,5.7l-7.5,11.4c-2.9,4.6-5.5,9.6-8.1,14.6l-2.1,4.1l-2,4.1c-1.4,2.7-2.6,5.5-3.9,8.3
	c-0.8,1.7-1.6,3.4-2.3,5.2c-0.8,1.7-1.5,3.5-2.2,5.2c-2.2,5.3-4.3,10.6-6.1,16c-1.4,4.2-2.5,8.4-3.7,12.6c-0.2,0.9-0.5,1.8-0.7,2.8
	c-0.5,1.7-0.9,2.8-1.3,3.6c-0.2,0.4-0.4,0.7-0.6,0.9c-0.2,0.2-0.5,0.4-0.8,0.5c-0.2,0.1-0.5,0.3-0.6,0.4c-0.5,0.2-1-1.4-0.4-4
	c1.6-7.7,4.1-15.7,6.9-23.5l1.6-4.4l1.7-4.3C183,155.7,184.3,152.8,185.6,150L185.6,150L185.6,150L185.6,150z M236.3,166.6
	c2.3-4.6,4.6-9.2,7.1-13.7c0.9-1.6,1.8-3.3,2.8-4.9c0.9-1.4,1.7-2.8,2.7-4.2l2.8-4.1c2-2.6,4-5.3,6.1-7.8c1.8-2.3,3.9-4.4,5.8-6.6
	c1.3-1.3,2.7-2.7,4-3.9c1.4-1.2,3-2.3,4.6-3.3c1-0.6,1-0.3,0.6,0.7c-0.2,0.5-0.5,1.2-1,2c-0.2,0.4-0.4,0.8-0.7,1.2
	c-0.3,0.4-0.6,0.8-1,1.2c-0.6,0.7-1.2,1.4-1.8,2.1l-0.9,1.1l-1,1c-1.3,1.4-2.5,2.8-3.7,4.1c-0.6,0.7-1.2,1.4-1.8,2.1l-1.8,2.1
	c-0.6,0.7-1.2,1.4-1.8,2.2l-1.8,2.2c-0.4,0.4-0.7,0.9-1.1,1.3l-1,1.4c-0.6,0.9-1.3,1.9-1.9,2.9c-1.2,1.9-2.4,4-3.6,5.9
	c-2.5,4.4-5.1,8.9-7.3,13.4c-1.4,2.8-2.8,5.7-4.1,8.5c-1,2.2-1.9,4.4-2.9,6.6c-0.9,2.2-1.9,4.4-2.7,6.6c-1.3,3.4-2.4,6.9-3.7,10.3
	c-0.3,0.8-0.5,1.5-0.8,2.3c-0.5,1.4-0.9,2.3-1.3,2.9c-0.2,0.3-0.4,0.5-0.6,0.7c-0.2,0.2-0.5,0.3-0.7,0.4c-0.2,0.1-0.4,0.2-0.5,0.3
	c-0.3,0.2-0.7-1.3-0.1-3.4c0.9-3.2,1.9-6.4,2.9-9.6c1.1-3.2,2.3-6.5,3.6-9.7C231.9,176,234.1,171.2,236.3,166.6L236.3,166.6
	L236.3,166.6L236.3,166.6z M246.2,95.4l2.4-4.3c0.3-0.5,0.5-1.1,0.8-1.6c1.1-1.8,2.3-3.6,3.4-5.4c0.5-0.8,1-1.6,1.5-2.4
	c0.4-0.5,0.7-1,1-1.5c0.4-0.5,0.8-0.9,1.3-1.3c0.3-0.2,0.4-0.1,0.5,0.4c0.1,0.4,0.1,1.2,0,1.8c-0.8,2.3-2.1,4.2-3.4,6.3
	c-0.8,1.2-1.4,2.6-2.1,3.9l-2.3,4.3l-1.4,2.7c-0.7,1.4-1.4,2.7-2.1,4.1c-0.5,1.1-0.9,2.2-1.3,3.3c-0.1,0.2-0.2,0.5-0.3,0.7
	c-0.3,0.4-0.5,0.7-0.7,0.8c-0.3,0.1-0.5,0.1-0.9,0c-0.1,0-0.3-0.1-0.4-0.1c-0.2-0.1-0.4-0.2-0.5-0.5c-0.1-0.3-0.2-0.6-0.1-1
	c0.2-1.1,0.6-2.1,1-3.1c0.4-1,0.9-2,1.4-3C244.6,98.3,245.3,96.9,246.2,95.4L246.2,95.4L246.2,95.4L246.2,95.4z M240.7,77.7
	c1.7-2.4,3.6-4.8,5.4-7.1c0.7-0.9,1.2-1.8,1.9-2.6c2.4-3,4.8-5.9,7.1-8.9c1-1.3,2-2.7,3-4.1c0.6-0.9,1.2-1.8,1.8-2.6
	c0.4-0.4,0.7-0.8,1.1-1.2c0.4-0.4,0.8-0.8,1.2-1.1c0.5-0.5,0.6-0.3,0.6,0.4c0,0.4,0,0.9,0,1.4c0,0.6-0.2,1.2-0.4,1.8
	c-2,4-4.8,7.4-7.7,10.8c-1.8,2-3.2,4.3-4.9,6.5c-1.8,2.4-3.6,4.8-5.3,7.2c-1.1,1.5-2.1,3-3.1,4.5c-1.5,2.3-3.1,4.6-4.4,7
	c-1,1.9-1.8,3.8-2.8,5.7c-0.2,0.4-0.4,0.8-0.6,1.2c-0.9,1.5-1.2,1.9-2.1,1.9c-0.2,0-0.3,0.1-0.4,0.1c-0.3,0-0.7-0.9-0.3-2.2
	c0.5-1.9,1.2-3.8,2-5.6c0.9-1.8,1.8-3.6,2.9-5.3C237.3,82.7,239,80.2,240.7,77.7L240.7,77.7L240.7,77.7L240.7,77.7z M258.6,414.8
	c0.1,1.3,0,2.3-0.2,3.3c-0.2,1-0.6,1.8-1,2.6c-0.3,0.6-0.5,1.2-0.8,1.8c-1.1,2-2.3,3.9-3.5,5.7c-0.5,0.8-1,1.7-1.5,2.5
	c-0.3,0.5-0.5,1.1-0.8,1.6c-0.3,0.5-0.6,1-0.9,1.5c-0.2,0.3-0.4,0.2-0.7-0.2c-0.2-0.4-0.4-1.2-0.3-2c0.8-2.6,2.1-4.7,3.6-6.8
	c0.9-1.2,1.5-2.7,2.1-4.1c0.7-1.5,1.3-3.1,1.4-4.5c0-0.4,0-0.9-0.2-1.1c-0.2-0.3-0.4-0.5-0.6-0.7c-0.2-0.2-1-0.2-1.7-0.1
	c-0.7,0.1-1.5,0.2-2.2,0.5c-1.1,0.4-2.1,1-3.2,1.6c-0.2,0.1-0.4,0.3-0.7,0.4c-0.9,0.4-1.1,0.4-1.7,0c-0.1-0.1-0.3-0.2-0.4-0.3
	c-0.4-0.3-0.3-1,0.3-1.6c1.7-1.8,3.9-2.9,6.5-3.5c0.5-0.1,1-0.2,1.6-0.2c0.6,0,1.2,0,2,0.2c0.4,0.1,0.9,0.4,1.2,0.6
	c0.3,0.2,0.6,0.5,0.8,0.8C258.3,413.4,258.5,414.1,258.6,414.8L258.6,414.8L258.6,414.8L258.6,414.8z M227.1,449.6
	c1.2,1.2,2.4,2.3,3.6,3.4c0.4,0.4,1,0.7,1.4,1c0.4,0.4,0.8,0.6,1.2,0.9s0.8,0.6,1.3,0.9l1.3,0.8l1.4,0.6c0.4,0.2,0.9,0.3,1.3,0.4
	c0.4,0.1,0.9,0.2,1.3,0.2l0.9,0c0.3,0,0.6,0.1,0.9,0.1c0.3,0,0.6,0,0.9,0.1c0.3,0.1,0.6,0.2,0.9,0.3c0.4,0.1,0.4,0.4,0.1,0.8
	c-0.1,0.2-0.3,0.5-0.6,0.8c-0.1,0.1-0.3,0.3-0.4,0.5c-0.2,0.1-0.4,0.2-0.6,0.3c-2.8,0.6-5.8-0.3-8-1.8c-0.3-0.2-0.7-0.4-1.1-0.6
	c-0.3-0.2-0.7-0.4-1-0.6c-0.7-0.4-1.4-0.9-2-1.3c-1.4-1.1-2.7-2.2-3.9-3.4l-2.3-2.2c-1.1-1.1-2.3-2.2-3.5-3.2c-0.5-0.4-1-0.7-1.5-1
	c-0.5-0.3-1-0.6-1.5-0.9c-0.2-0.1-0.4-0.2-0.6-0.4c-0.8-0.4-1-0.7-0.9-1.4c0-0.1,0-0.3,0-0.4c0.1-0.5,0.6-0.6,1.4-0.5
	c2.4,0.5,4.5,1.8,6.4,3.2C224.7,447.3,225.9,448.5,227.1,449.6L227.1,449.6L227.1,449.6L227.1,449.6z"/>
<path class="st2" d="M189.5,479.1c5.3,0,10.6-0.4,15.4-1.9c2.4-0.8,4.6-1.9,6.5-3.4c1.8-1.5,3.2-3.5,3.9-5.9
	c0.2-0.4,0.2-0.9,0.4-1.3l0.3-1.3c0.1-0.9,0.2-1.8,0.3-2.8c0.1-1.9,0.1-3.8,0-5.7c-0.3-6.8-1.4-13.7-2.8-20.5
	c-1.4-6.8-3.1-13.5-5.1-20.2c-1.8-5.9-3.8-11.8-6-17.5c-1.4-3.7-2.9-7.3-4.4-11c-1.5-3.6-3.1-7.2-4.4-11c-0.8-2.3-0.7-2,0.7-0.4
	c0.7,0.8,1.8,1.9,2.9,3.4c0.6,0.7,1.1,1.5,1.7,2.4c0.5,0.9,1,1.9,1.5,2.9c3.5,7.4,6.2,15,8.8,22.8c2.5,7.7,4.8,15.6,6.5,23.6
	c1.1,4.8,2.1,9.7,2.9,14.7s1.4,10.1,1.3,15.2l-0.1,2.1c-0.1,0.7-0.2,1.4-0.2,2.1c-0.3,1.4-0.5,2.9-1.2,4.3c-1.1,2.8-2.9,5.3-5.3,7.1
	c-2.4,1.8-5.1,3.1-7.8,3.9c-2.8,0.8-5.5,1.3-8.3,1.6c-6.9,0.7-13.7,0.3-20.4,0c-10.2-0.5-20.4-1.2-30.5-1.5
	c-7.9-0.2-15.6-0.2-23.3,0.1c-1.7,0.1-3.4,0.2-5.1,0.3c-3.2,0.2-5.2,0.4-6.7,0.3c-0.7,0-1.3,0-1.8-0.1s-0.9-0.2-1.3-0.4
	c-0.3-0.2-0.8-0.3-1-0.5c-0.4-0.3,0.1-0.7,1.2-1.2c0.6-0.3,1.3-0.5,2.2-0.7c0.9-0.2,1.9-0.4,3.1-0.5c7-0.9,14.2-1.1,21.5-1
	c7.3,0,14.7,0.3,22,0.6c5.5,0.3,10.9,0.6,16.4,0.8C178.6,478.7,184.1,479.1,189.5,479.1L189.5,479.1L189.5,479.1L189.5,479.1z
	 M91.2,466.1c1.5-0.6,3.3-0.9,5-0.8c0.7,0.1,1.3,0.1,1.9,0.4c2.1,0.8,3.6,2.2,5,3.5c0.6,0.6,1.2,1.2,1.9,1.7
	c0.8,0.7,1.5,1.5,2.1,2.4c0.2,0.3-0.1,0.5-0.5,0.6c-0.4,0.1-1.2,0.1-1.7-0.3c-1-0.6-1.7-1.3-2.5-2c-0.8-0.7-1.5-1.4-2.3-2.1
	c-0.9-0.8-2.1-1.3-3.1-1.5c-0.3-0.1-0.6-0.1-0.9-0.1c-0.3,0-0.6,0-0.9,0c-0.6,0-1.3,0.2-1.9,0.4c-0.8,0.3-1.6,0.6-2.3,1
	c-1.2,0.6-2.4,1.3-3.5,2.1c-0.9,0.6-1.7,1.3-2.6,1.9c-0.2,0.1-0.4,0.3-0.6,0.4c-0.4,0.2-0.7,0.2-0.9,0.2c-0.3-0.1-0.5-0.2-0.7-0.5
	c-0.1-0.1-0.2-0.2-0.3-0.3c-0.1-0.2-0.1-0.3-0.1-0.6c0.1-0.2,0.2-0.6,0.4-0.8c0.6-0.7,1.4-1.3,2.1-1.8c0.8-0.5,1.6-1.1,2.4-1.6
	C88.4,467.5,89.7,466.8,91.2,466.1L91.2,466.1L91.2,466.1L91.2,466.1z"/>
<path class="st2" d="M81.3,479.1c-2.9-0.1-5.7-0.2-8.6-0.4c-1.1-0.1-2.1,0-3.2-0.2l-0.7-0.1c-0.3,0-0.7-0.1-1-0.2
	c-0.7-0.1-1.3-0.4-1.7-0.7c-0.5-0.3-0.8-0.7-1-1.2c-0.1-0.3-0.1-0.5,0-0.8c0.1-0.3,0.1-0.5,0.3-0.8c0.4-0.7,0.9-1.3,1.6-1.8l0.5-0.4
	c0.2-0.1,0.3-0.2,0.5-0.3c0.3-0.1,0.6-0.3,0.8-0.4c1.1-0.4,2.2-0.7,3.3-0.8c1.7-0.2,3.4-0.3,5-0.3l1.6,0c0.5,0,1.1,0.1,1.6,0.2
	c1,0.2,2.1,0.4,3.1,0.7c0.6,0.2,0.5,0.5-0.1,0.8c-0.6,0.3-1.7,0.8-2.8,0.9l-1.6,0.1c-0.5,0-1,0-1.5,0c-1,0-2,0.1-3,0.1
	c-1,0-1.9,0.1-2.9,0.3c-0.5,0.1-0.9,0.2-1.3,0.3c-0.2,0.1-0.4,0.1-0.6,0.2c-0.2,0.1-0.4,0.2-0.5,0.2c-0.2,0-0.3,0.1-0.5,0.3
	c-0.1,0.1-0.2,0.3-0.1,0.4c0.1,0.1,0.3,0.1,0.4,0.2l0.2,0l0.4,0.1l1.4,0.2c2.8,0.3,5.7,0.4,8.5,0.4l5.3,0.1c2.7,0,5.4,0,8,0.1
	c2.1,0,4.1-0.1,6.2-0.1c0.5,0,0.9,0,1.4,0c1.7,0.2,2.3,0.7,2.5,1.4c0,0.2,0.1,0.3,0.1,0.5c0,0.5-0.7,0.7-1.9,0.7
	c-3.6,0-7.3,0-11.1,0L81.3,479.1L81.3,479.1L81.3,479.1L81.3,479.1z M71.2,461.8c1.3,0.5,2.6,0.9,3.9,1.3c0.5,0.1,1,0.2,1.4,0.3
	c0.8,0.2,1.7,0.4,2.5,0.5c0.8,0.2,1.7,0.3,2.6,0.3c0.8,0,1.5-0.1,2.2-0.3c0.4-0.1,0.9-0.2,1.3-0.4l0.3-0.1c0.1,0,0.2,0,0.3-0.1
	c0.2,0,0.5-0.1,0.7-0.2c0.3,0,0.5,0.1,0.5,0.6c0,0.2,0,0.5-0.1,0.9c-0.1,0.3-0.2,0.8-0.6,0.9c-0.3,0.2-0.5,0.4-0.8,0.5l-0.8,0.4
	c-0.3,0.1-0.6,0.2-0.9,0.2l-0.9,0.1c-1.2,0.1-2.3,0.1-3.4-0.2c-1.3-0.2-2.7-0.3-4-0.6c-1.4-0.3-2.8-0.7-4.2-1.2l-2.5-0.9
	c-1.4-0.5-2.5-1.4-3.6-2.1c-0.9-0.6-1.8-1-2.7-1.6c-0.2-0.1-0.4-0.2-0.5-0.4c-0.3-0.3-0.5-0.5-0.5-0.8c-0.1-0.2,0-0.5,0.1-0.7
	c0-0.1,0.1-0.2,0.1-0.4c0.2-0.3,0.7-0.4,1.3-0.3c0.9,0.3,1.8,0.7,2.5,1.1c0.8,0.4,1.6,0.9,2.3,1.3c0.6,0.3,1.1,0.6,1.6,0.9
	c0.2,0.1,0.5,0.2,0.8,0.3L71.2,461.8L71.2,461.8L71.2,461.8L71.2,461.8z M117.3,439c2.4,0.4,4.7,0.9,7.1,1.5
	c0.8,0.2,1.7,0.4,2.6,0.6c3,0.9,5.9,1.9,8.7,3.2c0.6,0.2,1.2,0.6,1.9,0.8c0.6,0.3,1.2,0.6,1.9,0.9c1.6,0.7,3.1,1.6,4.4,3
	c0.4,0.4,0.1,0.6-0.5,0.6c-0.3,0-0.6,0-1.1-0.1c-0.4,0-0.9-0.1-1.3-0.3c-1.6-0.5-3.1-1.2-4.7-1.8c-1.6-0.6-3.1-1.3-4.7-2
	c-1.9-0.8-4-1.2-6.1-1.7c-2.3-0.6-4.6-1-6.8-1.5c-1.4-0.3-2.8-0.4-4.3-0.6l-3.3-0.3c-1.1-0.1-2.2-0.1-3.3-0.1c-1.7,0-3.3,0.4-5,0.5
	c-0.4,0-0.7,0.1-1.1,0.2c-0.7,0.1-1.1,0.1-1.5-0.1c-0.3-0.2-0.5-0.4-0.7-0.8c-0.1-0.2-0.2-0.3-0.2-0.5c-0.1-0.3,0-0.5,0.2-0.8
	c0.2-0.3,0.6-0.6,1.1-0.7c0.8-0.2,1.5-0.4,2.3-0.6c0.8-0.2,1.6-0.2,2.4-0.3c1.6-0.2,3.2-0.1,4.9-0.1
	C112.5,438.3,114.9,438.6,117.3,439L117.3,439L117.3,439L117.3,439z M150.6,435.3c2.1,0.4,4,1.1,5.9,1.9c0.7,0.3,1.4,0.5,2,0.9
	c2.3,1.2,4.5,2.5,6.6,3.8c0.9,0.6,1.9,1.2,2.9,1.7c1.3,0.6,2.4,1.5,3.5,2.5c0.3,0.3,0.2,0.5-0.3,0.6c-0.5,0.1-1.3,0.2-2.1,0
	l-1.1-0.4c-0.4-0.1-0.7-0.3-1-0.5l-1.9-1c-0.6-0.3-1.3-0.7-1.9-1.1c-0.6-0.4-1.2-0.8-1.8-1.2c-1.4-1-3.1-1.6-4.7-2.3
	c-1.7-0.8-3.5-1.5-5.3-1.9c-0.6-0.2-1.1-0.2-1.7-0.3c-0.6-0.1-1.1-0.1-1.7-0.1c-1.7,0-3.4,0.3-4.9,1.1c-1.2,0.6-2.1,1.6-3.1,2.5
	c-0.2,0.2-0.4,0.4-0.6,0.6c-0.4,0.4-0.7,0.6-1,0.6c-0.3,0.1-0.6,0-0.9-0.1c-0.1-0.1-0.3-0.1-0.4-0.2c-0.4-0.2-0.4-0.9,0.1-1.7
	c0.8-1.1,1.6-2.2,2.7-3c1.1-0.9,2.5-1.7,3.9-2.1c1.1-0.4,2.2-0.5,3.4-0.6c0.6,0,1.1,0,1.7,0C149.5,435.1,150.1,435.2,150.6,435.3
	L150.6,435.3L150.6,435.3L150.6,435.3z M225.2,345.7c0.8,2.5,1.6,4.9,2.4,7.3c0.3,0.9,0.7,1.7,1,2.6c1.1,3.1,2.1,6.3,3.3,9.4
	c0.5,1.4,1.1,2.8,1.7,4.1c0.8,1.7,1.5,3.5,2,5.3c0.1,0.6-0.1,0.6-0.7,0.3c-0.5-0.3-1.4-0.9-2-1.9c-2-3.3-3.5-6.9-4.8-10.6
	c-0.7-2.2-1.8-4.4-2.7-6.6c-0.9-2.5-1.8-4.9-2.6-7.4l-1.5-4.6c-0.8-2.3-1.5-4.7-2.2-7c-0.6-1.8-1.3-3.5-1.9-5.3
	c-0.1-0.4-0.3-0.8-0.4-1.2c-0.2-0.8-0.3-1.2-0.2-1.6c0.1-0.4,0.3-0.7,0.5-0.9c0.1-0.1,0.2-0.2,0.3-0.3c0.1-0.1,0.3,0,0.6,0.2
	c0.3,0.2,0.7,0.5,0.9,1.1c0.8,1.5,1.5,3,2.1,4.7c0.7,1.6,1.2,3.2,1.7,4.9C223.6,340.8,224.4,343.2,225.2,345.7L225.2,345.7
	L225.2,345.7L225.2,345.7z M220.5,310.9c-0.9,1.9-2.2,3.6-3.6,5c-0.5,0.5-0.9,1.1-1.5,1.6c-1.9,1.7-4.2,3.2-6.6,4.1
	c-1.1,0.4-2.1,0.8-3.2,1.1c-0.7,0.2-1.4,0.4-2.1,0.4c-0.4,0-0.7,0.1-1.1,0.1s-0.7-0.1-1.1-0.1c-0.4-0.1-0.4-0.4-0.1-0.9
	c0.2-0.2,0.4-0.5,0.7-0.8c0.3-0.3,0.6-0.5,1-0.6c1.3-0.4,2.5-0.8,3.7-1.2c1.2-0.4,2.4-1,3.6-1.6c1.4-0.8,2.6-2,3.7-3.1
	c1.3-1.3,2.5-2.7,3.4-4.2c0.6-0.9,1-2,1.3-3c0.4-1.6,0.5-3.3,0.3-5c-0.2-1.3-0.6-2.6-1-3.9c-0.1-0.3-0.2-0.6-0.2-0.9
	c0-0.3,0-0.5,0-0.7c0-0.2,0.1-0.4,0.2-0.5c0.1-0.3,0.3-0.5,0.6-0.6c0.1-0.1,0.2-0.2,0.4-0.2c0.4-0.1,0.8,0.3,1.4,1
	c0.3,0.5,0.5,1.1,0.7,1.7c0.2,0.6,0.4,1.2,0.6,1.8c0.4,1.2,0.5,2.6,0.6,4.1C222,306.7,221.5,308.9,220.5,310.9L220.5,310.9
	L220.5,310.9L220.5,310.9z M300.5,425.2c-6.4-3.8-12.7-7.7-18.9-11.9c-2.2-1.5-4.5-3-6.7-4.6c-7.7-5.6-15.1-11.8-21.9-18.6
	c-3-3-5.9-6.2-8.5-9.5c-1.7-2.1-3.3-4.3-4.7-6.7c-0.7-1.2-1.3-2.4-1.9-3.6c-0.1-0.3-0.3-0.6-0.4-0.9l-0.3-1c-0.2-0.7-0.4-1.3-0.6-2
	c-0.5-1.6-0.3-1.4,0.6-0.3c0.4,0.6,1.1,1.4,2.1,2.2c0.9,0.9,1.7,2,2.6,3.2c0.7,1.1,1.6,2.1,2.4,3.2c0.8,1.1,1.6,2.1,2.4,3.2
	c1.7,2.1,3.4,4.1,5.2,6.2c3.6,4,7.5,7.8,11.5,11.5c4.8,4.4,10.4,8.4,15.9,12.3c6,4.2,12.3,8.3,18.6,12.1c3.9,2.4,7.9,4.7,11.8,6.9
	c6,3.4,12.1,6.7,18.3,9.9c4.8,2.5,9.5,4.7,14.2,7.1c1,0.5,2.1,1.1,3.1,1.7c1.9,1.1,3.1,2,3.8,2.8c0.8,0.8,1,1.4,1.1,2.1
	c0,0.3,0,0.6,0,0.8c0,0.1-0.2,0.1-0.3,0.1c-0.1,0-0.2-0.1-0.3-0.1c-0.1-0.1-0.3-0.1-0.4-0.2c-0.7-0.3-1.7-0.9-3-1.6
	c-4.1-2.2-8.4-4.3-12.8-6.5c-4.4-2.2-8.9-4.5-13.3-6.8C313.5,432.6,307,429,300.5,425.2L300.5,425.2L300.5,425.2L300.5,425.2z
	 M319.7,476.8c-0.7-0.2-1.4-0.5-2.1-0.7c-0.7-0.3-1.4-0.5-2.1-0.8c-0.5-0.2-1-0.4-1.5-0.6c-1.7-0.9-3.4-2-4.9-3.2
	c-0.3-0.3-0.6-0.6-1-0.9c-0.3-0.3-0.7-0.5-1-0.9c-0.4-0.4-0.8-0.8-1.1-1.2c-0.3-0.5-0.6-0.9-0.9-1.4c-0.2-0.3,0-0.4,0.5-0.4
	c0.4,0,1,0.2,1.5,0.5c1.6,1.1,3.3,2.3,5,3.4c1,0.7,2.2,1.1,3.4,1.5c0.7,0.2,1.3,0.5,2,0.7c0.7,0.2,1.3,0.5,2,0.6
	c0.8,0.3,1.7,0.5,2.5,0.7c1.3,0.3,2.6,0.7,4,0.9c1,0.2,2.1,0.3,3.2,0.5c0.2,0,0.5,0.1,0.7,0.1c0.8,0.4,1,0.7,0.9,1.4
	c0,0.1,0,0.3-0.1,0.5c-0.1,0.5-0.6,0.8-1.2,0.8c-1.8,0-3.6-0.2-5.5-0.6C322.5,477.6,321.1,477.2,319.7,476.8L319.7,476.8
	L319.7,476.8L319.7,476.8z M382.2,463.7c-3.1-2.4-6.6-4.6-10.2-6.3c-0.7-0.3-1.3-0.6-2-0.8c-0.6-0.2-1.4-0.5-1.9-0.6
	c-0.8-0.2-1.9,0.1-3,0.5c-1.1,0.5-2.3,1.1-3.5,1.8c-2.4,1.3-4.9,2.5-7.7,3.1c-2.4,0.5-4.9,0.7-7.4,0.5c-0.8-0.1-1.6-0.2-2.3-0.3
	c-0.8-0.1-1.5-0.4-2.3-0.6c-1.5-0.5-2.9-1.1-4.2-2.1c-0.7-0.7-0.6-0.7,0.3-0.8c0.5-0.1,1.1,0,1.8-0.1c0.7,0,1.5,0.1,2.3,0.3
	c0.7,0.2,1.4,0.3,2.1,0.4c0.4,0,0.7,0.1,1,0.2c0.4,0.1,0.7,0.1,1,0.1c1.4,0.2,2.8,0.2,4.2,0.1c2.8-0.2,5.5-1.1,8.2-2.4
	c1.6-0.7,3.2-1.7,5.1-2.6c0.9-0.4,2-0.9,3.2-1c0.6-0.1,1.3,0,1.9,0.1c0.5,0.1,1,0.3,1.5,0.4c4.1,1.5,7.8,3.6,11.3,6
	c2.1,1.5,4.2,3.1,6.1,5.1c0.4,0.4,0.7,0.8,1,1.2c0.1,0.2,0.4,0.6,0.5,0.9c0.1,0.1,0.2,0.3,0.2,0.5l0.2,0.5c0.2,0.6,0.2,1.3,0,1.9
	c-0.2,0.6-0.8,1.1-1.4,1.2s-1.3,0.1-1.9,0c-0.3-0.1-0.7-0.2-1-0.3c-0.2-0.1-0.5-0.2-0.7-0.3c-0.9-0.4-1.8-0.8-2.7-1.2
	c-2.7-1.4-5.3-2.7-8-3.9c-0.6-0.3-1.2-0.5-1.8-0.8c-2.2-1-2.8-1.4-3-2.3c0-0.2-0.1-0.4-0.1-0.6c-0.1-0.6,1.1-0.9,2.9-0.2
	c2.6,0.9,5.1,2.1,7.5,3.4c1.2,0.6,2.4,1.2,3.6,1.9c0.9,0.4,1.8,0.8,2.7,1.2c0.1,0,0.3,0.1,0.4,0.1c0.1,0,0.1,0,0.1,0h0v0l-0.1-0.2
	C385.2,466.3,383.7,465,382.2,463.7L382.2,463.7L382.2,463.7L382.2,463.7z M367,476.6c-3.2,0.2-6.4,0.1-9.6,0.1
	c-1.2,0-2.3,0-3.5-0.1c-2.1-0.2-4.1-0.3-6.2-0.8c-2.1-0.5-4.1-1.4-5.9-2.3c-1.6-0.9-3.2-1.6-4.8-2c-2.1-0.5-4.2-0.5-6.5-1
	c-0.7-0.1-0.6-0.4-0.1-0.8c0.3-0.2,0.7-0.5,1.2-0.9c0.3-0.1,0.6-0.3,0.9-0.4c0.3-0.1,0.7-0.2,1-0.2c1.3-0.1,2.6,0.1,3.8,0.4
	c1.3,0.3,2.5,0.8,3.6,1.3c2.3,1,4.1,2.2,6.1,2.9c2.4,0.9,5.4,0.8,8.2,0.9c3.1,0.1,6.3,0.1,9.4,0c1,0,1.9-0.1,2.9-0.2l1.1-0.1
	c0.2,0,0.5,0,0.8-0.1c0.4-0.1,0.9-0.1,1.4-0.3c0.2-0.1,0.5-0.2,0.6-0.3c0.2-0.2,0-0.5-0.2-0.6c-0.5-0.4-1.3-0.6-2-0.8
	c-0.3-0.1-0.7-0.1-1-0.1c-0.5,0-1.1-0.1-1.6-0.1c-1.1,0-2.2,0-3.3,0c-0.5,0-1,0-1.5,0c-0.9,0-1.5-0.1-1.9-0.3
	c-0.4-0.2-0.7-0.4-0.9-0.7c-0.1-0.1-0.2-0.3-0.3-0.4c-0.2-0.5,0.6-1,2-1.3c1-0.2,2.1-0.3,3.1-0.4c1.1-0.1,2.1,0,3.2,0
	c0.5,0,1.1,0.1,1.6,0.2c1,0.1,2,0.3,3,0.6c1,0.2,1.8,0.6,2.5,1c0.7,0.4,1.1,0.8,1.4,1.3c0.1,0.2,0.2,0.4,0.4,0.6
	c0.1,0.2,0.1,0.4,0.1,0.6l0,0.2c0,0,0.1,0,0,0.1v0.1c0,0.1,0,0.2,0,0.4c-0.1,0.5-0.2,0.8-0.4,1.1c-0.4,0.6-1,1.1-2.2,1.5
	c-1.1,0.4-2.6,0.7-4,0.8l-0.5,0.1l-0.5,0l-0.6,0L367,476.6L367,476.6L367,476.6L367,476.6z M415.5,477.3l-9.3,0.1
	c-1.1,0-2.2,0.2-3.4,0.2c-4,0-8-0.1-11.9-0.2c-1.8,0-3.5,0-5.3,0.1c-1.1,0.1-2.2,0.1-3.4,0.1c-1.1,0-2.2-0.1-3.4-0.5
	c-0.7-0.5-0.6-0.8,0-1.6c0.3-0.5,0.7-0.9,1.2-1.3c0.5-0.4,1.1-0.8,1.7-0.8l1.7-0.2l0.9-0.1l0.9,0c1.1,0,2.3,0,3.4,0
	c2.3,0,4.6,0.1,6.9,0.3c2.8,0.3,5.6-0.1,8.4-0.1l9.3-0.2c1.9-0.1,3.8-0.1,5.7-0.2c2.9-0.1,5.8-0.2,8.6-0.5c2.2-0.2,4.4-0.7,6.5-1.1
	c0.5-0.1,1-0.2,1.4-0.3c0.9-0.1,1.5-0.1,1.9,0.1c0.2,0.1,0.4,0.2,0.5,0.4c0.2,0.2,0.3,0.5,0.4,0.8c0.1,0.3,0.2,0.5,0.3,0.7
	c0.2,0.7-0.4,1.8-1.7,2.2c-3.9,1.2-8,1.6-12.2,2c-3.1,0.2-6.2,0.4-9.3,0.5L415.5,477.3L415.5,477.3L415.5,477.3z"/>
<path class="st2" d="M446.7,448c1.5-3.3,3-6.5,4.5-9.8c0.5-1.2,1-2.4,1.5-3.6c2-4.2,4-8.4,6.2-12.5c0.9-1.8,1.8-3.7,2.7-5.6
	c0.6-1.2,1.1-2.4,1.8-3.5c0.7-1.1,1.5-2.2,2.4-3.2c0.5-0.6,0.6-0.5,0.7,0.3c0,0.8,0.2,2.3,0,3.8c-0.1,0.3-0.1,0.7-0.2,1l-0.3,1
	l-0.6,1.9c-0.4,1.3-1,2.5-1.5,3.7c-1.1,2.4-2.1,4.9-3.4,7.2c-1.6,2.8-2.6,6-3.9,9c-1.4,3.3-2.9,6.6-4.4,10l-2.8,6.1l-4.3,9.2
	c-0.6,1.2-1,2.4-1.5,3.6l-1.5,3.6c-0.2,0.5-0.5,1-0.8,1.5c-0.3,0.5-0.5,0.8-0.7,1.1c-0.2,0.3-0.5,0.5-0.7,0.7
	c-0.4,0.3-0.8,0.5-1.2,0.5c-0.2,0-0.4,0.1-0.5,0c-0.5,0-0.6-1-0.3-2.7c0.3-1.1,0.6-2.3,1-3.4c0.4-1.1,0.8-2.2,1.2-3.4
	c0.4-1.1,0.8-2.2,1.3-3.4c0.5-1.1,0.8-2.3,1.3-3.4c1.4-3.3,2.9-6.6,4.3-9.9L446.7,448L446.7,448L446.7,448z M200,293.8
	c0.3-1.4,0.5-2.9,0.8-4.3c0.1-0.5,0.1-1,0.3-1.6c0.4-1.8,1-3.7,1.6-5.5c0.3-0.8,0.5-1.6,0.8-2.4c0.3-1,0.8-2,1.5-2.9
	c0.2-0.3,0.4-0.1,0.5,0.2s0.3,1,0.3,1.6c0,1.1-0.2,2.1-0.4,3.1c-0.2,1-0.4,2-0.8,3c-0.4,1.2-0.4,2.5-0.6,3.8
	c-0.2,1.4-0.5,2.8-0.6,4.3c-0.1,0.9-0.3,1.8-0.4,2.6c-0.1,1.3-0.3,2.7-0.4,4c0,1,0.1,2.1,0.1,3.1c0,0.2,0.1,0.5,0,0.7
	c-0.1,0.8-0.4,1.1-1.1,1.2c-0.2,0-0.3,0.1-0.5,0.1c-0.5,0-0.9-0.3-1.2-1c-0.7-1.9-0.6-3.8-0.4-5.8
	C199.5,296.7,199.7,295.2,200,293.8L200,293.8L200,293.8L200,293.8z"/>
<path class="st2" d="M254.4,210.9c6.3,2.7,12.6,5.9,18.3,10c2.9,2.1,5.5,4.5,7.9,7.3c2.3,2.8,4.2,6.1,5,9.9c0.3,1.4,0.4,2.8,0.4,4.1
	c0,0.7-0.1,1.4-0.2,2.1c-0.1,0.7-0.3,1.3-0.4,1.9c-0.1,0.6-0.3,1.3-0.4,1.9l-0.7,1.9c-0.2,0.6-0.4,1.3-0.7,1.9l-0.9,1.8
	c-2.2,4.1-5.5,7.5-9.3,10.1c-3.7,2.6-7.9,4.5-12,6c-4.2,1.5-8.5,2.6-12.8,3.5s-8.7,1.6-13,2.1c-7.7,1-15.5,1.6-23.2,2.2
	c-4.9,0.4-9.9,0.8-14.8,1.3c-4.9,0.5-9.8,1-14.5,2.1c-2.9,0.7-2.7,0.2-0.4-1.2c2.4-1.3,7.1-3,12.8-3.8c10.1-1.2,20.2-1.8,30.2-2.7
	c10-1,20-2.1,29.7-4.7c1.4-0.4,2.9-0.8,4.3-1.3c0.7-0.2,1.4-0.5,2.1-0.8l2.1-0.9l1-0.4l1-0.5l2-1c0.6-0.4,1.3-0.8,1.9-1.2l1-0.6
	c0.3-0.2,0.6-0.5,0.9-0.7l1.8-1.4l1.6-1.5c0.6-0.5,1-1.1,1.5-1.6l0.7-0.8l0.4-0.4l0.3-0.5c1.8-2.4,2.9-5.1,3.8-7.9
	c0.3-1.6,0.7-3.2,0.8-4.7c0-1.5-0.1-3.1-0.6-4.6c-0.5-1.5-1.1-2.9-1.9-4.3c-0.9-1.3-1.8-2.6-2.9-3.8c-2.2-2.4-4.8-4.5-7.5-6.4
	c-2.8-1.9-5.7-3.6-8.7-5.1c-7.4-3.8-15.2-6.8-23.2-9.4c-12.1-3.9-24.6-6.8-37-9c-9.7-1.7-19.3-2.7-28.9-3.3
	c-2.1-0.1-4.2-0.2-6.3-0.2c-4-0.1-6.5-0.1-8.3-0.2c-1.8-0.1-2.8-0.3-3.7-0.6c-0.4-0.1-0.9-0.2-1.2-0.3c-0.2-0.1-0.2-0.2,0-0.5
	c0.2-0.3,0.8-0.6,1.5-0.9c1.5-0.6,3.8-1.1,6.8-1.2c8.9-0.3,17.9,0.4,27,1.5c9.1,1.1,18.2,2.7,27.3,4.7c13.5,3,26.9,6.8,39.8,12.1
	L254.4,210.9L254.4,210.9L254.4,210.9z M140.5,225.2c-0.2,0.5-0.4,1.1-0.5,1.6c-0.1,0.2,0,0.4-0.1,0.6c-0.2,0.7-0.4,1.4-0.6,2.2
	c-0.1,0.3-0.1,0.6-0.1,1c0,0.4,0,0.8-0.1,1.2c0,0.1-0.2,0.1-0.4,0s-0.4-0.3-0.4-0.6c-0.2-0.9-0.3-1.7-0.2-2.6c0.1-0.5-0.1-1.1,0-1.6
	c0.1-0.6,0.1-1.2,0.2-1.8c0.1-0.4,0.1-0.7,0.2-1.1c0.1-0.6,0.3-1.1,0.4-1.6c0.1-0.4,0-0.9,0.1-1.3c0-0.1,0-0.2,0.1-0.3
	c0.2-0.3,0.4-0.3,0.8-0.3c0.1,0,0.2,0,0.2,0c0.2,0.1,0.4,0.3,0.6,0.6c0.3,0.5,0.2,0.8,0.3,1.2c0,0.4-0.1,0.7-0.2,1.1
	C140.8,224.1,140.7,224.6,140.5,225.2L140.5,225.2L140.5,225.2L140.5,225.2z M238.3,101.5c3.8,2.7,7.9,5.3,12,7.6
	c1.5,0.8,3.1,1.6,4.6,2.3c2.7,1.4,5.5,2.7,8.3,3.8c1.4,0.5,2.8,1,4.2,1.3c0.7,0.1,1.4,0.2,1.6,0.1c0.3,0,0.7-0.2,0.8-0.6
	c0.1-0.3,0.1-0.6-0.1-1.1c-0.1-0.6-0.4-1.1-0.7-1.7c-0.6-1.1-1.3-2.2-2.1-3.3c-1-1.3-2.1-2.6-3.3-3.8c-1.2-1.2-2.3-2.5-3.7-3.4
	c-0.9-0.6-0.8-0.6,0.2-0.6c0.5,0,1.2,0.1,2.1,0.3c0.9,0.2,1.9,0.6,2.8,1.2c1.6,1.1,2.9,2.5,4.2,3.9c0.6,0.7,1.2,1.5,1.8,2.3
	c0.5,0.8,1,1.7,1.5,2.7c0.2,0.5,0.4,1,0.6,1.6c0.1,0.3,0.1,0.6,0.2,1c0,0.4,0.1,0.9,0,1.3c0,0.8-0.3,1.7-0.8,2.3
	c-0.5,0.7-1.2,1.1-2,1.4c-0.4,0.1-0.8,0.3-1.2,0.3c-0.4,0-0.9,0.1-1.1,0c-0.6,0-1.1-0.1-1.6-0.2c-1-0.2-1.9-0.5-2.8-0.9
	c-4.2-1.6-8.4-3.4-12.4-5.4c-4.3-2.3-8.5-4.8-12.6-7.5c-2.5-1.7-4.9-3.5-7.3-5.4c-1.8-1.4-3.5-3-5.1-4.7c-0.8-0.8-1.6-1.8-2.2-2.7
	c-0.7-1-1.3-2.1-1.6-3.4c-0.3-1-0.2-2.2,0.4-3.3c0.5-1,1.6-1.8,2.6-2.1c1.1-0.3,2.1-0.3,3-0.2c0.9,0.1,1.9,0.3,2.7,0.5
	c0.8,0.2,1.5,0.4,2.3,0.6c2.8,0.9,3.4,1.5,3.7,2.6c0.1,0.2,0.2,0.4,0.2,0.6c0,0.3-0.2,0.4-0.9,0.6c-0.6,0.2-1.4,0-2.4-0.2
	c-1.5-0.4-2.9-0.8-4.4-1.1c-0.7-0.2-1.4-0.2-2-0.3c-0.6,0-1.2,0-1.5,0.2c-0.3,0.2-0.4,0.3-0.6,0.5c-0.1,0.2-0.1,0.4,0,0.8
	c0.2,0.9,1,2.1,1.9,3.2c1.4,1.7,3.1,3.2,4.9,4.7C234.4,98.6,236.3,100,238.3,101.5L238.3,101.5L238.3,101.5L238.3,101.5z
	 M293.2,88.9c1.1,0.3,2.2,0.6,3.1,0.7l0.3,0h0.3c0.1,0,0.2-0.1,0.2-0.2c0,0,0-0.1,0-0.2v-0.1l0-0.1c-0.1-0.4-0.3-0.9-0.5-1.2
	c-0.5-0.9-1.1-1.8-1.8-2.6c-1.1-1.3-2.4-2.4-3.6-3.5c-4.5-4-9.6-7.5-15-10.7c-2.4-1.4-4.8-2.7-7.3-3.8c-1.6-0.7-3.2-1.4-4.8-2.1
	c-1.6-0.8-3.1-1.5-4.7-2.4c-0.9-0.7-0.9-0.5,0.1-0.6c1-0.1,2.9-0.3,5,0.1c3.6,1,6.9,2.6,10.1,4.4c3.2,1.7,6.4,3.6,9.4,5.8
	c3.6,2.6,7.4,5.1,10.8,8.2c0.9,0.9,1.8,1.8,2.6,2.8c0.8,1,1.6,2.1,2.2,3.3c0.2,0.3,0.3,0.7,0.4,1c0.1,0.4,0.2,0.7,0.3,1.2
	c0.1,0.5,0,1,0,1.4c0,0.5-0.2,0.9-0.4,1.3c-0.1,0.2-0.2,0.4-0.4,0.6c-0.2,0.2-0.4,0.3-0.5,0.4c-0.4,0.2-0.8,0.4-1.3,0.5
	c-0.4,0.1-1,0.1-1.3,0.1c-0.4,0-0.7-0.1-1-0.1c-1.6-0.2-3.1-0.7-4.6-1.2c-1.5-0.5-2.9-1-4.3-1.6c-4.3-1.7-8.4-3.7-12.5-5.6
	c-3.2-1.5-6.4-2.8-9.6-4.2c-0.7-0.3-1.4-0.6-2.1-1c-2.5-1.3-3.2-2-3.5-2.9c0-0.2-0.1-0.4-0.2-0.6c0-0.6,1.2-0.5,3.3,0.1
	c1.5,0.5,3,1.1,4.5,1.6c1.5,0.6,2.9,1.3,4.4,1.9c2.9,1.3,5.9,2.7,8.9,4C284.3,85.6,288.8,87.6,293.2,88.9L293.2,88.9L293.2,88.9
	L293.2,88.9z"/>
<path class="st2" d="M158.2,199.9c0,1.9-0.2,3.7-0.5,5.4c-0.3,1.8-0.7,3.5-1.2,5.1c-0.3,1.2-0.6,2.5-1,3.7
	c-1.4,4.2-3.3,8.3-5.5,12.2c-1,1.7-2,3.4-3.1,5.1c-0.7,1.1-1.6,2.1-2.6,3c-1,0.9-2.3,1.7-3.9,1.6c-1-0.3-0.6-0.5-0.1-1.1
	c0.1-0.1,0.1-0.2,0.2-0.2c0.1-0.1,0.1-0.2,0.2-0.3c0.1-0.2,0.3-0.3,0.4-0.6c0.3-0.4,0.6-0.9,1-1.2c0.8-0.7,1.5-1.6,2.2-2.6
	c0.7-0.9,1.4-1.9,2-2.9c1.3-2.1,2.5-4.2,3.6-6.5c1.4-2.7,2.3-5.7,3.1-8.6c0.9-3.2,1.7-6.5,2-9.8c0.1-1,0.1-2,0-3
	c-0.1-0.5-0.1-1-0.2-1.4l-0.2-0.6l-0.2-0.4c0-0.1-0.1-0.1-0.1-0.2c-0.1-0.2-0.2-0.4-0.4-0.4c-0.2-0.1-0.4,0-0.6,0.1
	c-0.2,0.1-0.4,0.2-0.5,0.3c-0.2,0.2-0.5,0.4-0.8,0.7c-1,1-1.9,2.2-2.8,3.4c-1.3,2-2.4,4.1-3.5,6.3c-0.2,0.5-0.5,0.9-0.7,1.4
	c-0.9,1.7-1.5,2.2-2.2,2.3c-0.2,0-0.4,0.1-0.5,0.1c-0.5,0-0.6-1-0.2-2.4c1.4-4.3,3.5-8.5,6.7-12.3c0.3-0.4,0.7-0.8,1.1-1.2
	c0.2-0.2,0.4-0.4,0.6-0.6l0.2-0.2c0.1-0.1,0.2-0.1,0.3-0.2l0.6-0.4c0.8-0.5,1.6-0.8,2.5-0.7c0.9,0,1.6,0.5,2.2,1.1
	c0.4,0.6,0.8,1.3,1.1,1.9l0.1,0.2c0,0.1,0,0.1,0.1,0.2l0.1,0.4l0.2,0.7l0.2,1.4L158.2,199.9L158.2,199.9L158.2,199.9z M148.7,240.9
	c0.4-0.4,0.6-0.5,0.9-0.8l0.8-0.6c0.5-0.4,1.1-0.7,1.6-1.1c0.6-0.3,1.1-0.7,1.6-0.9l1.7-0.8c0.6-0.3,1.1-0.4,1.7-0.6
	c0.6-0.2,1.1-0.4,1.7-0.6c1.1-0.3,2.3-0.6,3.5-0.8c4.6-0.9,9.2-1.3,13.8-1.5c3.4-0.1,6.7-0.2,10-0.1c11.8,0.3,23.4,1.6,35,2.7
	c5.1,0.5,10.3,0.9,15.4,1.1c6.6,0.4,13.1,0.4,19.5,0.2c1,0.1,1.5,0.2,1.5,0.4c0,0.2-0.4,0.5-1.2,1c-0.4,0.3-0.9,0.5-1.5,0.8
	c-0.6,0.2-1.3,0.5-2,0.7c-1.5,0.4-3.3,0.7-5.2,0.7c-6.9,0.1-13.6-0.4-20.3-1s-13.4-1.3-20.2-2c-8.1-0.8-16.5-1.1-24.7-1.1
	c-4.5,0-9,0.2-13.5,0.7c-4.4,0.5-8.9,1.4-12.8,3.1l-0.9,0.4c-0.3,0.1-0.6,0.3-0.9,0.5c-0.6,0.3-1.2,0.6-1.6,1.1l-0.8,0.6l-0.3,0.3
	l-0.3,0.3c-0.4,0.5-0.9,1-1.2,1.6c-1.6,2.2-2.9,4.6-3.9,7.1c-3.2,7.7-4.7,16.1-5.6,24.5c-0.6,6.5-0.7,12.9-0.8,19.4
	c0,1.4,0,2.8-0.1,4.3c-0.3,5.4-1,7.2-2.1,8.1c-0.2,0.2-0.5,0.5-0.7,0.6c-0.2,0.1-0.2,0-0.3-0.2c-0.1-0.2-0.1-0.5-0.1-1
	c-0.1-0.9-0.2-2.4-0.2-4.3c-0.1-11.5,0-23.9,2.1-36.3c0.8-4.6,1.9-9.2,3.4-13.7C143.2,249.1,145.3,244.7,148.7,240.9L148.7,240.9
	L148.7,240.9L148.7,240.9z M143.4,359.4c3.3,6.6,6.7,13.1,10.1,19.7c1.2,2.4,2.6,4.8,3.8,7.2c4.3,8.5,8.4,17.1,12.1,25.9
	c1.6,3.9,3.2,7.9,4.6,11.8c0.9,2.5,1.8,5.1,2.4,7.8c0.6,2.7,1.1,5.4,1,8.1c0,1.7-0.3,1.5-0.9,0.1c-0.3-0.7-0.7-1.6-1.2-2.8
	c-0.2-0.6-0.4-1.2-0.7-1.8c-0.2-0.6-0.5-1.3-0.7-2.1c-2.8-10.4-7.1-20.4-11.6-30.5c-2.7-6-5.9-12.1-9.1-18.1
	c-3.4-6.6-6.9-13.2-10.4-19.8c-2.1-4.1-4.2-8.2-6.2-12.3c-1.5-3.1-3-6.3-4.3-9.5c-1.3-3.2-2.6-6.5-3.4-10c-0.6-2.6-1.1-5.3-1.2-8.1
	c-0.1-2.7,0.1-5.5,0.8-8.2c0.3-1.2,0.7-2.3,1.2-3.5c0.5-1,0.9-1.9,1.4-2.6c0.4-0.7,0.8-1.2,1.2-1.6c0.7-0.8,1.3-1.1,1.9-1.2
	c0.3,0,0.6-0.2,0.8-0.1c0.4,0,0.4,0.5,0.1,1.2c-0.3,0.8-0.9,1.8-1.5,3.1c-2.1,4-3,8.4-2.7,13.1c0.1,2.3,0.5,4.6,1,7
	c0.3,1.2,0.6,2.3,0.9,3.4c0.4,1.1,0.8,2.3,1.2,3.4C136.8,346.1,140.1,352.8,143.4,359.4L143.4,359.4L143.4,359.4L143.4,359.4z"/>
<path class="st2" d="M167,311.8c2.1,0,4.3,0.1,6.5-0.2c2.1-0.2,4.3-0.3,6.4-0.8c0.8-0.1,1.6-0.3,2.3-0.5l1.2-0.2l1.1-0.3l4-1
	c1.3-0.4,2.6-0.9,4-1.4l1-0.3c0.3-0.1,0.6-0.3,1-0.4l1.9-0.8c0.6-0.3,1.3-0.5,1.9-0.9l1.9-1l1.6-0.9c0.5-0.3,1-0.7,1.6-1
	c1-0.7,2.1-1.4,3-2.2c0.6-0.5,1.2-1,1.9-1.5l1.7-1.6c0.6-0.5,1.1-1.1,1.7-1.6c0.6-0.5,1.1-1.1,1.6-1.7c0.6-0.7,0.8-0.5,0.7,0.4
	c-0.1,0.5-0.2,1.1-0.5,1.9c-0.3,0.7-0.7,1.6-1.2,2.4c-2.2,2.7-4.8,5-7.7,6.9c-0.4,0.2-0.7,0.5-1.1,0.7l-1.1,0.6l-2.2,1.2
	c-1.5,0.8-3.1,1.4-4.7,2.1c-0.9,0.4-1.9,0.7-2.9,1c-1,0.4-1.9,0.7-2.9,1.1c-2,0.6-4,1.3-6,1.7c-4.5,1-9,1.6-13.6,1.7l-4.2,0.1
	c-0.7,0-1.4,0-2.1-0.1l-2.1-0.1l-3.2-0.2l-0.8,0l-0.8-0.1l-1.6-0.2c-1-0.2-2.1-0.3-3.1-0.5c-1-0.2-2.1-0.2-3.1-0.5
	c-1.6-0.3-3.2-0.6-4.8-0.9l-2.4-0.4c-0.8-0.2-1.6-0.4-2.3-0.7c-0.7-0.2-1.4-0.4-2-0.6c-0.6-0.2-1.1-0.4-1.6-0.6
	c-0.4-0.2-0.7-0.4-1-0.6c-0.5-0.4-0.8-0.7-0.9-1.1c-0.1-0.2-0.2-0.3-0.2-0.5c-0.1-0.4,1.1-0.5,3-0.5c2.9,0.3,5.6,1,8.5,1.5
	c1.4,0.3,2.9,0.5,4.3,0.8c0.4,0.1,0.7,0.2,1.1,0.2l1.1,0.1l2.2,0.3l3.2,0.5l0.8,0.1l0.8,0l1.6,0.1
	C162.7,311.6,164.8,311.8,167,311.8L167,311.8L167,311.8L167,311.8z M101,457.8c-1-2.8-2.2-5.5-3.9-7.9c-0.6-0.8-1.3-1.5-2.1-2.1
	c-0.7-0.5-1.3-0.8-2-0.9c-0.3,0-0.5,0-0.6,0c-0.2,0.1-0.2,0.2-0.4,0.5c-0.2,0.6-0.3,1.6-0.3,2.5c0,0.9,0.1,1.9,0.2,2.9
	c0.2,1.7,0.6,3.5,0.9,5.2c0.2,1.1,0.4,2.2,0.4,3.4c0,0.6,0,1.2-0.1,1.8c0,0.3-0.1,0.6-0.3,0.9c-0.1,0.3-0.2,0.6-0.4,0.9
	c-0.5,0.7-0.6,0.4-0.7-0.3c-0.1-0.3-0.1-0.7-0.4-1.2c-0.2-0.5-0.3-1-0.4-1.6l-0.6-3.2l-0.6-3.4c-0.2-1.2-0.4-2.3-0.5-3.5
	c-0.1-1.2-0.2-2.4,0-3.8c0.1-0.8,0.2-1.7,0.9-2.7c0.3-0.5,0.8-0.9,1.4-1.1c0.6-0.2,1.1-0.2,1.6-0.2c1.9,0.1,3.4,1.2,4.5,2.2
	c1.3,1.2,2.2,2.5,3.1,3.9c0.8,1.4,1.6,2.8,2.2,4.3c0.8,1.8,1.4,3.6,2,5.5c0.9,2.8,1.5,5.7,2.1,8.6c0.4,2.2,0.9,4.4,1.1,6.7
	c0.1,0.5,0.1,1,0.1,1.5c0,0.9-0.1,1.6-0.3,2c-0.2,0.4-0.4,0.7-0.8,0.8c-0.2,0.1-0.3,0.2-0.4,0.2c-0.5,0.1-0.8-0.6-1.2-1.9
	c-0.1-1-0.4-1.9-0.5-2.9c-0.2-1-0.3-1.9-0.5-2.9c-0.3-2-0.7-3.9-1.2-5.9C102.7,463.6,102,460.6,101,457.8L101,457.8L101,457.8
	L101,457.8z M298.1,467.6c0.7-1.5,1.4-3,1.6-4.6c0.2-0.8,0.2-1.7,0.3-2.5c0-0.4,0-0.8,0-1.2c0-0.4,0-0.8-0.1-1.2
	c-0.4-3.2-2-6.4-4.2-9c-1.6-1.9-3.6-3.5-5.8-4.9c-3.8-2.4-8.2-3.9-12.7-4.2c-4.5-0.3-9.1,0.5-13.4,2.3c-3.8,1.5-7.3,3.9-10.5,6.5
	c-2,1.7-3.9,3.6-5.7,5.5c-1.8,2-3.4,4-5.1,6.1c-1.1,1.3-1,1.1-0.6-0.3c0.2-0.7,0.4-1.8,0.9-2.9c0.3-0.6,0.5-1.2,0.9-1.9
	c0.4-0.6,0.8-1.3,1.3-1.9c3.5-4.5,7.8-8.4,12.7-11.4c4.9-3,10.7-4.8,16.5-5c3.5-0.1,7.1,0.4,10.5,1.4c3.4,1.1,6.7,2.7,9.5,5
	c3.1,2.5,5.7,5.6,7.3,9.2c0.8,1.8,1.4,3.8,1.5,5.8c0,0.5,0,1,0.1,1.5l-0.1,1.5c0,1-0.2,2-0.4,2.9c-0.5,2.4-1.5,4.7-2.9,6.7
	c-1.4,2-3.3,3.7-5.3,5c-3.1,2-6.6,3.2-10.1,3.9c-3.5,0.7-7.1,0.9-10.6,0.8c-2.7-0.1-5.5-0.4-8.1-0.9c-2.7-0.5-5.3-1.2-7.9-2.3
	c-0.6-0.2-1.1-0.5-1.7-0.8c-0.5-0.3-1.1-0.5-1.6-0.9c-1-0.6-1.8-1.2-2.4-1.8c-0.6-0.6-1-1.1-1.3-1.6c-0.3-0.5-0.5-0.9-0.6-1.3
	c-0.1-0.4-0.1-0.7-0.1-1c0-0.3,0-0.6,0.1-0.8c0.2-0.6,1.4,0.8,3.9,2.3c1.8,1.2,3.8,2.2,6,2.9c2.2,0.8,4.4,1.4,6.7,1.8
	c4.6,0.9,9.4,1.1,14.1,0.6c3.5-0.4,6.9-1.2,9.9-2.8c1.5-0.7,2.9-1.7,4.1-2.8C296.2,470.3,297.2,469,298.1,467.6L298.1,467.6
	L298.1,467.6L298.1,467.6z M342.5,454.6c-1.5,1.5-2.9,3.2-4.1,5.1c-0.5,0.7-0.8,1.4-1.2,2.1c-1.5,2.5-2.8,5.1-4,7.8
	c-0.5,1.2-0.9,2.5-1.2,3.7c-0.2,0.8-0.4,1.6-0.7,2.4l-0.2,0.6l-0.3,0.6c-0.2,0.4-0.3,0.8-0.5,1.2c-0.2,0.5-0.4,0.4-0.6-0.1
	c-0.1-0.2-0.3-0.6-0.5-1c-0.1-0.2-0.2-0.5-0.2-0.7c0-0.1,0-0.2-0.1-0.4v-0.4c0.1-1.8,0.5-3.5,1-5.2c0.5-1.7,1.3-3.3,2.1-4.9
	c1-1.9,1.8-4,2.9-5.9c1.2-2.1,2.6-4.1,4.2-5.9c1-1.1,2.1-2.2,3.4-3.1c1.6-1.1,3.8-2,6.1-1.1c0.2,0.1,0.4,0.3,0.6,0.4
	c0.2,0.1,0.4,0.4,0.5,0.5c0.3,0.5,0.5,1.1,0.5,1.7c0.1,0.5,0.1,1,0.1,1.4c0,0.9-0.1,1.8-0.2,2.6c0,0.4-0.1,0.7-0.2,1.1
	c-0.2,0.6-0.3,1.1-0.5,1.3c-0.3,0.2-0.6,0.4-1,0.5c-0.2,0-0.3,0.1-0.5,0.1c-0.3,0-0.5-0.1-0.7-0.4c-0.2-0.3-0.5-0.8-0.4-1.3
	c-0.1-1.4,0.2-2.7,0.3-3.8c0.1-0.5,0.1-1.2,0-1.4c0,0,0,0,0,0c0,0,0,0,0,0c0,0-0.1,0-0.1,0c-0.1,0-0.2,0-0.3,0
	c-0.5,0-1.3,0.2-2.1,0.7C344.1,453.2,343.3,453.8,342.5,454.6L342.5,454.6L342.5,454.6L342.5,454.6z M247.7,440.5
	c-1.6-2.2-2.8-4.9-4.9-6.6c-1.2-1-2.7-1.7-4.3-1.2s-2.6,2-3.2,3.4c-0.7,1.6-1.1,3.4-1.2,5.1c0,0.7,0.6,1.4,1.4,1.4
	c0.8,0,1.3-0.6,1.4-1.4c0-0.2,0-0.5,0.1-0.7c0-0.2,0,0.2,0,0c0-0.1,0-0.1,0-0.2c0-0.2,0.1-0.3,0.1-0.5c0.2-0.8,0.4-1.7,0.7-2.4
	c-0.1,0.2,0.1-0.2,0.1-0.3c0.1-0.3,0.3-0.6,0.5-0.9c0-0.1,0.2-0.4,0.2-0.2s0.1-0.2,0.2-0.2c0.1-0.1,0.2-0.2,0.3-0.3
	c-0.2,0.2,0.1-0.1,0.2-0.1c0.2-0.2-0.1,0,0.1,0c0.1,0,0.5,0,0.1,0c0.1,0,0.2,0,0.3,0c0.2,0-0.2-0.1-0.1,0c0.1,0,0.2,0,0.2,0.1
	c0.1,0,0.1,0,0.2,0.1c0,0-0.2-0.1-0.1,0c0.1,0.1,0.2,0.1,0.4,0.2l0.3,0.2c0.2,0.1,0,0,0,0c0.1,0.1,0.1,0.1,0.2,0.2
	c1.1,1,1.7,1.8,2.4,3c0.7,1,1.2,2.1,1.9,3c0.4,0.6,1.2,0.9,1.9,0.5C247.9,442.1,248.2,441.1,247.7,440.5L247.7,440.5L247.7,440.5z
	 M262.1,436.6c-0.4-1.1-1.1-2-1.8-2.9s-1.6-1.7-2.6-2.2c-1.1-0.6-2.3-0.8-3.4-0.2s-1.7,1.9-2,3.1c-0.3,1.5-0.4,3-0.5,4.5
	c-0.1,0.7,0.7,1.4,1.3,1.3c0.8,0,1.2-0.6,1.3-1.3c0.1-0.5,0.1-1,0.1-1.6c0-0.3,0-0.5,0.1-0.8c0-0.1,0-0.3,0.1-0.5c0-0.1,0-0.1,0-0.2
	c0,0.2,0,0.1,0,0c0.1-0.5,0.2-1.1,0.4-1.6c0,0,0-0.2,0.1-0.2c0,0-0.1,0.3,0,0.1c0.1-0.1,0.1-0.2,0.1-0.3c0,0,0.1-0.1,0.1-0.1
	c0.1-0.1-0.2,0.2-0.1,0.1c0,0,0.2-0.2,0.2-0.2c0,0-0.3,0.2,0,0s0,0-0.1,0c0,0,0.2-0.1,0.2-0.1c0,0-0.4,0-0.2,0h0.2c0.3,0,0,0-0.1,0
	c0,0,0.2,0,0.3,0.1c0.1,0,0.2,0.1,0.3,0.1c0,0,0.2,0.1,0,0c-0.2-0.1,0,0,0,0c0.2,0.1,0.4,0.2,0.5,0.3c0.1,0.1,0.2,0.1,0.3,0.2
	c0,0,0.1,0,0.1,0.1c-0.1-0.1-0.2-0.1-0.1-0.1c0,0,0.1,0.1,0.1,0.1c0.4,0.3,0.7,0.6,1,1c0.2,0.2,0.4,0.4,0.5,0.6
	c-0.2-0.3,0,0,0.1,0.1c0.1,0.1,0.1,0.2,0.2,0.3c0.1,0.2,0.3,0.4,0.4,0.6c0,0.1,0.1,0.2,0.1,0.3c0.2,0.3-0.1-0.2,0,0.1
	c0.2,0.6,0.9,1.2,1.6,0.9C261.9,438,262.4,437.3,262.1,436.6L262.1,436.6L262.1,436.6z M231.5,450.7c0.1,0,0.1,0,0.2,0
	c0.2,0-0.3-0.2-0.1,0c0.1,0.1,0.2,0.1,0.4,0.2c0.1,0,0.1,0.1,0.2,0.2c0.2,0.1-0.3-0.2,0,0c0.1,0.1,0.3,0.2,0.4,0.4
	c0.8,0.6,1.6,1.3,2.5,1.7c1.1,0.5,2.2,0.8,3.4,0.7c1.7-0.2,3.1-1,4.3-2c0.6-0.4,0.5-1.4,0-1.9c-0.6-0.6-1.3-0.4-1.9,0
	c-0.3,0.2-0.5,0.4-0.8,0.5c-0.2,0.1-0.3,0.2-0.5,0.3c0,0-0.4,0.2-0.2,0.1c-0.3,0.1-0.6,0.2-0.8,0.3c-0.1,0-0.6,0.1-0.2,0
	c-0.1,0-0.2,0-0.3,0h-0.4c-0.1,0-0.4,0-0.1,0c-0.2,0-0.5-0.1-0.7-0.2c-0.1,0-0.2-0.1-0.3-0.1c-0.3-0.1,0.1,0.1-0.1,0
	c-0.2-0.1-0.4-0.2-0.6-0.3c-0.4-0.2-0.7-0.5-1.1-0.7c0.3,0.2,0,0,0,0c-0.1-0.1-0.2-0.1-0.3-0.2c-0.1-0.1-0.3-0.2-0.4-0.4
	c-0.6-0.5-1.2-1-2-1.2c-0.7-0.1-1.4,0.2-1.6,0.9C230.4,449.7,230.8,450.6,231.5,450.7L231.5,450.7L231.5,450.7z M144.1,238.2
	c-0.4-0.3-0.9-0.6-1.3-0.8c-0.2-0.1-0.4-0.1-0.5-0.2c-0.3-0.2-0.6-0.3-0.9-0.5c-0.3-0.2-0.6-0.4-0.9-0.5c-0.3-0.1-0.6-0.2-0.8-0.3
	c-0.4-0.1-0.7-0.2-1-0.4c-0.1-0.1-0.1-0.3,0.1-0.5c0.1-0.2,0.4-0.5,0.6-0.6c0.9-0.2,1.6,0,2.4,0.4c0.4,0.2,0.9,0.3,1.4,0.5
	c0.5,0.2,1,0.4,1.5,0.6c0.3,0.1,0.6,0.3,0.9,0.4c0.4,0.2,0.9,0.5,1.4,0.7c0.2,0.1,0.4,0.1,0.6,0.2c0.2,0.1,0.4,0.1,0.6,0.2
	c0.1,0,0.2,0.1,0.3,0.1c0.1,0.1,0.2,0.3,0.1,0.4c0,0.2-0.1,0.3-0.2,0.5c-0.1,0.1-0.1,0.2-0.2,0.3c-0.2,0.2-0.5,0.4-0.8,0.6
	c-0.4,0.1-0.7,0-1,0c-0.3-0.1-0.6-0.2-0.9-0.4C145,238.7,144.5,238.5,144.1,238.2L144.1,238.2L144.1,238.2L144.1,238.2z"/>
<path class="st3" d="M153.9,341c-1,0-1.6-0.8-1.9-1.8c-0.1-0.3,0.3-1.1,0.5-1.1c0.5,0,1.1-0.1,1.6,0c0.1,0,0.4,0.1,0.9,0.2
	c0.5,0.1,1.1,0.2,1.8,0.3c1.4,0.2,2.9,0.3,3.7,0.2c1.5,0,3.1,0,4.6-0.1c3.1-0.1,6.4-0.6,9.7-1c0.7-0.1,1.5-0.1,2.2-0.2
	c1.3,0,2.6-0.1,3.9-0.1c1.4,0,2.7,0,4,0c0.4,0,0.9,0.1,1.3,0c0.4-0.1,2.3,0,4.2,0.2c1.9,0.2,3.8,0.5,4.3,0.6
	c2.1,0.5,4.3,0.9,6.4,1.2c0.3,0,0.6,0,0.9,0.2c0.6,0.4,1.3,0.4,1.9,0.4c0.9,0,1.8,0,2.7,0.1c0.4,0,0.9,0.1,1.4,0.2
	c0.4,0.1,0.3,0.6,0.1,0.7c-0.4,0.2,0,0.4,0.1,0.6c0,0.1,0.1,0.2,0,0.2c0,0-0.4,0.2-0.9,0.3c-0.5,0.2-1.2,0.3-2,0.5
	c-0.8,0.2-1.5,0.3-2.1,0.4c-0.6,0.1-1.1,0.1-1.2,0.1c0,0-0.6,0-1.4,0c-0.8,0-1.9-0.1-2.9-0.1c-2.1-0.1-4.4-0.3-4.8-0.3
	c-0.5,0-0.9-0.2-1.4-0.3c-0.1,0-1.7-0.1-3.4-0.2s-3.2-0.1-3.3-0.1c-1.2-0.1-2.5,0-3.7-0.2c-0.2,0-0.5,0-0.7,0l-6.6,0.6
	c-1.1,0.1-2.3,0.3-3.5,0.4c-0.2,0-0.4,0-0.6,0c-0.3,0-0.5,0-0.8,0c-2.8,0.3-5.6,0.2-8.6,0.1c-0.7,0-3.8-0.8-4.5-1
	C155.5,341.9,154.3,341,153.9,341L153.9,341L153.9,341z M214.7,359c0.8,0.3,1,1,0.9,1.9c0,0.3-0.6,0.7-0.8,0.7
	c-0.4-0.1-0.8-0.2-1.1-0.3c-0.1,0-0.9-0.5-1.8-0.8c-0.9-0.3-2-0.5-2.6-0.5c-1.1-0.1-2.2-0.2-3.4-0.2c-2.4-0.1-4.8,0.2-7.2,0.5
	c-0.6,0.1-1.1,0.1-1.7,0.1c-1.9,0.1-3.8,0.4-5.7,0.7c-0.3,0.1-0.6,0.1-0.9,0.2c-0.2,0.1-1.7,0.4-3.1,0.6s-3,0.3-3.4,0.3
	c-1.8,0-3.5-0.1-5.3-0.3c-0.2,0-0.5,0-0.8-0.1c-0.5-0.4-1.1-0.3-1.6-0.4c-0.8-0.1-1.5-0.3-2.2-0.6c-0.4-0.1-0.7-0.4-1-0.6
	c-0.3-0.2,0-0.6,0.1-0.6c0.4,0,0.2-0.3,0.2-0.5c0-0.1,0-0.1,0.1-0.2c0,0,1,0,2.1,0s2.1-0.1,2.4-0.1c0,0,0.4,0,1,0
	c0.6,0,1.3,0,2.1-0.1c1.5-0.1,3.2-0.4,3.5-0.4c0.3-0.1,0.7,0,1.1,0c0.2,0,4.9-0.9,5.1-1c1-0.1,2-0.4,3-0.3c0.2,0,0.4,0,0.6-0.1
	c1.7-0.3,3.5-0.5,5.2-0.6c0.9-0.1,1.8-0.2,2.7-0.3c0.2,0,0.3,0,0.5,0c0.2,0,0.4,0,0.6,0c2.2-0.1,4.4,0,6.7,0.3
	c0.3,0.1,1,0.2,1.7,0.6c0.7,0.3,1.4,0.7,1.7,0.8C213.7,357.9,214.4,358.8,214.7,359L214.7,359L214.7,359z M172.1,392.9
	c-0.1,0.4-0.6,0.2-1.4-0.2c-0.2-0.1-0.8-0.7-0.8-0.9c0-0.3,0.1-0.7,0.2-1c0-0.1,0.5-0.6,1.2-1.1c0.6-0.5,1.4-0.9,1.8-1.1
	c0.8-0.4,1.6-0.6,2.4-0.7c1.7-0.2,3.3-0.3,4.9-0.1c0.3,0,0.7,0.1,1,0.2c1.1,0.4,2.3,0.5,3.4,0.7c0.2,0,0.4,0.1,0.6,0
	c0.4-0.2,3.4,0.6,3.8,0.9c0.9,0.5,1.8,1,2.7,1.6c0.1,0.1,0.3,0.1,0.4,0.3c0.1,0.4,0.4,0.5,0.7,0.6c0.4,0.2,0.8,0.4,1.1,0.7
	c0.2,0.1,0.3,0.4,0.4,0.6c0.1,0.2-0.2,0.6-0.3,0.6c-0.2,0.1-0.2,0.4-0.3,0.5c0,0.1-0.1,0.2-0.1,0.2c-0.1,0.1-2.5,0-2.8-0.1
	c0,0-0.2-0.1-0.5-0.2c-0.3-0.1-0.7-0.2-1.1-0.3c-0.9-0.2-1.8-0.4-1.9-0.4c-0.2,0-0.4-0.1-0.5-0.2c-0.1-0.1-2.7-0.4-2.8-0.4
	c-0.5-0.1-1.1-0.1-1.6-0.5c-0.1-0.1-0.2-0.1-0.3-0.1c-0.9-0.1-1.9-0.3-2.8-0.4c-0.5-0.1-0.9,0-1.4,0c-0.1,0-0.2,0-0.2-0.1
	c-0.1,0-0.2-0.1-0.3-0.1c-1.1,0.1-2.1,0.1-3,0.5c-0.2,0.1-1.3,0.1-1.5,0.3C172.9,393,172.2,392.8,172.1,392.9L172.1,392.9
	L172.1,392.9z M181.2,416.6c-0.4,0.3-0.8-0.1-1.2-0.8c-0.1-0.2-0.2-0.9-0.1-1c0.2-0.2,0.4-0.4,0.6-0.6c0.1-0.1,2.5-0.8,3.3-0.9
	c0.4-0.1,0.8-0.2,1.2-0.2c0.4,0,0.8,0,1.2,0l1.2,0l1.2,0c0.8,0,1.6,0.1,2.5,0.2c0.4,0,0.7,0.1,1.1,0.2c1.2,0.4,2.4,0.7,3.7,0.9
	c0.2,0,0.4,0.1,0.6,0.1c0.2,0,1.1,0.2,2,0.5c0.9,0.3,1.8,0.8,2,0.9c0.9,0.7,1.8,1.3,2.7,2c0.1,0.1,0.3,0.2,0.3,0.3
	c0.1,0.4,0.4,0.6,0.7,0.8c0.4,0.3,0.7,0.6,1,0.9c0.1,0.2,0.2,0.4,0.3,0.7c0.1,0.2-0.3,0.5-0.4,0.5c-0.2,0-0.2,0.3-0.3,0.4
	c0,0-0.1,0.1-0.1,0.2c-0.1,0-2.6-0.8-2.8-0.9c0,0-0.2-0.1-0.5-0.3c-0.3-0.2-0.7-0.4-1.1-0.6c-0.9-0.4-1.8-0.7-1.9-0.8
	c-0.2,0-0.4-0.2-0.5-0.3c0,0-0.7-0.2-1.4-0.4c-0.7-0.2-1.4-0.3-1.5-0.3c-0.5-0.2-1.1-0.2-1.6-0.6c-0.1-0.1-0.2-0.1-0.3-0.1
	c-0.5,0-1-0.1-1.5-0.2c-0.5-0.1-1-0.2-1.5-0.2c-0.5-0.1-1-0.1-1.5-0.1c-0.1,0-0.2,0-0.3-0.1c-0.1,0-0.2-0.1-0.4-0.1
	c-0.6,0-1.2,0-1.8,0c-0.6,0-1.2,0-1.9,0.1c-0.3,0.1-1.7-0.2-2-0.1C182,416.9,181.3,416.5,181.2,416.6L181.2,416.6L181.2,416.6z
	 M190.1,443.3c-0.4,0.1-0.4-0.4-0.4-1.3c0-0.3,0.3-1.1,0.5-1.1c0.3-0.1,0.6-0.2,0.9-0.3c0.1,0,0.7,0.1,1.3,0.3
	c0.7,0.2,1.4,0.5,1.7,0.7c0.7,0.3,1.3,0.8,1.9,1.3c1.1,1,2.1,2.1,3,3.3c0.2,0.3,0.4,0.6,0.5,0.9c0.4,1.1,0.9,2.1,1.4,3
	c0.1,0.2,0.1,0.3,0.3,0.5c0.1,0.1,0.5,0.8,0.8,1.6c0.3,0.8,0.5,1.6,0.5,1.8c0.1,1,0.1,1.9,0.2,2.9c0,0.1,0.1,0.3,0,0.4
	c-0.3,0.4-0.2,0.6-0.1,0.9c0.1,0.4,0.1,0.8,0,1.2c0,0.2-0.2,0.4-0.3,0.6c-0.1,0.2-0.6,0.2-0.7,0.1c-0.2-0.1-0.4,0-0.6,0.1
	c-0.1,0-0.2,0-0.2,0c-0.1,0-1.4-1.9-1.5-2.1c0,0-0.1-0.2-0.2-0.5c-0.1-0.3-0.2-0.7-0.4-1c-0.3-0.8-0.6-1.5-0.7-1.7
	c-0.1-0.2-0.1-0.4-0.1-0.5c0-0.1-1.1-2.2-1.2-2.2c-0.2-0.5-0.5-0.8-0.5-1.4c0-0.1-0.1-0.2-0.1-0.3c-0.4-0.7-0.8-1.4-1.2-2.1
	c-0.2-0.4-0.5-0.6-0.8-1c-0.1-0.1-0.1-0.1-0.1-0.2c0-0.1-0.1-0.2-0.1-0.2c-0.7-0.7-1.3-1.5-2.2-1.9c-0.2-0.1-0.9-1-1.1-1
	C190.4,444,190.3,443.2,190.1,443.3L190.1,443.3L190.1,443.3z M163.2,456.3c-0.3,0.2-0.3-0.3-0.3-1.2c0-0.3,0.2-1.1,0.3-1.2
	c0.2-0.2,0.4-0.4,0.6-0.5c0.1-0.1,1.6,0,2.2,0.1c0.5,0,1,0.2,1.4,0.4c0.9,0.4,1.8,0.9,2.7,1.4c0.2,0.1,0.4,0.3,0.5,0.5
	c0.5,0.6,1.1,1.1,1.7,1.5c0.1,0.1,0.2,0.2,0.4,0.2c0.3,0,1.8,1.4,1.9,1.7c0.3,0.7,0.6,1.3,0.8,1.9c0,0.1,0.1,0.1,0.1,0.3
	c-0.2,0.4,0,0.5,0.1,0.7c0.1,0.2,0.2,0.5,0.3,0.8c0,0.1-0.1,0.4-0.1,0.5c-0.1,0.2-0.5,0.4-0.6,0.4c-0.2,0-0.4,0.2-0.5,0.3
	c-0.1,0-0.1,0.1-0.2,0.1c-0.1,0-1.6-0.6-1.7-0.7c0-0.1-1.5-1.4-1.7-1.4c-0.1-0.1-0.1-0.2-0.2-0.3c0-0.1-1.4-0.9-1.4-0.9
	c-0.2-0.2-0.6-0.3-0.6-0.8c0-0.1-0.1-0.1-0.1-0.1c-0.5-0.3-0.9-0.7-1.3-1c-0.2-0.2-0.5-0.3-0.7-0.4c0,0-0.1-0.1-0.1-0.1
	c0,0-0.1-0.1-0.1-0.1c-0.6-0.3-1.1-0.7-1.8-0.8c-0.1,0-0.7-0.6-0.9-0.6C163.5,456.9,163.4,456.3,163.2,456.3L163.2,456.3
	L163.2,456.3z M312.2,446.1c0,0.3-0.4,0.1-1.2-0.3c-0.2-0.1-0.8-0.7-0.9-0.8c-0.1-0.2-0.1-0.5-0.2-0.7c0-0.1,0.7-1.4,0.9-1.8
	c0.2-0.4,0.6-0.7,0.9-1c0.7-0.6,1.5-1.2,2.2-1.7c0.2-0.1,0.4-0.2,0.6-0.2c0.7-0.1,1.4-0.5,2-0.8c0.1-0.1,0.2-0.1,0.3-0.3
	c0.1-0.3,1.9-1,2.1-1c0.7,0,1.3,0,1.9,0c0.1,0,0.2-0.1,0.3,0c0.3,0.3,0.4,0.2,0.6,0.2c0.2,0,0.5,0,0.8,0c0.1,0,0.3,0.2,0.5,0.3
	c0.1,0.1,0.2,0.6,0.2,0.7c-0.1,0.2,0.1,0.4,0.1,0.6c0,0.1,0,0.2,0,0.2c0,0.1-1,1.3-1.2,1.3c0,0-1.7,0.8-1.9,1c-0.1,0.1-0.2,0-0.3,0
	c-0.1,0-1.3,0.9-1.3,0.9c-0.3,0.1-0.5,0.4-0.9,0.2c-0.1,0-0.1,0-0.2,0.1c-0.4,0.3-0.9,0.5-1.4,0.7c-0.2,0.1-0.4,0.3-0.6,0.5
	c0,0-0.1,0-0.2,0c-0.1,0-0.1,0-0.2,0.1c-0.5,0.4-1.1,0.7-1.5,1.2c-0.1,0.1-0.9,0.3-0.9,0.5C312.9,446.1,312.2,446,312.2,446.1
	L312.2,446.1z"/>
<path class="st2" d="M80.5,169.7c0.3,0.2-0.1,0.6-0.7,0.9c-0.2,0.1-0.9,0.3-1,0.2c-0.2-0.1-0.4-0.2-0.6-0.4c-0.1-0.1-0.8-1.6-1-2.1
	c-0.2-0.5-0.4-1-0.5-1.5c-0.2-1.1-0.5-2.1-0.7-3.2c-0.1-0.2-0.1-0.5,0-0.7c0.1-0.9-0.1-1.7-0.2-2.5c0-0.1,0-0.3-0.2-0.4
	c-0.2-0.2-0.6-2.4-0.5-2.7c0.1-0.7,0.1-1.5,0.2-2.2c0-0.1,0-0.2,0.1-0.3c0.3-0.2,0.2-0.5,0.2-0.7c0-0.3,0-0.6,0.1-0.9
	c0-0.2,0.2-0.3,0.3-0.5c0.1-0.1,0.6-0.1,0.6-0.1c0.2,0.1,0.3,0,0.5-0.1c0.1,0,0.1,0,0.2,0c0.1,0,1.1,1.6,1.1,1.8
	c0,0,0.2,0.6,0.3,1.3s0.3,1.3,0.4,1.5c0.1,0.1,0,0.3,0,0.5c0,0.1,0.6,2,0.6,2.1c0,0.4,0.2,0.8,0,1.3c0,0.1,0,0.2,0,0.2
	c0.2,0.7,0.2,1.4,0.3,2.1c0,0.4,0.2,0.7,0.2,1.1c0,0.1,0,0.1,0,0.2c0,0.1,0,0.2,0,0.3c0.2,0.9,0.2,1.7,0.6,2.6
	c0.1,0.2,0,1.2,0.1,1.4C80.8,169.1,80.4,169.6,80.5,169.7L80.5,169.7L80.5,169.7z M74,177.9c0.3-0.2,0.5,0.2,0.7,0.9
	c0.1,0.2,0,0.9-0.1,1c-0.2,0.2-0.3,0.4-0.5,0.5c-0.1,0.1-1.6,0.4-2.1,0.5c-0.5,0.1-0.9,0.1-1.4,0.1c-1,0-1.9,0-2.9,0.1
	c-0.2,0-0.4,0-0.7-0.1c-0.7-0.2-1.5-0.2-2.2-0.1c-0.1,0-0.2,0-0.4,0.1c-0.2,0.2-2.2,0.3-2.5,0.2c-0.7-0.2-1.3-0.2-2-0.4
	c-0.1,0-0.2,0-0.3-0.1c-0.2-0.3-0.4-0.2-0.6-0.2c-0.3,0-0.6,0-0.8-0.1c-0.1,0-0.3-0.2-0.4-0.3c-0.1-0.1-0.1-0.6-0.1-0.6
	c0.1-0.1,0-0.4,0-0.5c0-0.1,0-0.1,0-0.2c0-0.1,1.5-1,1.7-1.1c0,0,0.6-0.1,1.2-0.2s1.3-0.2,1.4-0.3s0.3,0,0.4,0.1c0.1,0,2-0.4,2-0.4
	c0.4,0,0.8-0.1,1.2,0.1c0.1,0.1,0.2,0,0.2,0c0.7-0.1,1.4,0,2.1,0.1c0.3,0,0.7,0,1.1,0c0.1,0,0.1,0,0.2,0.1c0.1,0,0.2,0.1,0.2,0.1
	c0.8,0,1.7,0.1,2.5,0c0.2,0,1.1,0.3,1.3,0.3C73.5,177.5,73.9,178,74,177.9L74,177.9L74,177.9z M315.3,48.8c0.1,0.3-0.3,0.2-1,0
	c-0.2-0.1-0.9-0.4-0.9-0.5c-0.1-0.2-0.2-0.4-0.3-0.5c0-0.1,0.1-1.1,0.2-1.5c0-0.4,0.2-0.7,0.3-1c0.3-0.6,0.6-1.2,0.9-1.8
	c0.1-0.1,0.2-0.2,0.3-0.3c0.4-0.3,0.7-0.8,0.9-1.3c0-0.1,0.1-0.2,0-0.3c-0.1-0.2,0.6-1.4,0.7-1.5c0.4-0.3,0.7-0.6,1.1-0.9
	c0,0,0-0.1,0.2-0.1c0.3,0,0.4-0.1,0.4-0.2c0.1-0.2,0.2-0.3,0.4-0.4c0.1-0.1,0.3-0.1,0.5-0.1c0.1,0,0.5,0.2,0.5,0.3
	c0.1,0.1,0.3,0.2,0.5,0.3c0.1,0,0.1,0.1,0.2,0.1c0.1,0.1,0.2,1.4,0.2,1.5c0,0-0.6,1.6-0.6,1.8c0,0.1-0.1,0.2-0.2,0.2
	c0,0-0.4,1.3-0.5,1.3c-0.1,0.2-0.2,0.5-0.5,0.6c-0.1,0-0.1,0.1-0.1,0.1c-0.2,0.4-0.5,0.8-0.8,1.2c-0.1,0.2-0.2,0.4-0.3,0.6
	c0,0-0.1,0.1-0.1,0.1c0,0-0.1,0.1-0.1,0.1c-0.2,0.5-0.6,0.9-0.8,1.5c0,0.1-0.6,0.5-0.6,0.7C315.8,48.7,315.2,48.7,315.3,48.8
	L315.3,48.8L315.3,48.8z M325.4,63c-0.2,0.3-0.5,0-1-0.6c-0.1-0.2-0.4-0.8-0.4-1c0.1-0.2,0.2-0.5,0.3-0.7c0.1-0.1,1.5-1,2.1-1.3
	c0.5-0.3,1-0.5,1.6-0.6c1.1-0.3,2.2-0.5,3.4-0.7c0.2,0,0.5,0,0.8,0c0.9,0.1,1.7,0.1,2.6,0c0.1,0,0.3,0,0.4-0.1
	c0.2-0.2,2.6-0.1,2.9,0c0.8,0.3,1.5,0.5,2.2,0.8c0.1,0,0.2,0,0.3,0.2c0.2,0.3,0.4,0.3,0.6,0.4c0.3,0.1,0.6,0.2,0.9,0.4
	c0.1,0.1,0.3,0.3,0.4,0.4c0.1,0.2-0.1,0.6-0.1,0.6c-0.2,0.1-0.1,0.3-0.1,0.5c0,0.1,0,0.1,0,0.2c0,0.1-1.9,0.5-2,0.5
	c0,0-2.5-0.1-2.7,0c-0.1,0-0.3,0-0.4-0.1c-0.1,0-2,0.2-2.1,0.2c-0.4,0-0.8,0.1-1.2-0.1c-0.1,0-0.2,0-0.2,0c-0.7,0.1-1.4,0.1-2,0.1
	c-0.4,0-0.7,0.1-1,0.2c-0.1,0-0.1,0-0.2,0c-0.1,0-0.2,0-0.2,0c-0.8,0.2-1.6,0.3-2.4,0.6c-0.2,0.1-1.1,0.1-1.3,0.2
	C326,63.3,325.5,62.9,325.4,63L325.4,63L325.4,63z"/>
</svg>
